font.ufo
<glyph name="exclam" format="1">
  <advance width="237"/>
  <unicode hex="0021"/>
  <outline>
    <contour>
      <point x="145" y="131" type="line"/>
      <point x="145" y="140"/>
      <point x="141" y="142"/>
      <point x="135" y="142" type="curve" smooth="yes"/>
      <point x="103" y="142" type="line" smooth="yes"/>
      <point x="96" y="142"/>
      <point x="92" y="140"/>
      <point x="92" y="131" type="curve" smooth="yes"/>
      <point x="92" y="12" type="line" smooth="yes"/>
      <point x="92" y="3"/>
      <point x="96" y="0"/>
      <point x="103" y="0" type="curve" smooth="yes"/>
      <point x="135" y="0" type="line" smooth="yes"/>
      <point x="141" y="0"/>
      <point x="145" y="3"/>
      <point x="145" y="12" type="curve" smooth="yes"/>
    </contour>
    <contour>
      <point x="100" y="221" type="curve" smooth="yes"/>
      <point x="102" y="213"/>
      <point x="104" y="208"/>
      <point x="111" y="208" type="curve" smooth="yes"/>
      <point x="126" y="208" type="line" smooth="yes"/>
      <point x="133" y="208"/>
      <point x="135" y="213"/>
      <point x="136" y="221" type="curve" smooth="yes"/>
      <point x="138" y="240"/>
      <point x="148" y="413"/>
      <point x="148" y="533" type="curve" smooth="yes"/>
      <point x="148" y="631" type="line" smooth="yes"/>
      <point x="148" y="640"/>
      <point x="144" y="643"/>
      <point x="137" y="643" type="curve" smooth="yes"/>
      <point x="100" y="643" type="line" smooth="yes"/>
      <point x="93" y="643"/>
      <point x="90" y="640"/>
      <point x="90" y="631" type="curve" smooth="yes"/>
      <point x="90" y="533" type="line" smooth="yes"/>
      <point x="90" y="413"/>
      <point x="98" y="240"/>
    </contour>
  </outline>
</glyph>
<glyph name="quotedbl" format="1">
  <advance width="330"/>
  <unicode hex="0022"/>
  <outline>
    <contour>
      <point x="114" y="631" type="line"/>
      <point x="115" y="639"/>
      <point x="112" y="643"/>
      <point x="104" y="643" type="curve" smooth="yes"/>
      <point x="74" y="643" type="line" smooth="yes"/>
      <point x="65" y="643"/>
      <point x="63" y="639"/>
      <point x="63" y="631" type="curve" smooth="yes"/>
      <point x="74" y="448" type="line" smooth="yes"/>
      <point x="74" y="440"/>
      <point x="79" y="435"/>
      <point x="86" y="435" type="curve" smooth="yes"/>
      <point x="91" y="435" type="line" smooth="yes"/>
      <point x="98" y="435"/>
      <point x="103" y="439"/>
      <point x="103" y="448" type="curve" smooth="yes"/>
    </contour>
    <contour>
      <point x="256" y="448" type="line"/>
      <point x="255" y="439"/>
      <point x="251" y="435"/>
      <point x="244" y="435" type="curve" smooth="yes"/>
      <point x="239" y="435" type="line" smooth="yes"/>
      <point x="232" y="435"/>
      <point x="227" y="440"/>
      <point x="227" y="448" type="curve" smooth="yes"/>
      <point x="216" y="631" type="line" smooth="yes"/>
      <point x="215" y="639"/>
      <point x="218" y="643"/>
      <point x="227" y="643" type="curve" smooth="yes"/>
      <point x="256" y="643" type="line" smooth="yes"/>
      <point x="264" y="643"/>
      <point x="267" y="639"/>
      <point x="267" y="631" type="curve" smooth="yes"/>
    </contour>
  </outline>
</glyph>
<glyph name="numbersign" format="1">
  <advance width="677"/>
  <unicode hex="0023"/>
  <outline>
    <contour>
      <point x="330" y="627" type="line"/>
      <point x="333" y="638"/>
      <point x="330" y="643"/>
      <point x="320" y="643" type="curve" smooth="yes"/>
      <point x="301" y="643" type="line" smooth="yes"/>
      <point x="292" y="643"/>
      <point x="288" y="638"/>
      <point x="286" y="630" type="curve" smooth="yes"/>
      <point x="115" y="16" type="line" smooth="yes"/>
      <point x="112" y="5"/>
      <point x="114" y="0"/>
      <point x="122" y="0" type="curve" smooth="yes"/>
      <point x="144" y="0" type="line" smooth="yes"/>
      <point x="152" y="0"/>
      <point x="156" y="4"/>
      <point x="158" y="13" type="curve" smooth="yes"/>
    </contour>
    <contour>
      <point x="622" y="466" type="line"/>
      <point x="622" y="473"/>
      <point x="620" y="477"/>
      <point x="611" y="477" type="curve" smooth="yes"/>
      <point x="133" y="477" type="line" smooth="yes"/>
      <point x="124" y="477"/>
      <point x="121" y="473"/>
      <point x="121" y="466" type="curve" smooth="yes"/>
      <point x="121" y="444" type="line" smooth="yes"/>
      <point x="121" y="437"/>
      <point x="124" y="433"/>
      <point x="133" y="433" type="curve" smooth="yes"/>
      <point x="262" y="433"/>
      <point x="481" y="433"/>
      <point x="611" y="433" type="curve" smooth="yes"/>
      <point x="620" y="433"/>
      <point x="622" y="437"/>
      <point x="622" y="444" type="curve" smooth="yes"/>
    </contour>
    <contour>
      <point x="349" y="16" type="line"/>
      <point x="346" y="5"/>
      <point x="348" y="0"/>
      <point x="356" y="0" type="curve" smooth="yes"/>
      <point x="378" y="0" type="line" smooth="yes"/>
      <point x="387" y="0"/>
      <point x="390" y="5"/>
      <point x="392" y="13" type="curve" smooth="yes"/>
      <point x="564" y="627" type="line" smooth="yes"/>
      <point x="567" y="638"/>
      <point x="564" y="643"/>
      <point x="554" y="643" type="curve" smooth="yes"/>
      <point x="536" y="643" type="line" smooth="yes"/>
      <point x="526" y="643"/>
      <point x="523" y="639"/>
      <point x="520" y="630" type="curve" smooth="yes"/>
    </contour>
    <contour>
      <point x="544" y="166" type="line"/>
      <point x="553" y="166"/>
      <point x="556" y="170"/>
      <point x="556" y="177" type="curve" smooth="yes"/>
      <point x="556" y="199" type="line" smooth="yes"/>
      <point x="556" y="206"/>
      <point x="553" y="210"/>
      <point x="544" y="210" type="curve" smooth="yes"/>
      <point x="415" y="210"/>
      <point x="196" y="210"/>
      <point x="66" y="210" type="curve" smooth="yes"/>
      <point x="57" y="210"/>
      <point x="55" y="206"/>
      <point x="55" y="199" type="curve" smooth="yes"/>
      <point x="55" y="177" type="line" smooth="yes"/>
      <point x="55" y="170"/>
      <point x="57" y="166"/>
      <point x="66" y="166" type="curve" smooth="yes"/>
    </contour>
  </outline>
</glyph>
<glyph name="dollar" format="1">
  <advance width="504"/>
  <unicode hex="0024"/>
  <outline>
    <contour>
      <point x="275" y="-98" type="line"/>
      <point x="282" y="-98"/>
      <point x="286" y="-95"/>
      <point x="286" y="-86" type="curve" smooth="yes"/>
      <point x="286" y="0" type="line"/>
      <point x="295" y="0" type="line" smooth="yes"/>
      <point x="380" y="0"/>
      <point x="435" y="54"/>
      <point x="435" y="142" type="curve" smooth="yes"/>
      <point x="435" y="208" type="line" smooth="yes"/>
      <point x="435" y="315"/>
      <point x="373" y="345"/>
      <point x="295" y="347" type="curve" smooth="yes"/>
      <point x="223" y="347" type="line" smooth="yes"/>
      <point x="156" y="348"/>
      <point x="119" y="369"/>
      <point x="119" y="439" type="curve" smooth="yes"/>
      <point x="119" y="497" type="line" smooth="yes"/>
      <point x="119" y="564"/>
      <point x="152" y="599"/>
      <point x="216" y="599" type="curve" smooth="yes"/>
      <point x="286" y="599" type="line" smooth="yes"/>
      <point x="350" y="599"/>
      <point x="383" y="564"/>
      <point x="383" y="499" type="curve" smooth="yes"/>
      <point x="383" y="475" type="line" smooth="yes"/>
      <point x="383" y="466"/>
      <point x="387" y="463"/>
      <point x="394" y="463" type="curve" smooth="yes"/>
      <point x="423" y="463" type="line" smooth="yes"/>
      <point x="429" y="463"/>
      <point x="433" y="466"/>
      <point x="433" y="475" type="curve" smooth="yes"/>
      <point x="433" y="503" type="line" smooth="yes"/>
      <point x="433" y="589"/>
      <point x="379" y="645"/>
      <point x="295" y="645" type="curve" smooth="yes"/>
      <point x="286" y="645" type="line"/>
      <point x="286" y="731" type="line" smooth="yes"/>
      <point x="286" y="740"/>
      <point x="282" y="743"/>
      <point x="275" y="743" type="curve" smooth="yes"/>
      <point x="252" y="743" type="line" smooth="yes"/>
      <point x="245" y="743"/>
      <point x="241" y="740"/>
      <point x="241" y="731" type="curve" smooth="yes"/>
      <point x="241" y="645" type="line"/>
      <point x="209" y="645" type="line" smooth="yes"/>
      <point x="123" y="645"/>
      <point x="69" y="590"/>
      <point x="69" y="503" type="curve" smooth="yes"/>
      <point x="69" y="440" type="line" smooth="yes"/>
      <point x="69" y="331"/>
      <point x="133" y="304"/>
      <point x="216" y="302" type="curve" smooth="yes"/>
      <point x="279" y="301" type="line" smooth="yes"/>
      <point x="345" y="300"/>
      <point x="385" y="279"/>
      <point x="385" y="205" type="curve" smooth="yes"/>
      <point x="385" y="146" type="line" smooth="yes"/>
      <point x="385" y="81"/>
      <point x="352" y="45"/>
      <point x="288" y="45" type="curve" smooth="yes"/>
      <point x="216" y="45" type="line" smooth="yes"/>
      <point x="152" y="45"/>
      <point x="119" y="81"/>
      <point x="119" y="145" type="curve" smooth="yes"/>
      <point x="119" y="173" type="line" smooth="yes"/>
      <point x="119" y="182"/>
      <point x="116" y="184"/>
      <point x="109" y="184" type="curve" smooth="yes"/>
      <point x="80" y="184" type="line" smooth="yes"/>
      <point x="73" y="184"/>
      <point x="69" y="182"/>
      <point x="69" y="173" type="curve" smooth="yes"/>
      <point x="69" y="142" type="line" smooth="yes"/>
      <point x="69" y="55"/>
      <point x="124" y="0"/>
      <point x="209" y="0" type="curve" smooth="yes"/>
      <point x="241" y="0" type="line"/>
      <point x="241" y="-86" type="line" smooth="yes"/>
      <point x="241" y="-95"/>
      <point x="245" y="-98"/>
      <point x="252" y="-98" type="curve" smooth="yes"/>
    </contour>
  </outline>
</glyph>
<glyph name="percent" format="1">
  <advance width="717"/>
  <unicode hex="0025"/>
  <outline>
    <contour>
      <point x="512" y="628" type="line"/>
      <point x="517" y="638"/>
      <point x="514" y="643"/>
      <point x="506" y="643" type="curve" smooth="yes"/>
      <point x="487" y="643" type="line" smooth="yes"/>
      <point x="478" y="643"/>
      <point x="476" y="640"/>
      <point x="471" y="630" type="curve"/>
      <point x="458" y="595"/>
      <point x="217" y="49"/>
      <point x="204" y="14" type="curve"/>
      <point x="200" y="3"/>
      <point x="203" y="0"/>
      <point x="211" y="0" type="curve" smooth="yes"/>
      <point x="230" y="0" type="line" smooth="yes"/>
      <point x="238" y="0"/>
      <point x="241" y="3"/>
      <point x="246" y="13" type="curve" smooth="yes"/>
    </contour>
    <contour>
      <point x="165" y="647" type="line"/>
      <point x="86" y="647"/>
      <point x="50" y="609"/>
      <point x="50" y="530" type="curve" smooth="yes"/>
      <point x="50" y="470" type="line" smooth="yes"/>
      <point x="50" y="390"/>
      <point x="86" y="351"/>
      <point x="165" y="351" type="curve" smooth="yes"/>
      <point x="190" y="351" type="line" smooth="yes"/>
      <point x="268" y="351"/>
      <point x="304" y="390"/>
      <point x="304" y="470" type="curve" smooth="yes"/>
      <point x="304" y="530" type="line" smooth="yes"/>
      <point x="304" y="609"/>
      <point x="268" y="647"/>
      <point x="190" y="647" type="curve" smooth="yes"/>
    </contour>
    <contour>
      <point x="186" y="610" type="line"/>
      <point x="245" y="610"/>
      <point x="262" y="587"/>
      <point x="262" y="528" type="curve" smooth="yes"/>
      <point x="262" y="471" type="line" smooth="yes"/>
      <point x="262" y="412"/>
      <point x="245" y="388"/>
      <point x="186" y="388" type="curve" smooth="yes"/>
      <point x="168" y="388" type="line" smooth="yes"/>
      <point x="109" y="388"/>
      <point x="92" y="412"/>
      <point x="92" y="471" type="curve" smooth="yes"/>
      <point x="92" y="528" type="line" smooth="yes"/>
      <point x="92" y="587"/>
      <point x="109" y="610"/>
      <point x="168" y="610" type="curve" smooth="yes"/>
    </contour>
    <contour>
      <point x="528" y="296" type="line"/>
      <point x="450" y="296"/>
      <point x="413" y="258"/>
      <point x="413" y="178" type="curve" smooth="yes"/>
      <point x="413" y="118" type="line" smooth="yes"/>
      <point x="413" y="39"/>
      <point x="450" y="0"/>
      <point x="528" y="0" type="curve" smooth="yes"/>
      <point x="553" y="0" type="line" smooth="yes"/>
      <point x="632" y="0"/>
      <point x="667" y="39"/>
      <point x="667" y="118" type="curve" smooth="yes"/>
      <point x="667" y="178" type="line" smooth="yes"/>
      <point x="667" y="258"/>
      <point x="632" y="296"/>
      <point x="553" y="296" type="curve" smooth="yes"/>
    </contour>
    <contour>
      <point x="550" y="259" type="line"/>
      <point x="609" y="259"/>
      <point x="626" y="236"/>
      <point x="626" y="176" type="curve" smooth="yes"/>
      <point x="626" y="120" type="line" smooth="yes"/>
      <point x="626" y="61"/>
      <point x="609" y="37"/>
      <point x="550" y="37" type="curve" smooth="yes"/>
      <point x="532" y="37" type="line" smooth="yes"/>
      <point x="473" y="37"/>
      <point x="455" y="61"/>
      <point x="455" y="120" type="curve" smooth="yes"/>
      <point x="455" y="176" type="line" smooth="yes"/>
      <point x="455" y="236"/>
      <point x="473" y="259"/>
      <point x="532" y="259" type="curve" smooth="yes"/>
    </contour>
  </outline>
</glyph>
<glyph name="ampersand" format="1">
  <advance width="597"/>
  <unicode hex="0026"/>
  <outline>
    <contour>
      <point x="216" y="45" type="line"/>
      <point x="154" y="45"/>
      <point x="121" y="79"/>
      <point x="121" y="141" type="curve" smooth="yes"/>
      <point x="121" y="221" type="line" smooth="yes"/>
      <point x="121" y="282"/>
      <point x="149" y="316"/>
      <point x="204" y="319" type="curve"/>
      <point x="382" y="115" type="line"/>
      <point x="374" y="70"/>
      <point x="343" y="45"/>
      <point x="292" y="45" type="curve" smooth="yes"/>
    </contour>
    <contour>
      <point x="475" y="8" type="line"/>
      <point x="480" y="2"/>
      <point x="486" y="0"/>
      <point x="492" y="0" type="curve" smooth="yes"/>
      <point x="530" y="0" type="line" smooth="yes"/>
      <point x="535" y="0"/>
      <point x="536" y="5"/>
      <point x="533" y="9" type="curve" smooth="yes"/>
      <point x="326" y="248" type="line"/>
      <point x="527" y="248" type="line" smooth="yes"/>
      <point x="536" y="248"/>
      <point x="539" y="252"/>
      <point x="539" y="259" type="curve" smooth="yes"/>
      <point x="539" y="283" type="line" smooth="yes"/>
      <point x="539" y="290"/>
      <point x="536" y="294"/>
      <point x="527" y="294" type="curve" smooth="yes"/>
      <point x="515" y="294"/>
      <point x="301" y="294"/>
      <point x="288" y="294" type="curve"/>
      <point x="225" y="366" type="line"/>
      <point x="194" y="401"/>
      <point x="182" y="426"/>
      <point x="182" y="468" type="curve" smooth="yes"/>
      <point x="182" y="503" type="line" smooth="yes"/>
      <point x="182" y="565"/>
      <point x="215" y="599"/>
      <point x="276" y="599" type="curve" smooth="yes"/>
      <point x="295" y="599" type="line" smooth="yes"/>
      <point x="355" y="599"/>
      <point x="387" y="565"/>
      <point x="387" y="503" type="curve" smooth="yes"/>
      <point x="387" y="458" type="line" smooth="yes"/>
      <point x="387" y="449"/>
      <point x="391" y="446"/>
      <point x="398" y="446" type="curve" smooth="yes"/>
      <point x="427" y="446" type="line" smooth="yes"/>
      <point x="434" y="446"/>
      <point x="438" y="449"/>
      <point x="438" y="458" type="curve" smooth="yes"/>
      <point x="438" y="504" type="line" smooth="yes"/>
      <point x="438" y="592"/>
      <point x="383" y="643"/>
      <point x="297" y="643" type="curve" smooth="yes"/>
      <point x="273" y="643" type="line" smooth="yes"/>
      <point x="187" y="643"/>
      <point x="131" y="592"/>
      <point x="131" y="504" type="curve" smooth="yes"/>
      <point x="131" y="468" type="line" smooth="yes"/>
      <point x="131" y="420"/>
      <point x="146" y="388"/>
      <point x="177" y="350" type="curve"/>
      <point x="100" y="347"/>
      <point x="71" y="283"/>
      <point x="71" y="224" type="curve" smooth="yes"/>
      <point x="71" y="139" type="line" smooth="yes"/>
      <point x="71" y="51"/>
      <point x="126" y="0"/>
      <point x="212" y="0" type="curve" smooth="yes"/>
      <point x="292" y="0" type="line" smooth="yes"/>
      <point x="355" y="0"/>
      <point x="398" y="26"/>
      <point x="416" y="75" type="curve"/>
    </contour>
  </outline>
</glyph>
<glyph name="quotesingle" format="1">
  <advance width="186"/>
  <unicode hex="0027"/>
  <outline>
    <contour>
      <point x="118" y="625" type="line"/>
      <point x="119" y="632"/>
      <point x="116" y="636"/>
      <point x="107" y="636" type="curve" smooth="yes"/>
      <point x="78" y="636" type="line" smooth="yes"/>
      <point x="70" y="636"/>
      <point x="67" y="632"/>
      <point x="67" y="625" type="curve" smooth="yes"/>
      <point x="78" y="455" type="line" smooth="yes"/>
      <point x="78" y="447"/>
      <point x="83" y="443"/>
      <point x="90" y="443" type="curve" smooth="yes"/>
      <point x="96" y="443" type="line" smooth="yes"/>
      <point x="103" y="443"/>
      <point x="105" y="446"/>
      <point x="108" y="454" type="curve"/>
    </contour>
  </outline>
</glyph>
<glyph name="parenleft" format="1">
  <advance width="283"/>
  <unicode hex="0028"/>
  <outline>
    <contour>
      <point x="216" y="612" type="line"/>
      <point x="216" y="606"/>
      <point x="214" y="602"/>
      <point x="205" y="602" type="curve" smooth="yes"/>
      <point x="205" y="602"/>
      <point x="202" y="602"/>
      <point x="202" y="602" type="curve" smooth="yes"/>
      <point x="137" y="602"/>
      <point x="102" y="562"/>
      <point x="102" y="492" type="curve" smooth="yes"/>
      <point x="102" y="49" type="line" smooth="yes"/>
      <point x="102" y="-21"/>
      <point x="138" y="-61"/>
      <point x="202" y="-61" type="curve" smooth="yes"/>
      <point x="202" y="-61"/>
      <point x="205" y="-61"/>
      <point x="205" y="-61" type="curve" smooth="yes"/>
      <point x="214" y="-61"/>
      <point x="216" y="-65"/>
      <point x="216" y="-71" type="curve" smooth="yes"/>
      <point x="216" y="-93" type="line" smooth="yes"/>
      <point x="216" y="-99"/>
      <point x="214" y="-102"/>
      <point x="205" y="-102" type="curve" smooth="yes"/>
      <point x="205" y="-102"/>
      <point x="202" y="-102"/>
      <point x="202" y="-102" type="curve" smooth="yes"/>
      <point x="114" y="-102"/>
      <point x="56" y="-47"/>
      <point x="56" y="52" type="curve" smooth="yes"/>
      <point x="56" y="489" type="line" smooth="yes"/>
      <point x="56" y="588"/>
      <point x="114" y="643"/>
      <point x="202" y="643" type="curve" smooth="yes"/>
      <point x="203" y="643"/>
      <point x="205" y="643"/>
      <point x="206" y="643" type="curve" smooth="yes"/>
      <point x="214" y="643"/>
      <point x="216" y="640"/>
      <point x="216" y="634" type="curve" smooth="yes"/>
    </contour>
  </outline>
</glyph>
<glyph name="parenright" format="1">
  <advance width="283"/>
  <unicode hex="0029"/>
  <outline>
    <contour>
      <point x="56" y="-93" type="line"/>
      <point x="56" y="-99"/>
      <point x="59" y="-102"/>
      <point x="68" y="-102" type="curve" smooth="yes"/>
      <point x="68" y="-102"/>
      <point x="70" y="-102"/>
      <point x="71" y="-102" type="curve" smooth="yes"/>
      <point x="158" y="-102"/>
      <point x="216" y="-47"/>
      <point x="216" y="52" type="curve" smooth="yes"/>
      <point x="216" y="489" type="line" smooth="yes"/>
      <point x="216" y="588"/>
      <point x="158" y="643"/>
      <point x="71" y="643" type="curve" smooth="yes"/>
      <point x="70" y="643"/>
      <point x="68" y="643"/>
      <point x="68" y="643" type="curve" smooth="yes"/>
      <point x="59" y="643"/>
      <point x="56" y="640"/>
      <point x="56" y="634" type="curve" smooth="yes"/>
      <point x="56" y="612" type="line" smooth="yes"/>
      <point x="56" y="606"/>
      <point x="59" y="602"/>
      <point x="68" y="602" type="curve" smooth="yes"/>
      <point x="68" y="602"/>
      <point x="70" y="602"/>
      <point x="71" y="602" type="curve" smooth="yes"/>
      <point x="135" y="602"/>
      <point x="171" y="562"/>
      <point x="171" y="492" type="curve" smooth="yes"/>
      <point x="171" y="49" type="line" smooth="yes"/>
      <point x="171" y="-21"/>
      <point x="135" y="-61"/>
      <point x="71" y="-61" type="curve" smooth="yes"/>
      <point x="70" y="-61"/>
      <point x="68" y="-61"/>
      <point x="68" y="-61" type="curve" smooth="yes"/>
      <point x="59" y="-61"/>
      <point x="56" y="-65"/>
      <point x="56" y="-71" type="curve" smooth="yes"/>
    </contour>
  </outline>
</glyph>
<glyph name="asterisk" format="1">
  <advance width="406"/>
  <unicode hex="002A"/>
  <outline>
    <contour>
      <point x="225" y="632" type="line"/>
      <point x="225" y="640"/>
      <point x="221" y="643"/>
      <point x="214" y="643" type="curve" smooth="yes"/>
      <point x="192" y="643" type="line" smooth="yes"/>
      <point x="185" y="643"/>
      <point x="181" y="640"/>
      <point x="181" y="632" type="curve" smooth="yes"/>
      <point x="181" y="617" type="line" smooth="yes"/>
      <point x="181" y="564"/>
      <point x="199" y="517"/>
      <point x="203" y="505" type="curve"/>
      <point x="209" y="517"/>
      <point x="225" y="564"/>
      <point x="225" y="617" type="curve" smooth="yes"/>
    </contour>
    <contour>
      <point x="111" y="416" type="line"/>
      <point x="106" y="408"/>
      <point x="108" y="403"/>
      <point x="113" y="400" type="curve" smooth="yes"/>
      <point x="131" y="387" type="line" smooth="yes"/>
      <point x="137" y="383"/>
      <point x="142" y="383"/>
      <point x="146" y="389" type="curve" smooth="yes"/>
      <point x="155" y="403" type="line" smooth="yes"/>
      <point x="186" y="445"/>
      <point x="199" y="494"/>
      <point x="203" y="505" type="curve"/>
      <point x="191" y="499"/>
      <point x="151" y="471"/>
      <point x="120" y="428" type="curve" smooth="yes"/>
    </contour>
    <contour>
      <point x="89" y="564" type="line"/>
      <point x="81" y="567"/>
      <point x="77" y="564"/>
      <point x="76" y="558" type="curve" smooth="yes"/>
      <point x="68" y="537" type="line" smooth="yes"/>
      <point x="66" y="530"/>
      <point x="68" y="526"/>
      <point x="75" y="524" type="curve" smooth="yes"/>
      <point x="91" y="518" type="line" smooth="yes"/>
      <point x="140" y="503"/>
      <point x="191" y="505"/>
      <point x="203" y="505" type="curve"/>
      <point x="194" y="514"/>
      <point x="154" y="544"/>
      <point x="104" y="560" type="curve" smooth="yes"/>
    </contour>
    <contour>
      <point x="330" y="523" type="line"/>
      <point x="339" y="526"/>
      <point x="340" y="532"/>
      <point x="338" y="537" type="curve"/>
      <point x="331" y="558" type="line" smooth="yes"/>
      <point x="329" y="566"/>
      <point x="326" y="568"/>
      <point x="318" y="565" type="curve" smooth="yes"/>
      <point x="302" y="561" type="line" smooth="yes"/>
      <point x="252" y="544"/>
      <point x="213" y="513"/>
      <point x="203" y="505" type="curve"/>
      <point x="216" y="503"/>
      <point x="266" y="503"/>
      <point x="315" y="519" type="curve" smooth="yes"/>
    </contour>
    <contour>
      <point x="260" y="390" type="line"/>
      <point x="265" y="383"/>
      <point x="270" y="384"/>
      <point x="275" y="388" type="curve" smooth="yes"/>
      <point x="293" y="400" type="line" smooth="yes"/>
      <point x="299" y="405"/>
      <point x="300" y="409"/>
      <point x="296" y="415" type="curve" smooth="yes"/>
      <point x="286" y="428" type="line" smooth="yes"/>
      <point x="255" y="471"/>
      <point x="213" y="498"/>
      <point x="203" y="505" type="curve"/>
      <point x="205" y="493"/>
      <point x="220" y="445"/>
      <point x="251" y="403" type="curve" smooth="yes"/>
    </contour>
  </outline>
</glyph>
<glyph name="plus" format="1">
  <advance width="523"/>
  <unicode hex="002B"/>
  <outline>
    <contour>
      <point x="285" y="501" type="line"/>
      <point x="285" y="510"/>
      <point x="281" y="513"/>
      <point x="273" y="513" type="curve" smooth="yes"/>
      <point x="250" y="513" type="line" smooth="yes"/>
      <point x="242" y="513"/>
      <point x="238" y="510"/>
      <point x="238" y="501" type="curve" smooth="yes"/>
      <point x="238" y="141" type="line" smooth="yes"/>
      <point x="238" y="132"/>
      <point x="242" y="129"/>
      <point x="250" y="129" type="curve" smooth="yes"/>
      <point x="273" y="129" type="line" smooth="yes"/>
      <point x="281" y="129"/>
      <point x="285" y="132"/>
      <point x="285" y="141" type="curve" smooth="yes"/>
    </contour>
    <contour>
      <point x="82" y="343" type="line"/>
      <point x="73" y="343"/>
      <point x="70" y="339"/>
      <point x="70" y="332" type="curve" smooth="yes"/>
      <point x="70" y="310" type="line" smooth="yes"/>
      <point x="70" y="303"/>
      <point x="73" y="299"/>
      <point x="82" y="299" type="curve" smooth="yes"/>
      <point x="441" y="299" type="line" smooth="yes"/>
      <point x="451" y="299"/>
      <point x="453" y="303"/>
      <point x="453" y="310" type="curve" smooth="yes"/>
      <point x="453" y="332" type="line" smooth="yes"/>
      <point x="453" y="339"/>
      <point x="451" y="343"/>
      <point x="441" y="343" type="curve" smooth="yes"/>
    </contour>
  </outline>
</glyph>
<glyph name="comma" format="1">
  <advance width="191"/>
  <unicode hex="002C"/>
  <outline>
    <contour>
      <point x="123" y="131" type="line"/>
      <point x="123" y="140"/>
      <point x="120" y="142"/>
      <point x="113" y="142" type="curve" smooth="yes"/>
      <point x="78" y="142" type="line" smooth="yes"/>
      <point x="71" y="142"/>
      <point x="67" y="140"/>
      <point x="67" y="131" type="curve" smooth="yes"/>
      <point x="67" y="-93" type="line" smooth="yes"/>
      <point x="67" y="-100"/>
      <point x="71" y="-102"/>
      <point x="75" y="-102" type="curve" smooth="yes"/>
      <point x="79" y="-102"/>
      <point x="82" y="-100"/>
      <point x="83" y="-95" type="curve" smooth="yes"/>
      <point x="112" y="-4" type="line" smooth="yes"/>
      <point x="119" y="20"/>
      <point x="123" y="35"/>
      <point x="123" y="53" type="curve" smooth="yes"/>
    </contour>
  </outline>
</glyph>
<glyph name="period" format="1">
  <advance width="191"/>
  <unicode hex="002E"/>
  <outline>
    <contour>
      <point x="123" y="131" type="line"/>
      <point x="123" y="140"/>
      <point x="120" y="142"/>
      <point x="113" y="142" type="curve" smooth="yes"/>
      <point x="78" y="142" type="line" smooth="yes"/>
      <point x="71" y="142"/>
      <point x="67" y="140"/>
      <point x="67" y="131" type="curve" smooth="yes"/>
      <point x="67" y="12" type="line" smooth="yes"/>
      <point x="67" y="3"/>
      <point x="71" y="0"/>
      <point x="78" y="0" type="curve" smooth="yes"/>
      <point x="113" y="0" type="line" smooth="yes"/>
      <point x="120" y="0"/>
      <point x="123" y="3"/>
      <point x="123" y="12" type="curve" smooth="yes"/>
    </contour>
  </outline>
</glyph>
<glyph name="zero" format="1">
  <advance width="514"/>
  <unicode hex="0030"/>
  <outline>
    <contour>
      <point x="307" y="0" type="line"/>
      <point x="393" y="0"/>
      <point x="447" y="54"/>
      <point x="447" y="142" type="curve" smooth="yes"/>
      <point x="447" y="501" type="line" smooth="yes"/>
      <point x="447" y="589"/>
      <point x="393" y="643"/>
      <point x="307" y="643" type="curve" smooth="yes"/>
      <point x="207" y="643" type="line" smooth="yes"/>
      <point x="121" y="643"/>
      <point x="66" y="589"/>
      <point x="66" y="501" type="curve" smooth="yes"/>
      <point x="66" y="142" type="line" smooth="yes"/>
      <point x="66" y="54"/>
      <point x="121" y="0"/>
      <point x="207" y="0" type="curve" smooth="yes"/>
    </contour>
    <contour>
      <point x="211" y="45" type="line"/>
      <point x="149" y="45"/>
      <point x="117" y="81"/>
      <point x="117" y="144" type="curve" smooth="yes"/>
      <point x="117" y="499" type="line" smooth="yes"/>
      <point x="117" y="562"/>
      <point x="149" y="598"/>
      <point x="211" y="598" type="curve" smooth="yes"/>
      <point x="303" y="598" type="line" smooth="yes"/>
      <point x="365" y="598"/>
      <point x="397" y="562"/>
      <point x="397" y="499" type="curve" smooth="yes"/>
      <point x="397" y="144" type="line" smooth="yes"/>
      <point x="397" y="81"/>
      <point x="365" y="45"/>
      <point x="303" y="45" type="curve" smooth="yes"/>
    </contour>
  </outline>
</glyph>
<glyph name="one" format="1">
  <advance width="317"/>
  <unicode hex="0031"/>
  <outline>
    <contour>
      <point x="182" y="589" type="line"/>
      <point x="182" y="12" type="line" smooth="yes"/>
      <point x="182" y="3"/>
      <point x="185" y="0"/>
      <point x="192" y="0" type="curve" smooth="yes"/>
      <point x="221" y="0" type="line" smooth="yes"/>
      <point x="228" y="0"/>
      <point x="232" y="2"/>
      <point x="232" y="12" type="curve" smooth="yes"/>
      <point x="232" y="631" type="line" smooth="yes"/>
      <point x="232" y="640"/>
      <point x="228" y="643"/>
      <point x="221" y="643" type="curve" smooth="yes"/>
      <point x="195" y="643" type="line" smooth="yes"/>
      <point x="186" y="643"/>
      <point x="180" y="640"/>
      <point x="174" y="636" type="curve" smooth="yes"/>
      <point x="48" y="565" type="line" smooth="yes"/>
      <point x="39" y="559"/>
      <point x="36" y="555"/>
      <point x="36" y="544" type="curve" smooth="yes"/>
      <point x="36" y="522" type="line" smooth="yes"/>
      <point x="36" y="513"/>
      <point x="42" y="509"/>
      <point x="53" y="516" type="curve"/>
    </contour>
  </outline>
</glyph>
<glyph name="two" format="1">
  <advance width="478"/>
  <unicode hex="0032"/>
  <outline>
    <contour>
      <point x="60" y="11" type="line"/>
      <point x="60" y="4"/>
      <point x="63" y="0"/>
      <point x="72" y="0" type="curve" smooth="yes"/>
      <point x="410" y="0" type="line" smooth="yes"/>
      <point x="418" y="0"/>
      <point x="421" y="4"/>
      <point x="421" y="11" type="curve" smooth="yes"/>
      <point x="421" y="35" type="line" smooth="yes"/>
      <point x="421" y="42"/>
      <point x="418" y="46"/>
      <point x="410" y="46" type="curve" smooth="yes"/>
      <point x="114" y="46" type="line"/>
      <point x="114" y="104" type="line" smooth="yes"/>
      <point x="114" y="138"/>
      <point x="127" y="161"/>
      <point x="156" y="183" type="curve" smooth="yes"/>
      <point x="355" y="336" type="line" smooth="yes"/>
      <point x="393" y="365"/>
      <point x="418" y="410"/>
      <point x="418" y="462" type="curve" smooth="yes"/>
      <point x="418" y="504" type="line" smooth="yes"/>
      <point x="418" y="592"/>
      <point x="364" y="643"/>
      <point x="278" y="643" type="curve" smooth="yes"/>
      <point x="197" y="643" type="line" smooth="yes"/>
      <point x="111" y="643"/>
      <point x="56" y="592"/>
      <point x="56" y="504" type="curve" smooth="yes"/>
      <point x="56" y="458" type="line" smooth="yes"/>
      <point x="56" y="449"/>
      <point x="60" y="446"/>
      <point x="67" y="446" type="curve" smooth="yes"/>
      <point x="96" y="446" type="line" smooth="yes"/>
      <point x="103" y="446"/>
      <point x="107" y="449"/>
      <point x="107" y="458" type="curve" smooth="yes"/>
      <point x="107" y="503" type="line" smooth="yes"/>
      <point x="107" y="565"/>
      <point x="139" y="599"/>
      <point x="201" y="599" type="curve" smooth="yes"/>
      <point x="273" y="599" type="line" smooth="yes"/>
      <point x="335" y="599"/>
      <point x="368" y="565"/>
      <point x="368" y="503" type="curve" smooth="yes"/>
      <point x="368" y="464" type="line" smooth="yes"/>
      <point x="368" y="424"/>
      <point x="351" y="390"/>
      <point x="317" y="364" type="curve" smooth="yes"/>
      <point x="120" y="214" type="line"/>
      <point x="83" y="186"/>
      <point x="60" y="151"/>
      <point x="60" y="99" type="curve" smooth="yes"/>
    </contour>
  </outline>
</glyph>
<glyph name="three" format="1">
  <advance width="496"/>
  <unicode hex="0033"/>
  <outline>
    <contour>
      <point x="225" y="346" type="line"/>
      <point x="217" y="346"/>
      <point x="214" y="342"/>
      <point x="214" y="335" type="curve" smooth="yes"/>
      <point x="214" y="313" type="line" smooth="yes"/>
      <point x="214" y="306"/>
      <point x="217" y="302"/>
      <point x="225" y="302" type="curve" smooth="yes"/>
      <point x="285" y="302" type="line" smooth="yes"/>
      <point x="347" y="302"/>
      <point x="380" y="268"/>
      <point x="380" y="206" type="curve" smooth="yes"/>
      <point x="380" y="140" type="line" smooth="yes"/>
      <point x="380" y="78"/>
      <point x="347" y="44"/>
      <point x="285" y="44" type="curve" smooth="yes"/>
      <point x="208" y="44" type="line" smooth="yes"/>
      <point x="146" y="44"/>
      <point x="113" y="78"/>
      <point x="113" y="140" type="curve" smooth="yes"/>
      <point x="113" y="184" type="line" smooth="yes"/>
      <point x="113" y="193"/>
      <point x="110" y="196"/>
      <point x="103" y="196" type="curve" smooth="yes"/>
      <point x="74" y="196" type="line" smooth="yes"/>
      <point x="67" y="196"/>
      <point x="63" y="193"/>
      <point x="63" y="184" type="curve" smooth="yes"/>
      <point x="63" y="139" type="line" smooth="yes"/>
      <point x="63" y="51"/>
      <point x="118" y="0"/>
      <point x="204" y="0" type="curve" smooth="yes"/>
      <point x="289" y="0" type="line" smooth="yes"/>
      <point x="375" y="0"/>
      <point x="430" y="51"/>
      <point x="430" y="139" type="curve" smooth="yes"/>
      <point x="430" y="207" type="line" smooth="yes"/>
      <point x="430" y="278"/>
      <point x="391" y="312"/>
      <point x="347" y="324" type="curve"/>
      <point x="395" y="338"/>
      <point x="430" y="372"/>
      <point x="430" y="440" type="curve" smooth="yes"/>
      <point x="430" y="504" type="line" smooth="yes"/>
      <point x="430" y="592"/>
      <point x="375" y="643"/>
      <point x="289" y="643" type="curve" smooth="yes"/>
      <point x="204" y="643" type="line" smooth="yes"/>
      <point x="118" y="643"/>
      <point x="63" y="592"/>
      <point x="63" y="504" type="curve" smooth="yes"/>
      <point x="63" y="467" type="line" smooth="yes"/>
      <point x="63" y="459"/>
      <point x="67" y="456"/>
      <point x="74" y="456" type="curve" smooth="yes"/>
      <point x="103" y="456" type="line" smooth="yes"/>
      <point x="110" y="456"/>
      <point x="113" y="459"/>
      <point x="113" y="467" type="curve" smooth="yes"/>
      <point x="113" y="503" type="line" smooth="yes"/>
      <point x="113" y="565"/>
      <point x="146" y="599"/>
      <point x="208" y="599" type="curve" smooth="yes"/>
      <point x="285" y="599" type="line" smooth="yes"/>
      <point x="347" y="599"/>
      <point x="380" y="565"/>
      <point x="380" y="503" type="curve" smooth="yes"/>
      <point x="380" y="441" type="line" smooth="yes"/>
      <point x="380" y="379"/>
      <point x="347" y="346"/>
      <point x="285" y="346" type="curve" smooth="yes"/>
    </contour>
  </outline>
</glyph>
<glyph name="four" format="1">
  <advance width="520"/>
  <unicode hex="0034"/>
  <outline>
    <contour>
      <point x="389" y="0" type="line"/>
      <point x="396" y="0"/>
      <point x="400" y="2"/>
      <point x="400" y="12" type="curve" smooth="yes"/>
      <point x="400" y="131" type="line"/>
      <point x="475" y="131" type="line" smooth="yes"/>
      <point x="484" y="131"/>
      <point x="486" y="135"/>
      <point x="486" y="142" type="curve" smooth="yes"/>
      <point x="486" y="166" type="line" smooth="yes"/>
      <point x="486" y="173"/>
      <point x="484" y="176"/>
      <point x="475" y="176" type="curve" smooth="yes"/>
      <point x="400" y="176" type="line"/>
      <point x="400" y="628" type="line" smooth="yes"/>
      <point x="400" y="638"/>
      <point x="394" y="643"/>
      <point x="386" y="643" type="curve" smooth="yes"/>
      <point x="339" y="643" type="line" smooth="yes"/>
      <point x="326" y="643"/>
      <point x="321" y="638"/>
      <point x="315" y="628" type="curve" smooth="yes"/>
      <point x="53" y="186" type="line" smooth="yes"/>
      <point x="49" y="178"/>
      <point x="46" y="173"/>
      <point x="46" y="163" type="curve" smooth="yes"/>
      <point x="46" y="145" type="line" smooth="yes"/>
      <point x="46" y="137"/>
      <point x="51" y="131"/>
      <point x="61" y="131" type="curve" smooth="yes"/>
      <point x="351" y="131" type="line"/>
      <point x="351" y="12" type="line" smooth="yes"/>
      <point x="351" y="3"/>
      <point x="355" y="0"/>
      <point x="362" y="0" type="curve" smooth="yes"/>
    </contour>
    <contour>
      <point x="351" y="603" type="line"/>
      <point x="351" y="176" type="line"/>
      <point x="99" y="176" type="line"/>
    </contour>
  </outline>
</glyph>
<glyph name="five" format="1">
  <advance width="482"/>
  <unicode hex="0035"/>
  <outline>
    <contour>
      <point x="280" y="362" type="line"/>
      <point x="344" y="362"/>
      <point x="376" y="328"/>
      <point x="376" y="263" type="curve" smooth="yes"/>
      <point x="376" y="143" type="line" smooth="yes"/>
      <point x="376" y="80"/>
      <point x="343" y="44"/>
      <point x="281" y="44" type="curve" smooth="yes"/>
      <point x="209" y="44" type="line" smooth="yes"/>
      <point x="148" y="44"/>
      <point x="115" y="80"/>
      <point x="115" y="143" type="curve" smooth="yes"/>
      <point x="115" y="177" type="line" smooth="yes"/>
      <point x="115" y="186"/>
      <point x="111" y="189"/>
      <point x="104" y="189" type="curve" smooth="yes"/>
      <point x="75" y="189" type="line" smooth="yes"/>
      <point x="69" y="189"/>
      <point x="65" y="186"/>
      <point x="65" y="177" type="curve" smooth="yes"/>
      <point x="65" y="142" type="line" smooth="yes"/>
      <point x="65" y="54"/>
      <point x="119" y="0"/>
      <point x="205" y="0" type="curve" smooth="yes"/>
      <point x="285" y="0" type="line" smooth="yes"/>
      <point x="371" y="0"/>
      <point x="426" y="54"/>
      <point x="426" y="142" type="curve" smooth="yes"/>
      <point x="426" y="267" type="line" smooth="yes"/>
      <point x="426" y="355"/>
      <point x="373" y="405"/>
      <point x="287" y="405" type="curve" smooth="yes"/>
      <point x="203" y="405" type="line" smooth="yes"/>
      <point x="152" y="405"/>
      <point x="126" y="381"/>
      <point x="117" y="356" type="curve"/>
      <point x="117" y="596" type="line"/>
      <point x="402" y="596" type="line" smooth="yes"/>
      <point x="411" y="596"/>
      <point x="414" y="600"/>
      <point x="414" y="607" type="curve" smooth="yes"/>
      <point x="414" y="632" type="line" smooth="yes"/>
      <point x="414" y="639"/>
      <point x="411" y="643"/>
      <point x="402" y="643" type="curve" smooth="yes"/>
      <point x="77" y="643" type="line" smooth="yes"/>
      <point x="70" y="643"/>
      <point x="67" y="640"/>
      <point x="67" y="631" type="curve" smooth="yes"/>
      <point x="67" y="322" type="line" smooth="yes"/>
      <point x="67" y="314"/>
      <point x="70" y="311"/>
      <point x="77" y="311" type="curve" smooth="yes"/>
      <point x="109" y="311" type="line" smooth="yes"/>
      <point x="132" y="311"/>
      <point x="123" y="362"/>
      <point x="194" y="362" type="curve" smooth="yes"/>
    </contour>
  </outline>
</glyph>
<glyph name="six" format="1">
  <advance width="497"/>
  <unicode hex="0036"/>
  <outline>
    <contour>
      <point x="292" y="0" type="line"/>
      <point x="378" y="0"/>
      <point x="433" y="54"/>
      <point x="433" y="142" type="curve" smooth="yes"/>
      <point x="433" y="242" type="line" smooth="yes"/>
      <point x="433" y="329"/>
      <point x="378" y="383"/>
      <point x="292" y="383" type="curve" smooth="yes"/>
      <point x="109" y="383" type="line"/>
      <point x="109" y="499" type="line" smooth="yes"/>
      <point x="109" y="562"/>
      <point x="141" y="598"/>
      <point x="203" y="598" type="curve" smooth="yes"/>
      <point x="389" y="598" type="line" smooth="yes"/>
      <point x="397" y="598"/>
      <point x="400" y="602"/>
      <point x="400" y="608" type="curve" smooth="yes"/>
      <point x="400" y="632" type="line" smooth="yes"/>
      <point x="400" y="639"/>
      <point x="397" y="643"/>
      <point x="389" y="643" type="curve" smooth="yes"/>
      <point x="199" y="643" type="line" smooth="yes"/>
      <point x="113" y="643"/>
      <point x="58" y="589"/>
      <point x="58" y="501" type="curve" smooth="yes"/>
      <point x="58" y="142" type="line" smooth="yes"/>
      <point x="58" y="54"/>
      <point x="113" y="0"/>
      <point x="199" y="0" type="curve" smooth="yes"/>
    </contour>
    <contour>
      <point x="203" y="45" type="line"/>
      <point x="141" y="45"/>
      <point x="109" y="81"/>
      <point x="109" y="144" type="curve" smooth="yes"/>
      <point x="109" y="338" type="line"/>
      <point x="288" y="338" type="line" smooth="yes"/>
      <point x="350" y="338"/>
      <point x="382" y="302"/>
      <point x="382" y="240" type="curve" smooth="yes"/>
      <point x="382" y="144" type="line" smooth="yes"/>
      <point x="382" y="81"/>
      <point x="350" y="45"/>
      <point x="288" y="45" type="curve" smooth="yes"/>
    </contour>
  </outline>
</glyph>
<glyph name="seven" format="1">
  <advance width="380"/>
  <unicode hex="0037"/>
  <outline>
    <contour>
      <point x="122" y="0" type="line"/>
      <point x="131" y="0"/>
      <point x="137" y="2"/>
      <point x="140" y="11" type="curve" smooth="yes"/>
      <point x="355" y="584" type="line" smooth="yes"/>
      <point x="358" y="592"/>
      <point x="360" y="597"/>
      <point x="360" y="607" type="curve" smooth="yes"/>
      <point x="360" y="632" type="line" smooth="yes"/>
      <point x="360" y="639"/>
      <point x="358" y="643"/>
      <point x="349" y="643" type="curve" smooth="yes"/>
      <point x="27" y="643" type="line" smooth="yes"/>
      <point x="18" y="643"/>
      <point x="16" y="639"/>
      <point x="16" y="632" type="curve" smooth="yes"/>
      <point x="16" y="607" type="line" smooth="yes"/>
      <point x="16" y="600"/>
      <point x="18" y="597"/>
      <point x="27" y="597" type="curve" smooth="yes"/>
      <point x="306" y="597" type="line"/>
      <point x="87" y="15" type="line" smooth="yes"/>
      <point x="83" y="7"/>
      <point x="85" y="0"/>
      <point x="94" y="0" type="curve" smooth="yes"/>
    </contour>
  </outline>
</glyph>
<glyph name="eight" format="1">
  <advance width="519"/>
  <unicode hex="0038"/>
  <outline>
    <contour>
      <point x="312" y="0" type="line"/>
      <point x="398" y="0"/>
      <point x="452" y="50"/>
      <point x="452" y="138" type="curve" smooth="yes"/>
      <point x="452" y="204" type="line" smooth="yes"/>
      <point x="452" y="265"/>
      <point x="426" y="306"/>
      <point x="380" y="324" type="curve"/>
      <point x="425" y="341"/>
      <point x="452" y="383"/>
      <point x="452" y="443" type="curve" smooth="yes"/>
      <point x="452" y="505" type="line" smooth="yes"/>
      <point x="452" y="593"/>
      <point x="398" y="643"/>
      <point x="312" y="643" type="curve" smooth="yes"/>
      <point x="207" y="643" type="line" smooth="yes"/>
      <point x="121" y="643"/>
      <point x="66" y="593"/>
      <point x="66" y="505" type="curve" smooth="yes"/>
      <point x="66" y="443" type="line" smooth="yes"/>
      <point x="66" y="383"/>
      <point x="94" y="342"/>
      <point x="139" y="324" type="curve"/>
      <point x="93" y="306"/>
      <point x="66" y="265"/>
      <point x="66" y="204" type="curve" smooth="yes"/>
      <point x="66" y="138" type="line" smooth="yes"/>
      <point x="66" y="50"/>
      <point x="121" y="0"/>
      <point x="207" y="0" type="curve" smooth="yes"/>
    </contour>
    <contour>
      <point x="211" y="345" type="line"/>
      <point x="149" y="345"/>
      <point x="117" y="380"/>
      <point x="117" y="442" type="curve" smooth="yes"/>
      <point x="117" y="502" type="line" smooth="yes"/>
      <point x="117" y="565"/>
      <point x="149" y="598"/>
      <point x="211" y="598" type="curve" smooth="yes"/>
      <point x="308" y="598" type="line" smooth="yes"/>
      <point x="370" y="598"/>
      <point x="403" y="565"/>
      <point x="403" y="502" type="curve" smooth="yes"/>
      <point x="403" y="442" type="line" smooth="yes"/>
      <point x="403" y="380"/>
      <point x="370" y="345"/>
      <point x="308" y="345" type="curve" smooth="yes"/>
    </contour>
    <contour>
      <point x="211" y="45" type="line"/>
      <point x="149" y="45"/>
      <point x="117" y="78"/>
      <point x="117" y="141" type="curve" smooth="yes"/>
      <point x="117" y="206" type="line" smooth="yes"/>
      <point x="117" y="268"/>
      <point x="149" y="302"/>
      <point x="211" y="302" type="curve" smooth="yes"/>
      <point x="308" y="302" type="line" smooth="yes"/>
      <point x="370" y="302"/>
      <point x="403" y="268"/>
      <point x="403" y="206" type="curve" smooth="yes"/>
      <point x="403" y="141" type="line" smooth="yes"/>
      <point x="403" y="78"/>
      <point x="370" y="45"/>
      <point x="308" y="45" type="curve" smooth="yes"/>
    </contour>
  </outline>
</glyph>
<glyph name="nine" format="1">
  <advance width="497"/>
  <unicode hex="0039"/>
  <outline>
    <contour>
      <point x="290" y="0" type="line"/>
      <point x="376" y="0"/>
      <point x="431" y="54"/>
      <point x="431" y="142" type="curve" smooth="yes"/>
      <point x="431" y="501" type="line" smooth="yes"/>
      <point x="431" y="589"/>
      <point x="376" y="643"/>
      <point x="290" y="643" type="curve" smooth="yes"/>
      <point x="197" y="643" type="line" smooth="yes"/>
      <point x="111" y="643"/>
      <point x="56" y="589"/>
      <point x="56" y="501" type="curve" smooth="yes"/>
      <point x="56" y="400" type="line" smooth="yes"/>
      <point x="56" y="312"/>
      <point x="111" y="258"/>
      <point x="197" y="258" type="curve" smooth="yes"/>
      <point x="380" y="258" type="line"/>
      <point x="380" y="144" type="line" smooth="yes"/>
      <point x="380" y="81"/>
      <point x="348" y="45"/>
      <point x="286" y="45" type="curve" smooth="yes"/>
      <point x="99" y="45" type="line" smooth="yes"/>
      <point x="90" y="45"/>
      <point x="87" y="41"/>
      <point x="87" y="35" type="curve" smooth="yes"/>
      <point x="87" y="11" type="line" smooth="yes"/>
      <point x="87" y="4"/>
      <point x="90" y="0"/>
      <point x="99" y="0" type="curve" smooth="yes"/>
    </contour>
    <contour>
      <point x="201" y="303" type="line"/>
      <point x="139" y="303"/>
      <point x="107" y="339"/>
      <point x="107" y="402" type="curve" smooth="yes"/>
      <point x="107" y="499" type="line" smooth="yes"/>
      <point x="107" y="562"/>
      <point x="139" y="598"/>
      <point x="201" y="598" type="curve" smooth="yes"/>
      <point x="286" y="598" type="line" smooth="yes"/>
      <point x="348" y="598"/>
      <point x="381" y="562"/>
      <point x="381" y="499" type="curve" smooth="yes"/>
      <point x="381" y="303" type="line"/>
    </contour>
  </outline>
</glyph>
<glyph name="colon" format="1">
  <advance width="191"/>
  <unicode hex="003A"/>
  <outline>
    <contour>
      <point x="123" y="131" type="line"/>
      <point x="123" y="140"/>
      <point x="120" y="142"/>
      <point x="113" y="142" type="curve" smooth="yes"/>
      <point x="78" y="142" type="line" smooth="yes"/>
      <point x="71" y="142"/>
      <point x="67" y="140"/>
      <point x="67" y="131" type="curve" smooth="yes"/>
      <point x="67" y="12" type="line" smooth="yes"/>
      <point x="67" y="3"/>
      <point x="71" y="0"/>
      <point x="78" y="0" type="curve" smooth="yes"/>
      <point x="113" y="0" type="line" smooth="yes"/>
      <point x="120" y="0"/>
      <point x="123" y="3"/>
      <point x="123" y="12" type="curve" smooth="yes"/>
    </contour>
    <contour>
      <point x="123" y="499" type="line"/>
      <point x="123" y="507"/>
      <point x="120" y="510"/>
      <point x="113" y="510" type="curve" smooth="yes"/>
      <point x="78" y="510" type="line" smooth="yes"/>
      <point x="71" y="510"/>
      <point x="67" y="507"/>
      <point x="67" y="499" type="curve" smooth="yes"/>
      <point x="67" y="379" type="line" smooth="yes"/>
      <point x="67" y="371"/>
      <point x="71" y="368"/>
      <point x="78" y="368" type="curve" smooth="yes"/>
      <point x="113" y="368" type="line" smooth="yes"/>
      <point x="120" y="368"/>
      <point x="123" y="371"/>
      <point x="123" y="379" type="curve" smooth="yes"/>
    </contour>
  </outline>
</glyph>
<glyph name="semicolon" format="1">
  <advance width="191"/>
  <unicode hex="003B"/>
  <outline>
    <contour>
      <point x="123" y="499" type="line"/>
      <point x="123" y="507"/>
      <point x="120" y="510"/>
      <point x="113" y="510" type="curve" smooth="yes"/>
      <point x="78" y="510" type="line" smooth="yes"/>
      <point x="71" y="510"/>
      <point x="67" y="507"/>
      <point x="67" y="499" type="curve" smooth="yes"/>
      <point x="67" y="379" type="line" smooth="yes"/>
      <point x="67" y="371"/>
      <point x="71" y="368"/>
      <point x="78" y="368" type="curve" smooth="yes"/>
      <point x="113" y="368" type="line" smooth="yes"/>
      <point x="120" y="368"/>
      <point x="123" y="371"/>
      <point x="123" y="379" type="curve" smooth="yes"/>
    </contour>
    <contour>
      <point x="123" y="131" type="line"/>
      <point x="123" y="140"/>
      <point x="120" y="142"/>
      <point x="113" y="142" type="curve" smooth="yes"/>
      <point x="78" y="142" type="line" smooth="yes"/>
      <point x="71" y="142"/>
      <point x="67" y="140"/>
      <point x="67" y="131" type="curve" smooth="yes"/>
      <point x="67" y="-93" type="line" smooth="yes"/>
      <point x="67" y="-100"/>
      <point x="71" y="-102"/>
      <point x="75" y="-102" type="curve" smooth="yes"/>
      <point x="79" y="-102"/>
      <point x="82" y="-100"/>
      <point x="83" y="-95" type="curve" smooth="yes"/>
      <point x="112" y="-4" type="line" smooth="yes"/>
      <point x="119" y="20"/>
      <point x="123" y="35"/>
      <point x="123" y="53" type="curve" smooth="yes"/>
    </contour>
  </outline>
</glyph>
<glyph name="less" format="1">
  <advance width="513"/>
  <unicode hex="003C"/>
  <outline>
    <contour>
      <point x="448" y="480" type="line"/>
      <point x="448" y="488"/>
      <point x="444" y="492"/>
      <point x="434" y="488" type="curve" smooth="yes"/>
      <point x="78" y="353" type="line" smooth="yes"/>
      <point x="68" y="349"/>
      <point x="65" y="344"/>
      <point x="65" y="336" type="curve" smooth="yes"/>
      <point x="65" y="309" type="line" smooth="yes"/>
      <point x="65" y="300"/>
      <point x="68" y="295"/>
      <point x="78" y="292" type="curve" smooth="yes"/>
      <point x="434" y="156" type="line" smooth="yes"/>
      <point x="444" y="153"/>
      <point x="448" y="156"/>
      <point x="448" y="164" type="curve" smooth="yes"/>
      <point x="448" y="189" type="line" smooth="yes"/>
      <point x="448" y="197"/>
      <point x="447" y="201"/>
      <point x="439" y="203" type="curve" smooth="yes"/>
      <point x="109" y="322" type="line"/>
      <point x="439" y="442" type="line" smooth="yes"/>
      <point x="447" y="444"/>
      <point x="448" y="448"/>
      <point x="448" y="456" type="curve" smooth="yes"/>
    </contour>
  </outline>
</glyph>
<glyph name="equal" format="1">
  <advance width="531"/>
  <unicode hex="003D"/>
  <outline>
    <contour>
      <point x="86" y="253" type="line"/>
      <point x="77" y="253"/>
      <point x="74" y="250"/>
      <point x="74" y="242" type="curve" smooth="yes"/>
      <point x="74" y="221" type="line" smooth="yes"/>
      <point x="74" y="214"/>
      <point x="77" y="210"/>
      <point x="86" y="210" type="curve" smooth="yes"/>
      <point x="445" y="210" type="line" smooth="yes"/>
      <point x="455" y="210"/>
      <point x="457" y="214"/>
      <point x="457" y="221" type="curve" smooth="yes"/>
      <point x="457" y="242" type="line" smooth="yes"/>
      <point x="457" y="250"/>
      <point x="455" y="253"/>
      <point x="445" y="253" type="curve" smooth="yes"/>
    </contour>
    <contour>
      <point x="86" y="432" type="line"/>
      <point x="77" y="432"/>
      <point x="74" y="428"/>
      <point x="74" y="421" type="curve" smooth="yes"/>
      <point x="74" y="400" type="line" smooth="yes"/>
      <point x="74" y="393"/>
      <point x="77" y="389"/>
      <point x="86" y="389" type="curve" smooth="yes"/>
      <point x="445" y="389" type="line" smooth="yes"/>
      <point x="455" y="389"/>
      <point x="457" y="393"/>
      <point x="457" y="400" type="curve" smooth="yes"/>
      <point x="457" y="421" type="line" smooth="yes"/>
      <point x="457" y="428"/>
      <point x="455" y="432"/>
      <point x="445" y="432" type="curve" smooth="yes"/>
    </contour>
  </outline>
</glyph>
<glyph name="greater" format="1">
  <advance width="531"/>
  <unicode hex="003E"/>
  <outline>
    <contour>
      <point x="74" y="456" type="line"/>
      <point x="74" y="448"/>
      <point x="76" y="444"/>
      <point x="84" y="442" type="curve" smooth="yes"/>
      <point x="413" y="322" type="line"/>
      <point x="84" y="203" type="line" smooth="yes"/>
      <point x="76" y="201"/>
      <point x="74" y="197"/>
      <point x="74" y="189" type="curve" smooth="yes"/>
      <point x="74" y="164" type="line" smooth="yes"/>
      <point x="74" y="156"/>
      <point x="78" y="153"/>
      <point x="88" y="156" type="curve" smooth="yes"/>
      <point x="445" y="292" type="line" smooth="yes"/>
      <point x="454" y="295"/>
      <point x="457" y="300"/>
      <point x="457" y="309" type="curve" smooth="yes"/>
      <point x="457" y="336" type="line" smooth="yes"/>
      <point x="457" y="344"/>
      <point x="454" y="349"/>
      <point x="445" y="353" type="curve" smooth="yes"/>
      <point x="88" y="488" type="line" smooth="yes"/>
      <point x="78" y="492"/>
      <point x="74" y="488"/>
      <point x="74" y="480" type="curve" smooth="yes"/>
    </contour>
  </outline>
</glyph>
<glyph name="question" format="1">
  <advance width="473"/>
  <unicode hex="003F"/>
  <outline>
    <contour>
      <point x="268" y="256" type="line"/>
      <point x="268" y="292"/>
      <point x="270" y="308"/>
      <point x="308" y="340" type="curve" smooth="yes"/>
      <point x="354" y="379" type="line" smooth="yes"/>
      <point x="385" y="404"/>
      <point x="402" y="431"/>
      <point x="402" y="472" type="curve" smooth="yes"/>
      <point x="402" y="503" type="line" smooth="yes"/>
      <point x="402" y="591"/>
      <point x="347" y="642"/>
      <point x="261" y="642" type="curve" smooth="yes"/>
      <point x="212" y="642" type="line" smooth="yes"/>
      <point x="126" y="642"/>
      <point x="71" y="591"/>
      <point x="71" y="503" type="curve" smooth="yes"/>
      <point x="71" y="460" type="line" smooth="yes"/>
      <point x="71" y="451"/>
      <point x="75" y="448"/>
      <point x="82" y="448" type="curve" smooth="yes"/>
      <point x="111" y="448" type="line" smooth="yes"/>
      <point x="118" y="448"/>
      <point x="122" y="451"/>
      <point x="122" y="460" type="curve" smooth="yes"/>
      <point x="122" y="502" type="line" smooth="yes"/>
      <point x="122" y="564"/>
      <point x="154" y="598"/>
      <point x="216" y="598" type="curve" smooth="yes"/>
      <point x="257" y="598" type="line" smooth="yes"/>
      <point x="319" y="598"/>
      <point x="352" y="564"/>
      <point x="352" y="502" type="curve" smooth="yes"/>
      <point x="352" y="474" type="line" smooth="yes"/>
      <point x="352" y="444"/>
      <point x="340" y="423"/>
      <point x="313" y="400" type="curve" smooth="yes"/>
      <point x="277" y="369" type="line" smooth="yes"/>
      <point x="232" y="330"/>
      <point x="219" y="309"/>
      <point x="219" y="253" type="curve" smooth="yes"/>
      <point x="219" y="220" type="line" smooth="yes"/>
      <point x="219" y="211"/>
      <point x="223" y="208"/>
      <point x="230" y="208" type="curve" smooth="yes"/>
      <point x="258" y="208" type="line" smooth="yes"/>
      <point x="264" y="208"/>
      <point x="268" y="211"/>
      <point x="268" y="220" type="curve" smooth="yes"/>
    </contour>
    <contour>
      <point x="271" y="131" type="line"/>
      <point x="271" y="140"/>
      <point x="267" y="142"/>
      <point x="261" y="142" type="curve" smooth="yes"/>
      <point x="225" y="142" type="line" smooth="yes"/>
      <point x="218" y="142"/>
      <point x="215" y="140"/>
      <point x="215" y="131" type="curve" smooth="yes"/>
      <point x="215" y="12" type="line" smooth="yes"/>
      <point x="215" y="3"/>
      <point x="218" y="0"/>
      <point x="225" y="0" type="curve" smooth="yes"/>
      <point x="261" y="0" type="line" smooth="yes"/>
      <point x="267" y="0"/>
      <point x="271" y="3"/>
      <point x="271" y="12" type="curve" smooth="yes"/>
    </contour>
  </outline>
</glyph>
<glyph name="at" format="1">
  <advance width="753"/>
  <unicode hex="0040"/>
  <outline>
    <contour>
      <point x="515" y="-58" type="line"/>
      <point x="524" y="-58"/>
      <point x="526" y="-54"/>
      <point x="526" y="-47" type="curve" smooth="yes"/>
      <point x="526" y="-31" type="line" smooth="yes"/>
      <point x="526" y="-25"/>
      <point x="524" y="-21"/>
      <point x="515" y="-21" type="curve" smooth="yes"/>
      <point x="332" y="-21" type="line" smooth="yes"/>
      <point x="221" y="-21"/>
      <point x="122" y="62"/>
      <point x="122" y="195" type="curve" smooth="yes"/>
      <point x="122" y="350" type="line" smooth="yes"/>
      <point x="122" y="483"/>
      <point x="219" y="566"/>
      <point x="330" y="566" type="curve" smooth="yes"/>
      <point x="523" y="566" type="line" smooth="yes"/>
      <point x="591" y="566"/>
      <point x="633" y="525"/>
      <point x="633" y="455" type="curve" smooth="yes"/>
      <point x="633" y="221" type="line" smooth="yes"/>
      <point x="633" y="157"/>
      <point x="599" y="121"/>
      <point x="537" y="121" type="curve" smooth="yes"/>
      <point x="528" y="121" type="line" smooth="yes"/>
      <point x="521" y="121"/>
      <point x="517" y="124"/>
      <point x="517" y="130" type="curve" smooth="yes"/>
      <point x="517" y="448" type="line" smooth="yes"/>
      <point x="517" y="457"/>
      <point x="513" y="460"/>
      <point x="506" y="460" type="curve" smooth="yes"/>
      <point x="364" y="460" type="line" smooth="yes"/>
      <point x="281" y="460"/>
      <point x="227" y="406"/>
      <point x="227" y="318" type="curve" smooth="yes"/>
      <point x="227" y="225" type="line" smooth="yes"/>
      <point x="227" y="137"/>
      <point x="281" y="85"/>
      <point x="361" y="85" type="curve" smooth="yes"/>
      <point x="400" y="85"/>
      <point x="446" y="95"/>
      <point x="468" y="137" type="curve"/>
      <point x="472" y="137" type="line"/>
      <point x="472" y="130"/>
      <point x="472" y="123"/>
      <point x="472" y="117" type="curve" smooth="yes"/>
      <point x="472" y="96"/>
      <point x="489" y="83"/>
      <point x="508" y="83" type="curve" smooth="yes"/>
      <point x="538" y="83" type="line" smooth="yes"/>
      <point x="618" y="83"/>
      <point x="672" y="136"/>
      <point x="672" y="218" type="curve" smooth="yes"/>
      <point x="672" y="457" type="line" smooth="yes"/>
      <point x="672" y="545"/>
      <point x="613" y="603"/>
      <point x="524" y="603" type="curve" smooth="yes"/>
      <point x="330" y="603" type="line" smooth="yes"/>
      <point x="205" y="603"/>
      <point x="83" y="511"/>
      <point x="83" y="351" type="curve" smooth="yes"/>
      <point x="83" y="193" type="line" smooth="yes"/>
      <point x="83" y="30"/>
      <point x="207" y="-58"/>
      <point x="333" y="-58" type="curve" smooth="yes"/>
    </contour>
    <contour>
      <point x="472" y="225" type="line"/>
      <point x="472" y="161"/>
      <point x="432" y="126"/>
      <point x="369" y="126" type="curve" smooth="yes"/>
      <point x="369" y="126"/>
      <point x="368" y="126"/>
      <point x="368" y="126" type="curve"/>
      <point x="306" y="126"/>
      <point x="274" y="162"/>
      <point x="274" y="225" type="curve" smooth="yes"/>
      <point x="274" y="319" type="line" smooth="yes"/>
      <point x="274" y="382"/>
      <point x="306" y="418"/>
      <point x="368" y="418" type="curve" smooth="yes"/>
      <point x="462" y="418" type="line" smooth="yes"/>
      <point x="469" y="418"/>
      <point x="472" y="415"/>
      <point x="472" y="409" type="curve" smooth="yes"/>
    </contour>
  </outline>
</glyph>
<glyph name="A" format="1">
  <advance width="533"/>
  <unicode hex="0041"/>
  <outline>
    <contour>
      <point x="264" y="588" type="line"/>
      <point x="268" y="588" type="line"/>
      <point x="384" y="217" type="line"/>
      <point x="149" y="217" type="line"/>
    </contour>
    <contour>
      <point x="68" y="0" type="line"/>
      <point x="75" y="0"/>
      <point x="78" y="3"/>
      <point x="81" y="12" type="curve" smooth="yes"/>
      <point x="135" y="172" type="line"/>
      <point x="397" y="172" type="line"/>
      <point x="451" y="12" type="line" smooth="yes"/>
      <point x="453" y="3"/>
      <point x="457" y="0"/>
      <point x="464" y="0" type="curve" smooth="yes"/>
      <point x="496" y="0" type="line" smooth="yes"/>
      <point x="503" y="0"/>
      <point x="505" y="3"/>
      <point x="503" y="12" type="curve" smooth="yes"/>
      <point x="304" y="631" type="line" smooth="yes"/>
      <point x="301" y="640"/>
      <point x="297" y="643"/>
      <point x="290" y="643" type="curve" smooth="yes"/>
      <point x="243" y="643" type="line" smooth="yes"/>
      <point x="236" y="643"/>
      <point x="231" y="640"/>
      <point x="229" y="631" type="curve" smooth="yes"/>
      <point x="30" y="12" type="line" smooth="yes"/>
      <point x="27" y="3"/>
      <point x="30" y="0"/>
      <point x="37" y="0" type="curve" smooth="yes"/>
    </contour>
  </outline>
</glyph>
<glyph name="B" format="1">
  <advance width="546"/>
  <unicode hex="0042"/>
  <outline>
    <contour>
      <point x="85" y="12" type="line"/>
      <point x="85" y="3"/>
      <point x="89" y="0"/>
      <point x="95" y="0" type="curve" smooth="yes"/>
      <point x="335" y="0" type="line" smooth="yes"/>
      <point x="421" y="0"/>
      <point x="476" y="51"/>
      <point x="476" y="139" type="curve" smooth="yes"/>
      <point x="476" y="209" type="line" smooth="yes"/>
      <point x="476" y="281"/>
      <point x="429" y="323"/>
      <point x="383" y="326" type="curve"/>
      <point x="430" y="340"/>
      <point x="469" y="375"/>
      <point x="469" y="443" type="curve" smooth="yes"/>
      <point x="469" y="504" type="line" smooth="yes"/>
      <point x="469" y="592"/>
      <point x="414" y="643"/>
      <point x="328" y="643" type="curve" smooth="yes"/>
      <point x="95" y="643" type="line" smooth="yes"/>
      <point x="89" y="643"/>
      <point x="85" y="640"/>
      <point x="85" y="631" type="curve" smooth="yes"/>
    </contour>
    <contour>
      <point x="145" y="348" type="line"/>
      <point x="138" y="348"/>
      <point x="135" y="351"/>
      <point x="135" y="357" type="curve" smooth="yes"/>
      <point x="135" y="590" type="line" smooth="yes"/>
      <point x="135" y="596"/>
      <point x="138" y="599"/>
      <point x="145" y="599" type="curve" smooth="yes"/>
      <point x="324" y="599" type="line" smooth="yes"/>
      <point x="386" y="599"/>
      <point x="419" y="565"/>
      <point x="419" y="503" type="curve" smooth="yes"/>
      <point x="419" y="444" type="line" smooth="yes"/>
      <point x="419" y="382"/>
      <point x="383" y="348"/>
      <point x="321" y="348" type="curve" smooth="yes"/>
    </contour>
    <contour>
      <point x="145" y="44" type="line"/>
      <point x="138" y="44"/>
      <point x="135" y="47"/>
      <point x="135" y="53" type="curve" smooth="yes"/>
      <point x="135" y="296" type="line" smooth="yes"/>
      <point x="135" y="301"/>
      <point x="138" y="304"/>
      <point x="145" y="304" type="curve" smooth="yes"/>
      <point x="322" y="304" type="line" smooth="yes"/>
      <point x="393" y="304"/>
      <point x="426" y="271"/>
      <point x="426" y="209" type="curve" smooth="yes"/>
      <point x="426" y="140" type="line" smooth="yes"/>
      <point x="426" y="78"/>
      <point x="393" y="44"/>
      <point x="331" y="44" type="curve" smooth="yes"/>
    </contour>
  </outline>
</glyph>
<glyph name="C" format="1">
  <advance width="542"/>
  <unicode hex="0043"/>
  <outline>
    <contour>
      <point x="341" y="0" type="line"/>
      <point x="427" y="0"/>
      <point x="481" y="54"/>
      <point x="481" y="142" type="curve" smooth="yes"/>
      <point x="481" y="142"/>
      <point x="481" y="191"/>
      <point x="481" y="191" type="curve"/>
      <point x="481" y="200"/>
      <point x="478" y="203"/>
      <point x="470" y="203" type="curve" smooth="yes"/>
      <point x="442" y="203" type="line" smooth="yes"/>
      <point x="435" y="203"/>
      <point x="431" y="200"/>
      <point x="431" y="191" type="curve" smooth="yes"/>
      <point x="431" y="144" type="line"/>
      <point x="431" y="81"/>
      <point x="398" y="45"/>
      <point x="336" y="45" type="curve" smooth="yes"/>
      <point x="219" y="45" type="line" smooth="yes"/>
      <point x="158" y="45"/>
      <point x="125" y="81"/>
      <point x="125" y="144" type="curve" smooth="yes"/>
      <point x="125" y="499" type="line" smooth="yes"/>
      <point x="125" y="562"/>
      <point x="158" y="598"/>
      <point x="219" y="598" type="curve" smooth="yes"/>
      <point x="336" y="598" type="line" smooth="yes"/>
      <point x="398" y="598"/>
      <point x="431" y="562"/>
      <point x="431" y="499" type="curve" smooth="yes"/>
      <point x="431" y="452" type="line"/>
      <point x="431" y="443"/>
      <point x="435" y="440"/>
      <point x="442" y="440" type="curve" smooth="yes"/>
      <point x="470" y="440" type="line" smooth="yes"/>
      <point x="478" y="440"/>
      <point x="481" y="443"/>
      <point x="481" y="452" type="curve" smooth="yes"/>
      <point x="481" y="501" type="line"/>
      <point x="481" y="589"/>
      <point x="427" y="643"/>
      <point x="341" y="643" type="curve" smooth="yes"/>
      <point x="215" y="643" type="line" smooth="yes"/>
      <point x="129" y="643"/>
      <point x="75" y="589"/>
      <point x="75" y="501" type="curve" smooth="yes"/>
      <point x="75" y="142" type="line" smooth="yes"/>
      <point x="75" y="54"/>
      <point x="129" y="0"/>
      <point x="215" y="0" type="curve" smooth="yes"/>
    </contour>
  </outline>
</glyph>
<glyph name="D" format="1">
  <advance width="557"/>
  <unicode hex="0044"/>
  <outline>
    <contour>
      <point x="85" y="12" type="line"/>
      <point x="85" y="3"/>
      <point x="89" y="0"/>
      <point x="95" y="0" type="curve" smooth="yes"/>
      <point x="342" y="0" type="line" smooth="yes"/>
      <point x="428" y="0"/>
      <point x="482" y="54"/>
      <point x="482" y="142" type="curve" smooth="yes"/>
      <point x="482" y="501" type="line" smooth="yes"/>
      <point x="482" y="589"/>
      <point x="428" y="643"/>
      <point x="342" y="643" type="curve" smooth="yes"/>
      <point x="95" y="643" type="line" smooth="yes"/>
      <point x="89" y="643"/>
      <point x="85" y="640"/>
      <point x="85" y="631" type="curve" smooth="yes"/>
    </contour>
    <contour>
      <point x="145" y="45" type="line"/>
      <point x="138" y="45"/>
      <point x="135" y="48"/>
      <point x="135" y="54" type="curve" smooth="yes"/>
      <point x="135" y="589" type="line" smooth="yes"/>
      <point x="135" y="595"/>
      <point x="138" y="598"/>
      <point x="145" y="598" type="curve" smooth="yes"/>
      <point x="337" y="598" type="line" smooth="yes"/>
      <point x="399" y="598"/>
      <point x="432" y="562"/>
      <point x="432" y="499" type="curve" smooth="yes"/>
      <point x="432" y="144" type="line" smooth="yes"/>
      <point x="432" y="81"/>
      <point x="399" y="45"/>
      <point x="337" y="45" type="curve" smooth="yes"/>
    </contour>
  </outline>
</glyph>
<glyph name="F" format="1">
  <advance width="459"/>
  <unicode hex="0046"/>
  <outline>
    <contour>
      <point x="124" y="0" type="line"/>
      <point x="131" y="0"/>
      <point x="135" y="3"/>
      <point x="135" y="12" type="curve" smooth="yes"/>
      <point x="135" y="284" type="line" smooth="yes"/>
      <point x="135" y="289"/>
      <point x="138" y="292"/>
      <point x="145" y="292" type="curve" smooth="yes"/>
      <point x="376" y="292" type="line" smooth="yes"/>
      <point x="384" y="292"/>
      <point x="387" y="296"/>
      <point x="387" y="303" type="curve" smooth="yes"/>
      <point x="387" y="327" type="line" smooth="yes"/>
      <point x="387" y="334"/>
      <point x="384" y="338"/>
      <point x="376" y="338" type="curve" smooth="yes"/>
      <point x="145" y="338" type="line" smooth="yes"/>
      <point x="138" y="338"/>
      <point x="135" y="341"/>
      <point x="135" y="346" type="curve" smooth="yes"/>
      <point x="135" y="589" type="line" smooth="yes"/>
      <point x="135" y="595"/>
      <point x="138" y="598"/>
      <point x="145" y="598" type="curve" smooth="yes"/>
      <point x="403" y="598" type="line" smooth="yes"/>
      <point x="412" y="598"/>
      <point x="415" y="602"/>
      <point x="415" y="609" type="curve" smooth="yes"/>
      <point x="415" y="632" type="line" smooth="yes"/>
      <point x="415" y="639"/>
      <point x="412" y="643"/>
      <point x="403" y="643" type="curve" smooth="yes"/>
      <point x="95" y="643" type="line" smooth="yes"/>
      <point x="89" y="643"/>
      <point x="85" y="640"/>
      <point x="85" y="631" type="curve" smooth="yes"/>
      <point x="85" y="12" type="line" smooth="yes"/>
      <point x="85" y="3"/>
      <point x="89" y="0"/>
      <point x="95" y="0" type="curve" smooth="yes"/>
    </contour>
  </outline>
</glyph>
<glyph name="G" format="1">
  <advance width="539"/>
  <unicode hex="0047"/>
  <outline>
    <contour>
      <point x="324" y="0" type="line"/>
      <point x="410" y="0"/>
      <point x="465" y="54"/>
      <point x="465" y="142" type="curve" smooth="yes"/>
      <point x="465" y="310" type="line" smooth="yes"/>
      <point x="465" y="323"/>
      <point x="457" y="330"/>
      <point x="446" y="330" type="curve" smooth="yes"/>
      <point x="290" y="330" type="line" smooth="yes"/>
      <point x="282" y="330"/>
      <point x="279" y="326"/>
      <point x="279" y="319" type="curve" smooth="yes"/>
      <point x="279" y="296" type="line" smooth="yes"/>
      <point x="279" y="289"/>
      <point x="282" y="285"/>
      <point x="290" y="285" type="curve" smooth="yes"/>
      <point x="405" y="285" type="line" smooth="yes"/>
      <point x="412" y="285"/>
      <point x="414" y="282"/>
      <point x="414" y="276" type="curve" smooth="yes"/>
      <point x="414" y="144" type="line" smooth="yes"/>
      <point x="414" y="81"/>
      <point x="382" y="45"/>
      <point x="320" y="45" type="curve" smooth="yes"/>
      <point x="219" y="45" type="line" smooth="yes"/>
      <point x="158" y="45"/>
      <point x="125" y="81"/>
      <point x="125" y="144" type="curve" smooth="yes"/>
      <point x="125" y="499" type="line" smooth="yes"/>
      <point x="125" y="562"/>
      <point x="158" y="598"/>
      <point x="219" y="598" type="curve" smooth="yes"/>
      <point x="320" y="598" type="line" smooth="yes"/>
      <point x="382" y="598"/>
      <point x="414" y="562"/>
      <point x="414" y="499" type="curve" smooth="yes"/>
      <point x="414" y="456" type="line" smooth="yes"/>
      <point x="414" y="447"/>
      <point x="418" y="444"/>
      <point x="425" y="444" type="curve" smooth="yes"/>
      <point x="454" y="444" type="line" smooth="yes"/>
      <point x="461" y="444"/>
      <point x="465" y="447"/>
      <point x="465" y="456" type="curve" smooth="yes"/>
      <point x="465" y="501" type="line" smooth="yes"/>
      <point x="465" y="589"/>
      <point x="410" y="643"/>
      <point x="324" y="643" type="curve" smooth="yes"/>
      <point x="215" y="643" type="line" smooth="yes"/>
      <point x="129" y="643"/>
      <point x="75" y="589"/>
      <point x="75" y="501" type="curve" smooth="yes"/>
      <point x="75" y="142" type="line" smooth="yes"/>
      <point x="75" y="54"/>
      <point x="129" y="0"/>
      <point x="215" y="0" type="curve" smooth="yes"/>
    </contour>
  </outline>
</glyph>
<glyph name="H" format="1">
  <advance width="570"/>
  <unicode hex="0048"/>
  <outline>
    <contour>
      <point x="124" y="0" type="line"/>
      <point x="131" y="0"/>
      <point x="135" y="3"/>
      <point x="135" y="12" type="curve" smooth="yes"/>
      <point x="135" y="295" type="line" smooth="yes"/>
      <point x="135" y="301"/>
      <point x="138" y="304"/>
      <point x="145" y="304" type="curve" smooth="yes"/>
      <point x="425" y="304" type="line" smooth="yes"/>
      <point x="432" y="304"/>
      <point x="435" y="301"/>
      <point x="435" y="295" type="curve" smooth="yes"/>
      <point x="435" y="12" type="line" smooth="yes"/>
      <point x="435" y="3"/>
      <point x="438" y="0"/>
      <point x="445" y="0" type="curve" smooth="yes"/>
      <point x="474" y="0" type="line" smooth="yes"/>
      <point x="481" y="0"/>
      <point x="485" y="3"/>
      <point x="485" y="12" type="curve" smooth="yes"/>
      <point x="485" y="631" type="line" smooth="yes"/>
      <point x="485" y="640"/>
      <point x="481" y="643"/>
      <point x="474" y="643" type="curve" smooth="yes"/>
      <point x="445" y="643" type="line" smooth="yes"/>
      <point x="438" y="643"/>
      <point x="435" y="640"/>
      <point x="435" y="631" type="curve" smooth="yes"/>
      <point x="435" y="358" type="line" smooth="yes"/>
      <point x="435" y="352"/>
      <point x="432" y="349"/>
      <point x="425" y="349" type="curve" smooth="yes"/>
      <point x="145" y="349" type="line" smooth="yes"/>
      <point x="138" y="349"/>
      <point x="135" y="352"/>
      <point x="135" y="358" type="curve" smooth="yes"/>
      <point x="135" y="631" type="line" smooth="yes"/>
      <point x="135" y="640"/>
      <point x="131" y="643"/>
      <point x="124" y="643" type="curve" smooth="yes"/>
      <point x="95" y="643" type="line" smooth="yes"/>
      <point x="89" y="643"/>
      <point x="85" y="640"/>
      <point x="85" y="631" type="curve" smooth="yes"/>
      <point x="85" y="12" type="line" smooth="yes"/>
      <point x="85" y="3"/>
      <point x="89" y="0"/>
      <point x="95" y="0" type="curve" smooth="yes"/>
    </contour>
  </outline>
</glyph>
<glyph name="I" format="1">
  <advance width="230"/>
  <unicode hex="0049"/>
  <outline>
    <contour>
      <point x="140" y="631" type="line"/>
      <point x="140" y="640"/>
      <point x="136" y="643"/>
      <point x="129" y="643" type="curve" smooth="yes"/>
      <point x="100" y="643" type="line" smooth="yes"/>
      <point x="94" y="643"/>
      <point x="90" y="640"/>
      <point x="90" y="631" type="curve" smooth="yes"/>
      <point x="90" y="12" type="line" smooth="yes"/>
      <point x="90" y="3"/>
      <point x="94" y="0"/>
      <point x="100" y="0" type="curve" smooth="yes"/>
      <point x="129" y="0" type="line" smooth="yes"/>
      <point x="136" y="0"/>
      <point x="140" y="3"/>
      <point x="140" y="12" type="curve" smooth="yes"/>
    </contour>
  </outline>
</glyph>
<glyph name="J" format="1">
  <advance width="499"/>
  <unicode hex="004A"/>
  <outline>
    <contour>
      <point x="380" y="643" type="line"/>
      <point x="373" y="643"/>
      <point x="369" y="640"/>
      <point x="369" y="631" type="curve" smooth="yes"/>
      <point x="369" y="144" type="line" smooth="yes"/>
      <point x="369" y="81"/>
      <point x="336" y="45"/>
      <point x="274" y="45" type="curve" smooth="yes"/>
      <point x="183" y="45" type="line" smooth="yes"/>
      <point x="121" y="45"/>
      <point x="89" y="81"/>
      <point x="89" y="144" type="curve" smooth="yes"/>
      <point x="89" y="165"/>
      <point x="89" y="203"/>
      <point x="89" y="225" type="curve" smooth="yes"/>
      <point x="89" y="233"/>
      <point x="85" y="236"/>
      <point x="78" y="236" type="curve" smooth="yes"/>
      <point x="49" y="236" type="line" smooth="yes"/>
      <point x="42" y="236"/>
      <point x="38" y="233"/>
      <point x="38" y="225" type="curve" smooth="yes"/>
      <point x="38" y="202"/>
      <point x="38" y="164"/>
      <point x="38" y="142" type="curve" smooth="yes"/>
      <point x="38" y="54"/>
      <point x="93" y="0"/>
      <point x="179" y="0" type="curve" smooth="yes"/>
      <point x="279" y="0" type="line" smooth="yes"/>
      <point x="365" y="0"/>
      <point x="419" y="54"/>
      <point x="419" y="142" type="curve" smooth="yes"/>
      <point x="419" y="632" type="line" smooth="yes"/>
      <point x="419" y="640"/>
      <point x="415" y="643"/>
      <point x="408" y="643" type="curve" smooth="yes"/>
    </contour>
  </outline>
</glyph>
<glyph name="K" format="1">
  <advance width="530"/>
  <unicode hex="004B"/>
  <outline>
    <contour>
      <point x="124" y="0" type="line"/>
      <point x="131" y="0"/>
      <point x="135" y="3"/>
      <point x="135" y="12" type="curve" smooth="yes"/>
      <point x="135" y="200" type="line"/>
      <point x="238" y="324" type="line"/>
      <point x="446" y="12" type="line" smooth="yes"/>
      <point x="452" y="2"/>
      <point x="458" y="0"/>
      <point x="468" y="0" type="curve" smooth="yes"/>
      <point x="496" y="0" type="line" smooth="yes"/>
      <point x="503" y="0"/>
      <point x="507" y="4"/>
      <point x="502" y="12" type="curve" smooth="yes"/>
      <point x="270" y="362" type="line"/>
      <point x="471" y="631" type="line" smooth="yes"/>
      <point x="478" y="640"/>
      <point x="474" y="643"/>
      <point x="467" y="643" type="curve" smooth="yes"/>
      <point x="432" y="643" type="line" smooth="yes"/>
      <point x="423" y="643"/>
      <point x="419" y="642"/>
      <point x="411" y="631" type="curve" smooth="yes"/>
      <point x="157" y="295" type="line" smooth="yes"/>
      <point x="152" y="288"/>
      <point x="143" y="273"/>
      <point x="139" y="262" type="curve"/>
      <point x="135" y="262" type="line"/>
      <point x="135" y="631" type="line" smooth="yes"/>
      <point x="135" y="640"/>
      <point x="131" y="643"/>
      <point x="124" y="643" type="curve" smooth="yes"/>
      <point x="95" y="643" type="line" smooth="yes"/>
      <point x="89" y="643"/>
      <point x="85" y="640"/>
      <point x="85" y="631" type="curve" smooth="yes"/>
      <point x="85" y="12" type="line" smooth="yes"/>
      <point x="85" y="3"/>
      <point x="89" y="0"/>
      <point x="95" y="0" type="curve" smooth="yes"/>
    </contour>
  </outline>
</glyph>
<glyph name="L" format="1">
  <advance width="451"/>
  <unicode hex="004C"/>
  <outline>
    <contour>
      <point x="413" y="0" type="line"/>
      <point x="422" y="0"/>
      <point x="425" y="4"/>
      <point x="425" y="11" type="curve" smooth="yes"/>
      <point x="425" y="36" type="line" smooth="yes"/>
      <point x="425" y="43"/>
      <point x="422" y="47"/>
      <point x="413" y="47" type="curve" smooth="yes"/>
      <point x="145" y="47" type="line" smooth="yes"/>
      <point x="138" y="47"/>
      <point x="135" y="50"/>
      <point x="135" y="56" type="curve" smooth="yes"/>
      <point x="135" y="631" type="line" smooth="yes"/>
      <point x="135" y="640"/>
      <point x="131" y="643"/>
      <point x="124" y="643" type="curve" smooth="yes"/>
      <point x="95" y="643" type="line" smooth="yes"/>
      <point x="89" y="643"/>
      <point x="85" y="640"/>
      <point x="85" y="631" type="curve" smooth="yes"/>
      <point x="85" y="12" type="line" smooth="yes"/>
      <point x="85" y="3"/>
      <point x="89" y="0"/>
      <point x="95" y="0" type="curve" smooth="yes"/>
    </contour>
  </outline>
</glyph>
<glyph name="M" format="1">
  <advance width="696"/>
  <unicode hex="004D"/>
  <outline>
    <contour>
      <point x="350" y="198" type="line"/>
      <point x="346" y="198" type="line"/>
      <point x="158" y="637" type="line" smooth="yes"/>
      <point x="157" y="640"/>
      <point x="154" y="643"/>
      <point x="149" y="643" type="curve" smooth="yes"/>
      <point x="95" y="643" type="line" smooth="yes"/>
      <point x="89" y="643"/>
      <point x="85" y="640"/>
      <point x="85" y="631" type="curve" smooth="yes"/>
      <point x="85" y="12" type="line" smooth="yes"/>
      <point x="85" y="2"/>
      <point x="89" y="0"/>
      <point x="95" y="0" type="curve" smooth="yes"/>
      <point x="124" y="0" type="line" smooth="yes"/>
      <point x="131" y="0"/>
      <point x="134" y="3"/>
      <point x="134" y="12" type="curve" smooth="yes"/>
      <point x="134" y="567" type="line"/>
      <point x="138" y="567" type="line"/>
      <point x="318" y="151" type="line" smooth="yes"/>
      <point x="321" y="143"/>
      <point x="324" y="140"/>
      <point x="332" y="140" type="curve" smooth="yes"/>
      <point x="365" y="140" type="line" smooth="yes"/>
      <point x="373" y="140"/>
      <point x="376" y="143"/>
      <point x="380" y="151" type="curve" smooth="yes"/>
      <point x="557" y="566" type="line"/>
      <point x="561" y="566" type="line"/>
      <point x="561" y="12" type="line" smooth="yes"/>
      <point x="561" y="3"/>
      <point x="565" y="0"/>
      <point x="572" y="0" type="curve" smooth="yes"/>
      <point x="601" y="0" type="line" smooth="yes"/>
      <point x="607" y="0"/>
      <point x="611" y="3"/>
      <point x="611" y="12" type="curve" smooth="yes"/>
      <point x="611" y="631" type="line" smooth="yes"/>
      <point x="611" y="640"/>
      <point x="607" y="643"/>
      <point x="601" y="643" type="curve" smooth="yes"/>
      <point x="547" y="643" type="line" smooth="yes"/>
      <point x="542" y="643"/>
      <point x="539" y="640"/>
      <point x="538" y="637" type="curve" smooth="yes"/>
    </contour>
  </outline>
</glyph>
<glyph name="N" format="1">
  <advance width="579"/>
  <unicode hex="004E"/>
  <outline>
    <contour>
      <point x="124" y="0" type="line"/>
      <point x="131" y="0"/>
      <point x="135" y="3"/>
      <point x="135" y="12" type="curve" smooth="yes"/>
      <point x="135" y="535" type="line"/>
      <point x="139" y="535" type="line"/>
      <point x="445" y="11" type="line" smooth="yes"/>
      <point x="448" y="6"/>
      <point x="451" y="0"/>
      <point x="461" y="0" type="curve" smooth="yes"/>
      <point x="484" y="0" type="line" smooth="yes"/>
      <point x="491" y="0"/>
      <point x="495" y="3"/>
      <point x="495" y="12" type="curve" smooth="yes"/>
      <point x="495" y="631" type="line" smooth="yes"/>
      <point x="495" y="640"/>
      <point x="491" y="643"/>
      <point x="484" y="643" type="curve" smooth="yes"/>
      <point x="456" y="643" type="line" smooth="yes"/>
      <point x="449" y="643"/>
      <point x="445" y="640"/>
      <point x="445" y="631" type="curve" smooth="yes"/>
      <point x="445" y="109" type="line"/>
      <point x="441" y="109" type="line"/>
      <point x="134" y="637" type="line" smooth="yes"/>
      <point x="133" y="639"/>
      <point x="130" y="643"/>
      <point x="122" y="643" type="curve" smooth="yes"/>
      <point x="95" y="643" type="line" smooth="yes"/>
      <point x="89" y="643"/>
      <point x="85" y="640"/>
      <point x="85" y="631" type="curve" smooth="yes"/>
      <point x="85" y="12" type="line" smooth="yes"/>
      <point x="85" y="3"/>
      <point x="89" y="0"/>
      <point x="95" y="0" type="curve" smooth="yes"/>
    </contour>
  </outline>
</glyph>
<glyph name="O" format="1">
  <advance width="553"/>
  <unicode hex="004F"/>
  <outline>
    <contour>
      <point x="338" y="0" type="line"/>
      <point x="424" y="0"/>
      <point x="478" y="54"/>
      <point x="478" y="142" type="curve" smooth="yes"/>
      <point x="478" y="501" type="line" smooth="yes"/>
      <point x="478" y="589"/>
      <point x="424" y="643"/>
      <point x="338" y="643" type="curve" smooth="yes"/>
      <point x="215" y="643" type="line" smooth="yes"/>
      <point x="129" y="643"/>
      <point x="75" y="589"/>
      <point x="75" y="501" type="curve" smooth="yes"/>
      <point x="75" y="142" type="line" smooth="yes"/>
      <point x="75" y="54"/>
      <point x="129" y="0"/>
      <point x="215" y="0" type="curve" smooth="yes"/>
    </contour>
    <contour>
      <point x="219" y="45" type="line"/>
      <point x="158" y="45"/>
      <point x="125" y="81"/>
      <point x="125" y="144" type="curve" smooth="yes"/>
      <point x="125" y="499" type="line" smooth="yes"/>
      <point x="125" y="562"/>
      <point x="158" y="598"/>
      <point x="219" y="598" type="curve" smooth="yes"/>
      <point x="333" y="598" type="line" smooth="yes"/>
      <point x="395" y="598"/>
      <point x="428" y="562"/>
      <point x="428" y="499" type="curve" smooth="yes"/>
      <point x="428" y="144" type="line" smooth="yes"/>
      <point x="428" y="81"/>
      <point x="395" y="45"/>
      <point x="333" y="45" type="curve" smooth="yes"/>
    </contour>
  </outline>
</glyph>
<glyph name="P" format="1">
  <advance width="524"/>
  <unicode hex="0050"/>
  <outline>
    <contour>
      <point x="145" y="288" type="line"/>
      <point x="138" y="288"/>
      <point x="135" y="291"/>
      <point x="135" y="296" type="curve" smooth="yes"/>
      <point x="135" y="589" type="line" smooth="yes"/>
      <point x="135" y="595"/>
      <point x="138" y="598"/>
      <point x="145" y="598" type="curve" smooth="yes"/>
      <point x="321" y="598" type="line" smooth="yes"/>
      <point x="383" y="598"/>
      <point x="415" y="562"/>
      <point x="415" y="499" type="curve" smooth="yes"/>
      <point x="415" y="386" type="line" smooth="yes"/>
      <point x="415" y="324"/>
      <point x="383" y="288"/>
      <point x="321" y="288" type="curve" smooth="yes"/>
    </contour>
    <contour>
      <point x="124" y="0" type="line"/>
      <point x="131" y="0"/>
      <point x="135" y="3"/>
      <point x="135" y="12" type="curve" smooth="yes"/>
      <point x="135" y="234" type="line" smooth="yes"/>
      <point x="135" y="239"/>
      <point x="138" y="242"/>
      <point x="145" y="242" type="curve" smooth="yes"/>
      <point x="325" y="242" type="line" smooth="yes"/>
      <point x="411" y="242"/>
      <point x="466" y="296"/>
      <point x="466" y="384" type="curve" smooth="yes"/>
      <point x="466" y="501" type="line" smooth="yes"/>
      <point x="466" y="589"/>
      <point x="411" y="643"/>
      <point x="325" y="643" type="curve" smooth="yes"/>
      <point x="95" y="643" type="line" smooth="yes"/>
      <point x="89" y="643"/>
      <point x="85" y="640"/>
      <point x="85" y="631" type="curve" smooth="yes"/>
      <point x="85" y="12" type="line" smooth="yes"/>
      <point x="85" y="3"/>
      <point x="89" y="0"/>
      <point x="95" y="0" type="curve" smooth="yes"/>
    </contour>
  </outline>
</glyph>
<glyph name="Q" format="1">
  <advance width="556"/>
  <unicode hex="0051"/>
  <outline>
    <contour>
      <point x="416" y="-133" type="line"/>
      <point x="423" y="-133"/>
      <point x="428" y="-129"/>
      <point x="423" y="-120" type="curve" smooth="yes"/>
      <point x="348" y="1" type="line"/>
      <point x="429" y="4"/>
      <point x="480" y="57"/>
      <point x="480" y="142" type="curve" smooth="yes"/>
      <point x="480" y="501" type="line" smooth="yes"/>
      <point x="480" y="589"/>
      <point x="425" y="643"/>
      <point x="339" y="643" type="curve" smooth="yes"/>
      <point x="217" y="643" type="line" smooth="yes"/>
      <point x="131" y="643"/>
      <point x="76" y="589"/>
      <point x="76" y="501" type="curve" smooth="yes"/>
      <point x="76" y="142" type="line" smooth="yes"/>
      <point x="76" y="54"/>
      <point x="131" y="0"/>
      <point x="217" y="0" type="curve" smooth="yes"/>
      <point x="294" y="0" type="line"/>
      <point x="368" y="-121" type="line" smooth="yes"/>
      <point x="374" y="-131"/>
      <point x="379" y="-133"/>
      <point x="388" y="-133" type="curve" smooth="yes"/>
    </contour>
    <contour>
      <point x="221" y="45" type="line"/>
      <point x="159" y="45"/>
      <point x="127" y="81"/>
      <point x="127" y="144" type="curve" smooth="yes"/>
      <point x="127" y="499" type="line" smooth="yes"/>
      <point x="127" y="562"/>
      <point x="159" y="598"/>
      <point x="221" y="598" type="curve" smooth="yes"/>
      <point x="335" y="598" type="line" smooth="yes"/>
      <point x="397" y="598"/>
      <point x="430" y="562"/>
      <point x="430" y="499" type="curve" smooth="yes"/>
      <point x="430" y="144" type="line" smooth="yes"/>
      <point x="430" y="81"/>
      <point x="397" y="45"/>
      <point x="335" y="45" type="curve" smooth="yes"/>
    </contour>
  </outline>
</glyph>
<glyph name="R" format="1">
  <advance width="534"/>
  <unicode hex="0052"/>
  <outline>
    <contour>
      <point x="145" y="307" type="line"/>
      <point x="138" y="307"/>
      <point x="135" y="310"/>
      <point x="135" y="316" type="curve" smooth="yes"/>
      <point x="135" y="589" type="line" smooth="yes"/>
      <point x="135" y="595"/>
      <point x="138" y="598"/>
      <point x="145" y="598" type="curve" smooth="yes"/>
      <point x="318" y="598" type="line" smooth="yes"/>
      <point x="380" y="598"/>
      <point x="414" y="562"/>
      <point x="414" y="499" type="curve" smooth="yes"/>
      <point x="414" y="405" type="line" smooth="yes"/>
      <point x="414" y="343"/>
      <point x="380" y="307"/>
      <point x="318" y="307" type="curve" smooth="yes"/>
    </contour>
    <contour>
      <point x="124" y="0" type="line"/>
      <point x="131" y="0"/>
      <point x="135" y="3"/>
      <point x="135" y="12" type="curve" smooth="yes"/>
      <point x="135" y="255" type="line" smooth="yes"/>
      <point x="135" y="261"/>
      <point x="138" y="264"/>
      <point x="145" y="264" type="curve" smooth="yes"/>
      <point x="303" y="264" type="line"/>
      <point x="421" y="12" type="line" smooth="yes"/>
      <point x="425" y="2"/>
      <point x="430" y="0"/>
      <point x="439" y="0" type="curve" smooth="yes"/>
      <point x="470" y="0" type="line" smooth="yes"/>
      <point x="477" y="0"/>
      <point x="481" y="4"/>
      <point x="477" y="12" type="curve" smooth="yes"/>
      <point x="358" y="264" type="line"/>
      <point x="358" y="268" type="line"/>
      <point x="423" y="281"/>
      <point x="464" y="331"/>
      <point x="464" y="406" type="curve" smooth="yes"/>
      <point x="464" y="501" type="line" smooth="yes"/>
      <point x="464" y="589"/>
      <point x="409" y="643"/>
      <point x="323" y="643" type="curve" smooth="yes"/>
      <point x="95" y="643" type="line" smooth="yes"/>
      <point x="89" y="643"/>
      <point x="85" y="640"/>
      <point x="85" y="631" type="curve" smooth="yes"/>
      <point x="85" y="12" type="line" smooth="yes"/>
      <point x="85" y="3"/>
      <point x="89" y="0"/>
      <point x="95" y="0" type="curve" smooth="yes"/>
    </contour>
  </outline>
</glyph>
<glyph name="V" format="1">
  <advance width="500"/>
  <unicode hex="0056"/>
  <outline>
    <contour>
      <point x="273" y="0" type="line"/>
      <point x="280" y="0"/>
      <point x="284" y="3"/>
      <point x="286" y="12" type="curve" smooth="yes"/>
      <point x="472" y="631" type="line" smooth="yes"/>
      <point x="474" y="640"/>
      <point x="470" y="643"/>
      <point x="463" y="643" type="curve" smooth="yes"/>
      <point x="432" y="643" type="line" smooth="yes"/>
      <point x="424" y="643"/>
      <point x="421" y="640"/>
      <point x="419" y="631" type="curve" smooth="yes"/>
      <point x="252" y="62" type="line"/>
      <point x="251" y="62"/>
      <point x="249" y="62"/>
      <point x="248" y="62" type="curve"/>
      <point x="81" y="631" type="line" smooth="yes"/>
      <point x="79" y="640"/>
      <point x="75" y="643"/>
      <point x="68" y="643" type="curve" smooth="yes"/>
      <point x="37" y="643" type="line" smooth="yes"/>
      <point x="29" y="643"/>
      <point x="25" y="640"/>
      <point x="28" y="631" type="curve" smooth="yes"/>
      <point x="214" y="12" type="line" smooth="yes"/>
      <point x="216" y="3"/>
      <point x="220" y="0"/>
      <point x="227" y="0" type="curve" smooth="yes"/>
    </contour>
  </outline>
</glyph>
<glyph name="W" format="1">
  <advance width="794"/>
  <unicode hex="0057"/>
  <outline>
    <contour>
      <point x="233" y="0" type="line"/>
      <point x="240" y="0"/>
      <point x="244" y="4"/>
      <point x="246" y="12" type="curve" smooth="yes"/>
      <point x="395" y="576" type="line"/>
      <point x="399" y="576" type="line"/>
      <point x="547" y="12" type="line" smooth="yes"/>
      <point x="549" y="4"/>
      <point x="554" y="0"/>
      <point x="561" y="0" type="curve" smooth="yes"/>
      <point x="612" y="0" type="line" smooth="yes"/>
      <point x="619" y="0"/>
      <point x="623" y="2"/>
      <point x="625" y="12" type="curve" smooth="yes"/>
      <point x="762" y="631" type="line" smooth="yes"/>
      <point x="764" y="640"/>
      <point x="760" y="643"/>
      <point x="753" y="643" type="curve" smooth="yes"/>
      <point x="719" y="643" type="line" smooth="yes"/>
      <point x="712" y="643"/>
      <point x="707" y="641"/>
      <point x="705" y="631" type="curve" smooth="yes"/>
      <point x="587" y="57" type="line"/>
      <point x="582" y="57" type="line"/>
      <point x="429" y="632" type="line" smooth="yes"/>
      <point x="427" y="641"/>
      <point x="422" y="643"/>
      <point x="415" y="643" type="curve" smooth="yes"/>
      <point x="377" y="643" type="line" smooth="yes"/>
      <point x="370" y="643"/>
      <point x="366" y="641"/>
      <point x="364" y="632" type="curve" smooth="yes"/>
      <point x="212" y="57" type="line"/>
      <point x="207" y="57" type="line"/>
      <point x="88" y="631" type="line" smooth="yes"/>
      <point x="86" y="641"/>
      <point x="82" y="643"/>
      <point x="75" y="643" type="curve" smooth="yes"/>
      <point x="42" y="643" type="line" smooth="yes"/>
      <point x="34" y="643"/>
      <point x="30" y="639"/>
      <point x="32" y="631" type="curve" smooth="yes"/>
      <point x="169" y="12" type="line" smooth="yes"/>
      <point x="171" y="3"/>
      <point x="176" y="0"/>
      <point x="183" y="0" type="curve" smooth="yes"/>
    </contour>
  </outline>
</glyph>
<glyph name="X" format="1">
  <advance width="504"/>
  <unicode hex="0058"/>
  <outline>
    <contour>
      <point x="414" y="10" type="line"/>
      <point x="418" y="3"/>
      <point x="423" y="0"/>
      <point x="429" y="0" type="curve" smooth="yes"/>
      <point x="463" y="0" type="line" smooth="yes"/>
      <point x="471" y="0"/>
      <point x="473" y="5"/>
      <point x="469" y="12" type="curve" smooth="yes"/>
      <point x="287" y="340" type="line"/>
      <point x="460" y="631" type="line" smooth="yes"/>
      <point x="464" y="639"/>
      <point x="460" y="643"/>
      <point x="453" y="643" type="curve" smooth="yes"/>
      <point x="420" y="643" type="line" smooth="yes"/>
      <point x="412" y="643"/>
      <point x="408" y="640"/>
      <point x="403" y="631" type="curve" smooth="yes"/>
      <point x="255" y="374" type="line"/>
      <point x="251" y="374" type="line"/>
      <point x="101" y="631" type="line" smooth="yes"/>
      <point x="97" y="640"/>
      <point x="91" y="643"/>
      <point x="83" y="643" type="curve" smooth="yes"/>
      <point x="52" y="643" type="line" smooth="yes"/>
      <point x="45" y="643"/>
      <point x="41" y="638"/>
      <point x="45" y="631" type="curve" smooth="yes"/>
      <point x="218" y="339" type="line"/>
      <point x="35" y="12" type="line" smooth="yes"/>
      <point x="32" y="5"/>
      <point x="34" y="0"/>
      <point x="41" y="0" type="curve" smooth="yes"/>
      <point x="75" y="0" type="line" smooth="yes"/>
      <point x="82" y="0"/>
      <point x="86" y="3"/>
      <point x="90" y="10" type="curve" smooth="yes"/>
      <point x="250" y="300" type="line"/>
      <point x="254" y="300" type="line"/>
    </contour>
  </outline>
</glyph>
<glyph name="Y" format="1">
  <advance width="493"/>
  <unicode hex="0059"/>
  <outline>
    <contour>
      <point x="261" y="0" type="line"/>
      <point x="268" y="0"/>
      <point x="271" y="3"/>
      <point x="271" y="12" type="curve" smooth="yes"/>
      <point x="271" y="243" type="line"/>
      <point x="466" y="631" type="line" smooth="yes"/>
      <point x="469" y="639"/>
      <point x="465" y="643"/>
      <point x="459" y="643" type="curve" smooth="yes"/>
      <point x="422" y="643" type="line" smooth="yes"/>
      <point x="415" y="643"/>
      <point x="412" y="640"/>
      <point x="408" y="631" type="curve" smooth="yes"/>
      <point x="249" y="304" type="line"/>
      <point x="244" y="304" type="line"/>
      <point x="84" y="631" type="line" smooth="yes"/>
      <point x="80" y="640"/>
      <point x="77" y="643"/>
      <point x="70" y="643" type="curve" smooth="yes"/>
      <point x="34" y="643" type="line" smooth="yes"/>
      <point x="28" y="643"/>
      <point x="23" y="639"/>
      <point x="27" y="631" type="curve" smooth="yes"/>
      <point x="221" y="243" type="line"/>
      <point x="221" y="12" type="line" smooth="yes"/>
      <point x="221" y="3"/>
      <point x="225" y="0"/>
      <point x="232" y="0" type="curve" smooth="yes"/>
    </contour>
  </outline>
</glyph>
<glyph name="bracketleft" format="1">
  <advance width="287"/>
  <unicode hex="005B"/>
  <outline>
    <contour>
      <point x="207" y="-101" type="line"/>
      <point x="216" y="-101"/>
      <point x="218" y="-97"/>
      <point x="218" y="-90" type="curve" smooth="yes"/>
      <point x="218" y="-72" type="line" smooth="yes"/>
      <point x="218" y="-65"/>
      <point x="216" y="-61"/>
      <point x="207" y="-61" type="curve" smooth="yes"/>
      <point x="118" y="-61" type="line" smooth="yes"/>
      <point x="111" y="-61"/>
      <point x="109" y="-58"/>
      <point x="109" y="-52" type="curve" smooth="yes"/>
      <point x="109" y="594" type="line" smooth="yes"/>
      <point x="109" y="600"/>
      <point x="111" y="603"/>
      <point x="118" y="603" type="curve" smooth="yes"/>
      <point x="207" y="603" type="line" smooth="yes"/>
      <point x="216" y="603"/>
      <point x="218" y="607"/>
      <point x="218" y="614" type="curve" smooth="yes"/>
      <point x="218" y="632" type="line" smooth="yes"/>
      <point x="218" y="639"/>
      <point x="216" y="643"/>
      <point x="207" y="643" type="curve" smooth="yes"/>
      <point x="74" y="643" type="line" smooth="yes"/>
      <point x="67" y="643"/>
      <point x="64" y="640"/>
      <point x="64" y="631" type="curve" smooth="yes"/>
      <point x="64" y="-89" type="line" smooth="yes"/>
      <point x="64" y="-98"/>
      <point x="67" y="-101"/>
      <point x="74" y="-101" type="curve" smooth="yes"/>
    </contour>
  </outline>
</glyph>
<glyph name="backslash" format="1">
  <advance width="396"/>
  <unicode hex="005C"/>
  <outline>
    <contour>
      <point x="282" y="13" type="line"/>
      <point x="286" y="3"/>
      <point x="290" y="0"/>
      <point x="298" y="0" type="curve" smooth="yes"/>
      <point x="324" y="0" type="line" smooth="yes"/>
      <point x="332" y="0"/>
      <point x="338" y="4"/>
      <point x="334" y="14" type="curve"/>
      <point x="321" y="49"/>
      <point x="127" y="595"/>
      <point x="114" y="630" type="curve"/>
      <point x="110" y="639"/>
      <point x="107" y="643"/>
      <point x="98" y="643" type="curve" smooth="yes"/>
      <point x="70" y="643" type="line" smooth="yes"/>
      <point x="62" y="643"/>
      <point x="59" y="637"/>
      <point x="63" y="628" type="curve" smooth="yes"/>
    </contour>
  </outline>
</glyph>
<glyph name="bracketright" format="1">
  <advance width="287"/>
  <unicode hex="005D"/>
  <outline>
    <contour>
      <point x="60" y="-90" type="line"/>
      <point x="60" y="-97"/>
      <point x="63" y="-101"/>
      <point x="72" y="-101" type="curve" smooth="yes"/>
      <point x="204" y="-101" type="line" smooth="yes"/>
      <point x="211" y="-101"/>
      <point x="215" y="-98"/>
      <point x="215" y="-89" type="curve" smooth="yes"/>
      <point x="215" y="631" type="line" smooth="yes"/>
      <point x="215" y="640"/>
      <point x="211" y="643"/>
      <point x="204" y="643" type="curve" smooth="yes"/>
      <point x="72" y="643" type="line" smooth="yes"/>
      <point x="63" y="643"/>
      <point x="60" y="639"/>
      <point x="60" y="632" type="curve" smooth="yes"/>
      <point x="60" y="614" type="line" smooth="yes"/>
      <point x="60" y="607"/>
      <point x="63" y="603"/>
      <point x="72" y="603" type="curve" smooth="yes"/>
      <point x="160" y="603" type="line" smooth="yes"/>
      <point x="167" y="603"/>
      <point x="170" y="600"/>
      <point x="170" y="594" type="curve" smooth="yes"/>
      <point x="170" y="-52" type="line" smooth="yes"/>
      <point x="170" y="-58"/>
      <point x="167" y="-61"/>
      <point x="160" y="-61" type="curve" smooth="yes"/>
      <point x="72" y="-61" type="line" smooth="yes"/>
      <point x="63" y="-61"/>
      <point x="60" y="-65"/>
      <point x="60" y="-72" type="curve" smooth="yes"/>
    </contour>
  </outline>
</glyph>
<glyph name="asciicircum" format="1">
  <advance width="465"/>
  <unicode hex="005E"/>
  <outline>
    <contour>
      <point x="357" y="376" type="line"/>
      <point x="361" y="368"/>
      <point x="365" y="364"/>
      <point x="374" y="364" type="curve" smooth="yes"/>
      <point x="398" y="364" type="line" smooth="yes"/>
      <point x="407" y="364"/>
      <point x="411" y="370"/>
      <point x="406" y="378" type="curve" smooth="yes"/>
      <point x="275" y="628" type="line" smooth="yes"/>
      <point x="270" y="638"/>
      <point x="264" y="643"/>
      <point x="251" y="643" type="curve" smooth="yes"/>
      <point x="214" y="643" type="line" smooth="yes"/>
      <point x="201" y="643"/>
      <point x="195" y="638"/>
      <point x="190" y="628" type="curve" smooth="yes"/>
      <point x="59" y="378" type="line" smooth="yes"/>
      <point x="54" y="370"/>
      <point x="58" y="364"/>
      <point x="67" y="364" type="curve" smooth="yes"/>
      <point x="91" y="364" type="line" smooth="yes"/>
      <point x="100" y="364"/>
      <point x="103" y="368"/>
      <point x="108" y="376" type="curve"/>
      <point x="232" y="612" type="line"/>
    </contour>
  </outline>
</glyph>
<glyph name="underscore" format="1">
  <advance width="372"/>
  <unicode hex="005F"/>
  <outline>
    <contour>
      <point x="360" y="-99" type="line"/>
      <point x="369" y="-99"/>
      <point x="372" y="-96"/>
      <point x="372" y="-88" type="curve" smooth="yes"/>
      <point x="372" y="-73" type="line" smooth="yes"/>
      <point x="372" y="-67"/>
      <point x="369" y="-63"/>
      <point x="360" y="-63" type="curve" smooth="yes"/>
      <point x="12" y="-63" type="line" smooth="yes"/>
      <point x="3" y="-63"/>
      <point x="0" y="-67"/>
      <point x="0" y="-73" type="curve" smooth="yes"/>
      <point x="0" y="-88" type="line" smooth="yes"/>
      <point x="0" y="-96"/>
      <point x="3" y="-99"/>
      <point x="12" y="-99" type="curve" smooth="yes"/>
    </contour>
  </outline>
</glyph>
<glyph name="grave" format="1">
  <advance width="269"/>
  <unicode hex="0060"/>
  <outline>
    <contour>
      <point x="137" y="692" type="line"/>
      <point x="133" y="700"/>
      <point x="127" y="703"/>
      <point x="119" y="703" type="curve" smooth="yes"/>
      <point x="74" y="703" type="line" smooth="yes"/>
      <point x="67" y="703"/>
      <point x="64" y="698"/>
      <point x="69" y="692" type="curve" smooth="yes"/>
      <point x="159" y="583" type="line" smooth="yes"/>
      <point x="163" y="577"/>
      <point x="169" y="574"/>
      <point x="175" y="574" type="curve" smooth="yes"/>
      <point x="195" y="574" type="line" smooth="yes"/>
      <point x="202" y="574"/>
      <point x="204" y="578"/>
      <point x="200" y="586" type="curve" smooth="yes"/>
    </contour>
  </outline>
</glyph>
<glyph name="b" format="1">
  <advance width="504"/>
  <unicode hex="0062"/>
  <outline>
    <contour>
      <point x="75" y="12" type="line"/>
      <point x="75" y="3"/>
      <point x="79" y="0"/>
      <point x="85" y="0" type="curve" smooth="yes"/>
      <point x="299" y="0" type="line" smooth="yes"/>
      <point x="385" y="0"/>
      <point x="439" y="54"/>
      <point x="439" y="142" type="curve" smooth="yes"/>
      <point x="439" y="377" type="line" smooth="yes"/>
      <point x="439" y="464"/>
      <point x="385" y="518"/>
      <point x="299" y="518" type="curve" smooth="yes"/>
      <point x="233" y="518" type="line" smooth="yes"/>
      <point x="176" y="518"/>
      <point x="144" y="494"/>
      <point x="129" y="466" type="curve"/>
      <point x="125" y="466" type="line"/>
      <point x="125" y="691" type="line" smooth="yes"/>
      <point x="125" y="700"/>
      <point x="121" y="703"/>
      <point x="114" y="703" type="curve" smooth="yes"/>
      <point x="85" y="703" type="line" smooth="yes"/>
      <point x="79" y="703"/>
      <point x="75" y="700"/>
      <point x="75" y="691" type="curve" smooth="yes"/>
    </contour>
    <contour>
      <point x="135" y="45" type="line"/>
      <point x="128" y="45"/>
      <point x="125" y="48"/>
      <point x="125" y="54" type="curve" smooth="yes"/>
      <point x="125" y="375" type="line" smooth="yes"/>
      <point x="125" y="439"/>
      <point x="165" y="473"/>
      <point x="228" y="473" type="curve" smooth="yes"/>
      <point x="294" y="473" type="line" smooth="yes"/>
      <point x="356" y="473"/>
      <point x="389" y="437"/>
      <point x="389" y="375" type="curve" smooth="yes"/>
      <point x="389" y="144" type="line" smooth="yes"/>
      <point x="389" y="81"/>
      <point x="356" y="45"/>
      <point x="294" y="45" type="curve" smooth="yes"/>
    </contour>
  </outline>
</glyph>
<glyph name="c" format="1">
  <advance width="394"/>
  <unicode hex="0063"/>
  <outline>
    <contour>
      <point x="360" y="34" type="line"/>
      <point x="360" y="41"/>
      <point x="357" y="45"/>
      <point x="349" y="45" type="curve" smooth="yes"/>
      <point x="209" y="45" type="line" smooth="yes"/>
      <point x="148" y="45"/>
      <point x="115" y="81"/>
      <point x="115" y="144" type="curve" smooth="yes"/>
      <point x="115" y="366" type="line" smooth="yes"/>
      <point x="115" y="429"/>
      <point x="148" y="465"/>
      <point x="209" y="465" type="curve" smooth="yes"/>
      <point x="349" y="465" type="line" smooth="yes"/>
      <point x="358" y="465"/>
      <point x="360" y="468"/>
      <point x="360" y="475" type="curve" smooth="yes"/>
      <point x="360" y="499" type="line" smooth="yes"/>
      <point x="360" y="506"/>
      <point x="357" y="510"/>
      <point x="349" y="510" type="curve" smooth="yes"/>
      <point x="205" y="510" type="line" smooth="yes"/>
      <point x="119" y="510"/>
      <point x="65" y="456"/>
      <point x="65" y="368" type="curve" smooth="yes"/>
      <point x="65" y="142" type="line" smooth="yes"/>
      <point x="65" y="54"/>
      <point x="119" y="0"/>
      <point x="205" y="0" type="curve" smooth="yes"/>
      <point x="349" y="0" type="line" smooth="yes"/>
      <point x="358" y="0"/>
      <point x="360" y="3"/>
      <point x="360" y="11" type="curve" smooth="yes"/>
    </contour>
  </outline>
</glyph>
<glyph name="d" format="1">
  <advance width="504"/>
  <unicode hex="0064"/>
  <outline>
    <contour>
      <point x="379" y="143" type="line"/>
      <point x="379" y="80"/>
      <point x="339" y="45"/>
      <point x="276" y="45" type="curve" smooth="yes"/>
      <point x="209" y="45" type="line" smooth="yes"/>
      <point x="148" y="45"/>
      <point x="115" y="81"/>
      <point x="115" y="144" type="curve" smooth="yes"/>
      <point x="115" y="366" type="line" smooth="yes"/>
      <point x="115" y="429"/>
      <point x="148" y="465"/>
      <point x="209" y="465" type="curve" smooth="yes"/>
      <point x="276" y="465" type="line" smooth="yes"/>
      <point x="339" y="465"/>
      <point x="379" y="430"/>
      <point x="379" y="367" type="curve" smooth="yes"/>
    </contour>
    <contour>
      <point x="270" y="0" type="line"/>
      <point x="328" y="0"/>
      <point x="360" y="24"/>
      <point x="375" y="52" type="curve"/>
      <point x="379" y="52" type="line"/>
      <point x="379" y="12" type="line" smooth="yes"/>
      <point x="379" y="3"/>
      <point x="383" y="0"/>
      <point x="389" y="0" type="curve" smooth="yes"/>
      <point x="418" y="0" type="line" smooth="yes"/>
      <point x="425" y="0"/>
      <point x="429" y="3"/>
      <point x="429" y="12" type="curve" smooth="yes"/>
      <point x="429" y="691" type="line" smooth="yes"/>
      <point x="429" y="700"/>
      <point x="425" y="703"/>
      <point x="418" y="703" type="curve" smooth="yes"/>
      <point x="389" y="703" type="line" smooth="yes"/>
      <point x="383" y="703"/>
      <point x="379" y="700"/>
      <point x="379" y="691" type="curve" smooth="yes"/>
      <point x="379" y="458" type="line"/>
      <point x="375" y="458" type="line"/>
      <point x="360" y="486"/>
      <point x="328" y="510"/>
      <point x="270" y="510" type="curve" smooth="yes"/>
      <point x="203" y="510" type="line" smooth="yes"/>
      <point x="118" y="510"/>
      <point x="65" y="456"/>
      <point x="65" y="368" type="curve" smooth="yes"/>
      <point x="65" y="142" type="line" smooth="yes"/>
      <point x="65" y="54"/>
      <point x="118" y="0"/>
      <point x="203" y="0" type="curve" smooth="yes"/>
    </contour>
  </outline>
</glyph>
<glyph name="f" format="1">
  <advance width="303"/>
  <unicode hex="0066"/>
  <outline>
    <contour>
      <point x="180" y="510" type="line"/>
      <point x="173" y="510"/>
      <point x="171" y="513"/>
      <point x="171" y="519" type="curve" smooth="yes"/>
      <point x="171" y="561" type="line" smooth="yes"/>
      <point x="171" y="623"/>
      <point x="190" y="658"/>
      <point x="252" y="658" type="curve" smooth="yes"/>
      <point x="271" y="658" type="line" smooth="yes"/>
      <point x="280" y="658"/>
      <point x="283" y="662"/>
      <point x="283" y="669" type="curve" smooth="yes"/>
      <point x="283" y="692" type="line" smooth="yes"/>
      <point x="283" y="700"/>
      <point x="280" y="703"/>
      <point x="271" y="703" type="curve" smooth="yes"/>
      <point x="247" y="703" type="line" smooth="yes"/>
      <point x="161" y="703"/>
      <point x="120" y="651"/>
      <point x="120" y="563" type="curve" smooth="yes"/>
      <point x="120" y="519" type="line" smooth="yes"/>
      <point x="120" y="513"/>
      <point x="118" y="510"/>
      <point x="111" y="510" type="curve" smooth="yes"/>
      <point x="47" y="510" type="line" smooth="yes"/>
      <point x="38" y="510"/>
      <point x="36" y="507"/>
      <point x="36" y="499" type="curve" smooth="yes"/>
      <point x="36" y="476" type="line" smooth="yes"/>
      <point x="36" y="469"/>
      <point x="38" y="465"/>
      <point x="47" y="465" type="curve" smooth="yes"/>
      <point x="111" y="465" type="line" smooth="yes"/>
      <point x="118" y="465"/>
      <point x="120" y="462"/>
      <point x="120" y="456" type="curve" smooth="yes"/>
      <point x="120" y="12" type="line" smooth="yes"/>
      <point x="120" y="3"/>
      <point x="124" y="0"/>
      <point x="131" y="0" type="curve" smooth="yes"/>
      <point x="160" y="0" type="line" smooth="yes"/>
      <point x="166" y="0"/>
      <point x="171" y="3"/>
      <point x="171" y="12" type="curve" smooth="yes"/>
      <point x="171" y="456" type="line" smooth="yes"/>
      <point x="171" y="462"/>
      <point x="173" y="465"/>
      <point x="180" y="465" type="curve" smooth="yes"/>
      <point x="271" y="465" type="line" smooth="yes"/>
      <point x="280" y="465"/>
      <point x="283" y="469"/>
      <point x="283" y="476" type="curve" smooth="yes"/>
      <point x="283" y="499" type="line" smooth="yes"/>
      <point x="283" y="507"/>
      <point x="280" y="510"/>
      <point x="271" y="510" type="curve" smooth="yes"/>
    </contour>
  </outline>
</glyph>
<glyph name="g" format="1">
  <advance width="506"/>
  <unicode hex="0067"/>
  <outline>
    <contour>
      <point x="381" y="172" type="line"/>
      <point x="381" y="108"/>
      <point x="341" y="74"/>
      <point x="278" y="74" type="curve" smooth="yes"/>
      <point x="214" y="74" type="line" smooth="yes"/>
      <point x="152" y="74"/>
      <point x="119" y="110"/>
      <point x="119" y="172" type="curve" smooth="yes"/>
      <point x="119" y="366" type="line" smooth="yes"/>
      <point x="119" y="429"/>
      <point x="152" y="465"/>
      <point x="214" y="465" type="curve" smooth="yes"/>
      <point x="372" y="465" type="line" smooth="yes"/>
      <point x="379" y="465"/>
      <point x="381" y="462"/>
      <point x="381" y="456" type="curve" smooth="yes"/>
    </contour>
    <contour>
      <point x="273" y="29" type="line"/>
      <point x="330" y="29"/>
      <point x="363" y="52"/>
      <point x="377" y="81" type="curve"/>
      <point x="381" y="81" type="line"/>
      <point x="381" y="4" type="line" smooth="yes"/>
      <point x="381" y="-59"/>
      <point x="349" y="-95"/>
      <point x="287" y="-95" type="curve" smooth="yes"/>
      <point x="109" y="-95" type="line" smooth="yes"/>
      <point x="100" y="-95"/>
      <point x="98" y="-99"/>
      <point x="98" y="-105" type="curve" smooth="yes"/>
      <point x="98" y="-129" type="line" smooth="yes"/>
      <point x="98" y="-137"/>
      <point x="100" y="-140"/>
      <point x="109" y="-140" type="curve" smooth="yes"/>
      <point x="291" y="-140" type="line" smooth="yes"/>
      <point x="377" y="-140"/>
      <point x="432" y="-86"/>
      <point x="432" y="2" type="curve" smooth="yes"/>
      <point x="432" y="498" type="line" smooth="yes"/>
      <point x="432" y="507"/>
      <point x="428" y="510"/>
      <point x="421" y="510" type="curve" smooth="yes"/>
      <point x="209" y="510" type="line" smooth="yes"/>
      <point x="123" y="510"/>
      <point x="69" y="456"/>
      <point x="69" y="368" type="curve" smooth="yes"/>
      <point x="69" y="170" type="line" smooth="yes"/>
      <point x="69" y="83"/>
      <point x="122" y="29"/>
      <point x="208" y="29" type="curve" smooth="yes"/>
    </contour>
  </outline>
</glyph>
<glyph name="h" format="1">
  <advance width="507"/>
  <unicode hex="0068"/>
  <outline>
    <contour>
      <point x="114" y="0" type="line"/>
      <point x="121" y="0"/>
      <point x="125" y="3"/>
      <point x="125" y="12" type="curve" smooth="yes"/>
      <point x="125" y="367" type="line" smooth="yes"/>
      <point x="125" y="430"/>
      <point x="165" y="465"/>
      <point x="228" y="465" type="curve" smooth="yes"/>
      <point x="293" y="465" type="line" smooth="yes"/>
      <point x="354" y="465"/>
      <point x="387" y="429"/>
      <point x="387" y="366" type="curve" smooth="yes"/>
      <point x="387" y="12" type="line" smooth="yes"/>
      <point x="387" y="3"/>
      <point x="391" y="0"/>
      <point x="398" y="0" type="curve" smooth="yes"/>
      <point x="427" y="0" type="line" smooth="yes"/>
      <point x="434" y="0"/>
      <point x="437" y="3"/>
      <point x="437" y="12" type="curve" smooth="yes"/>
      <point x="437" y="368" type="line" smooth="yes"/>
      <point x="437" y="456"/>
      <point x="385" y="510"/>
      <point x="299" y="510" type="curve" smooth="yes"/>
      <point x="233" y="510" type="line" smooth="yes"/>
      <point x="175" y="510"/>
      <point x="144" y="486"/>
      <point x="129" y="458" type="curve"/>
      <point x="125" y="458" type="line"/>
      <point x="125" y="691" type="line" smooth="yes"/>
      <point x="125" y="700"/>
      <point x="121" y="703"/>
      <point x="114" y="703" type="curve" smooth="yes"/>
      <point x="85" y="703" type="line" smooth="yes"/>
      <point x="79" y="703"/>
      <point x="75" y="700"/>
      <point x="75" y="691" type="curve" smooth="yes"/>
      <point x="75" y="12" type="line" smooth="yes"/>
      <point x="75" y="3"/>
      <point x="79" y="0"/>
      <point x="85" y="0" type="curve" smooth="yes"/>
    </contour>
  </outline>
</glyph>
<glyph name="i" format="1">
  <advance width="210"/>
  <unicode hex="0069"/>
  <outline>
    <contour>
      <point x="80" y="12" type="line"/>
      <point x="80" y="3"/>
      <point x="84" y="0"/>
      <point x="90" y="0" type="curve" smooth="yes"/>
      <point x="120" y="0" type="line" smooth="yes"/>
      <point x="127" y="0"/>
      <point x="130" y="2"/>
      <point x="130" y="12" type="curve" smooth="yes"/>
      <point x="130" y="498" type="line" smooth="yes"/>
      <point x="130" y="507"/>
      <point x="126" y="510"/>
      <point x="119" y="510" type="curve" smooth="yes"/>
      <point x="90" y="510" type="line" smooth="yes"/>
      <point x="83" y="510"/>
      <point x="80" y="507"/>
      <point x="80" y="498" type="curve" smooth="yes"/>
    </contour>
    <contour>
      <point x="80" y="594" type="line"/>
      <point x="80" y="585"/>
      <point x="83" y="582"/>
      <point x="90" y="582" type="curve" smooth="yes"/>
      <point x="120" y="582" type="line" smooth="yes"/>
      <point x="126" y="582"/>
      <point x="130" y="585"/>
      <point x="130" y="594" type="curve" smooth="yes"/>
      <point x="130" y="690" type="line" smooth="yes"/>
      <point x="130" y="699"/>
      <point x="126" y="701"/>
      <point x="120" y="701" type="curve" smooth="yes"/>
      <point x="90" y="701" type="line" smooth="yes"/>
      <point x="83" y="701"/>
      <point x="80" y="699"/>
      <point x="80" y="690" type="curve" smooth="yes"/>
    </contour>
  </outline>
</glyph>
<glyph name="j" format="1">
  <advance width="210"/>
  <unicode hex="006A"/>
  <outline>
    <contour>
      <point x="-11" y="-140" type="line"/>
      <point x="75" y="-140"/>
      <point x="130" y="-86"/>
      <point x="130" y="2" type="curve" smooth="yes"/>
      <point x="130" y="498" type="line" smooth="yes"/>
      <point x="130" y="507"/>
      <point x="126" y="510"/>
      <point x="119" y="510" type="curve" smooth="yes"/>
      <point x="90" y="510" type="line" smooth="yes"/>
      <point x="84" y="510"/>
      <point x="80" y="507"/>
      <point x="80" y="498" type="curve" smooth="yes"/>
      <point x="80" y="8" type="line" smooth="yes"/>
      <point x="80" y="-59"/>
      <point x="47" y="-95"/>
      <point x="-19" y="-95" type="curve" smooth="yes"/>
      <point x="-40" y="-95" type="line" smooth="yes"/>
      <point x="-49" y="-95"/>
      <point x="-52" y="-99"/>
      <point x="-52" y="-105" type="curve" smooth="yes"/>
      <point x="-52" y="-129" type="line" smooth="yes"/>
      <point x="-52" y="-136"/>
      <point x="-49" y="-140"/>
      <point x="-40" y="-140" type="curve" smooth="yes"/>
    </contour>
    <contour>
      <point x="80" y="594" type="line"/>
      <point x="80" y="585"/>
      <point x="83" y="582"/>
      <point x="90" y="582" type="curve" smooth="yes"/>
      <point x="120" y="582" type="line" smooth="yes"/>
      <point x="126" y="582"/>
      <point x="130" y="585"/>
      <point x="130" y="594" type="curve" smooth="yes"/>
      <point x="130" y="690" type="line" smooth="yes"/>
      <point x="130" y="699"/>
      <point x="126" y="701"/>
      <point x="120" y="701" type="curve" smooth="yes"/>
      <point x="90" y="701" type="line" smooth="yes"/>
      <point x="83" y="701"/>
      <point x="80" y="699"/>
      <point x="80" y="690" type="curve" smooth="yes"/>
    </contour>
  </outline>
</glyph>
<glyph name="k" format="1">
  <advance width="431"/>
  <unicode hex="006B"/>
  <outline>
    <contour>
      <point x="192" y="271" type="line"/>
      <point x="190" y="267"/>
      <point x="190" y="259"/>
      <point x="192" y="255" type="curve" smooth="yes"/>
      <point x="357" y="12" type="line" smooth="yes"/>
      <point x="364" y="2"/>
      <point x="370" y="0"/>
      <point x="380" y="0" type="curve" smooth="yes"/>
      <point x="411" y="0" type="line" smooth="yes"/>
      <point x="418" y="0"/>
      <point x="423" y="5"/>
      <point x="417" y="12" type="curve" smooth="yes"/>
      <point x="246" y="262" type="line"/>
      <point x="246" y="266" type="line"/>
      <point x="399" y="498" type="line" smooth="yes"/>
      <point x="405" y="505"/>
      <point x="401" y="510"/>
      <point x="393" y="510" type="curve" smooth="yes"/>
      <point x="362" y="510" type="line" smooth="yes"/>
      <point x="353" y="510"/>
      <point x="347" y="508"/>
      <point x="342" y="500" type="curve" smooth="yes"/>
    </contour>
    <contour>
      <point x="114" y="0" type="line"/>
      <point x="121" y="0"/>
      <point x="125" y="3"/>
      <point x="125" y="12" type="curve" smooth="yes"/>
      <point x="125" y="200"/>
      <point x="125" y="503"/>
      <point x="125" y="691" type="curve" smooth="yes"/>
      <point x="125" y="700"/>
      <point x="121" y="703"/>
      <point x="114" y="703" type="curve" smooth="yes"/>
      <point x="85" y="703" type="line" smooth="yes"/>
      <point x="79" y="703"/>
      <point x="75" y="700"/>
      <point x="75" y="691" type="curve" smooth="yes"/>
      <point x="75" y="12" type="line" smooth="yes"/>
      <point x="75" y="3"/>
      <point x="79" y="0"/>
      <point x="85" y="0" type="curve" smooth="yes"/>
    </contour>
  </outline>
</glyph>
<glyph name="l" format="1">
  <advance width="210"/>
  <unicode hex="006C"/>
  <outline>
    <contour>
      <point x="119" y="0" type="line"/>
      <point x="126" y="0"/>
      <point x="130" y="3"/>
      <point x="130" y="12" type="curve" smooth="yes"/>
      <point x="130" y="691" type="line" smooth="yes"/>
      <point x="130" y="700"/>
      <point x="126" y="703"/>
      <point x="119" y="703" type="curve" smooth="yes"/>
      <point x="90" y="703" type="line" smooth="yes"/>
      <point x="84" y="703"/>
      <point x="80" y="700"/>
      <point x="80" y="691" type="curve" smooth="yes"/>
      <point x="80" y="12" type="line" smooth="yes"/>
      <point x="80" y="3"/>
      <point x="84" y="0"/>
      <point x="90" y="0" type="curve" smooth="yes"/>
    </contour>
  </outline>
</glyph>
<glyph name="m" format="1">
  <advance width="769"/>
  <unicode hex="006D"/>
  <outline>
    <contour>
      <point x="114" y="0" type="line"/>
      <point x="121" y="0"/>
      <point x="125" y="3"/>
      <point x="125" y="12" type="curve" smooth="yes"/>
      <point x="125" y="367" type="line" smooth="yes"/>
      <point x="125" y="430"/>
      <point x="165" y="465"/>
      <point x="228" y="465" type="curve" smooth="yes"/>
      <point x="268" y="465" type="line" smooth="yes"/>
      <point x="330" y="465"/>
      <point x="362" y="429"/>
      <point x="362" y="366" type="curve" smooth="yes"/>
      <point x="362" y="12" type="line" smooth="yes"/>
      <point x="362" y="3"/>
      <point x="366" y="0"/>
      <point x="373" y="0" type="curve" smooth="yes"/>
      <point x="402" y="0" type="line" smooth="yes"/>
      <point x="409" y="0"/>
      <point x="413" y="3"/>
      <point x="413" y="12" type="curve" smooth="yes"/>
      <point x="413" y="363" type="line" smooth="yes"/>
      <point x="413" y="425"/>
      <point x="453" y="465"/>
      <point x="517" y="465" type="curve" smooth="yes"/>
      <point x="554" y="465" type="line" smooth="yes"/>
      <point x="616" y="465"/>
      <point x="648" y="429"/>
      <point x="648" y="366" type="curve" smooth="yes"/>
      <point x="648" y="12" type="line" smooth="yes"/>
      <point x="648" y="3"/>
      <point x="652" y="0"/>
      <point x="659" y="0" type="curve" smooth="yes"/>
      <point x="688" y="0" type="line" smooth="yes"/>
      <point x="695" y="0"/>
      <point x="699" y="3"/>
      <point x="699" y="12" type="curve" smooth="yes"/>
      <point x="699" y="368" type="line" smooth="yes"/>
      <point x="699" y="456"/>
      <point x="646" y="510"/>
      <point x="560" y="510" type="curve" smooth="yes"/>
      <point x="523" y="510" type="line" smooth="yes"/>
      <point x="478" y="510"/>
      <point x="419" y="490"/>
      <point x="398" y="440" type="curve"/>
      <point x="376" y="485"/>
      <point x="334" y="510"/>
      <point x="276" y="510" type="curve" smooth="yes"/>
      <point x="235" y="510" type="line" smooth="yes"/>
      <point x="175" y="510"/>
      <point x="144" y="485"/>
      <point x="129" y="458" type="curve"/>
      <point x="125" y="458" type="line"/>
      <point x="125" y="498" type="line" smooth="yes"/>
      <point x="125" y="507"/>
      <point x="121" y="510"/>
      <point x="114" y="510" type="curve" smooth="yes"/>
      <point x="85" y="510" type="line" smooth="yes"/>
      <point x="79" y="510"/>
      <point x="75" y="507"/>
      <point x="75" y="498" type="curve" smooth="yes"/>
      <point x="75" y="12" type="line" smooth="yes"/>
      <point x="75" y="3"/>
      <point x="79" y="0"/>
      <point x="85" y="0" type="curve" smooth="yes"/>
    </contour>
  </outline>
</glyph>
<glyph name="p" format="1">
  <advance width="504"/>
  <unicode hex="0070"/>
  <outline>
    <contour>
      <point x="228" y="45" type="line"/>
      <point x="165" y="45"/>
      <point x="125" y="80"/>
      <point x="125" y="143" type="curve" smooth="yes"/>
      <point x="125" y="367" type="line" smooth="yes"/>
      <point x="125" y="430"/>
      <point x="165" y="465"/>
      <point x="228" y="465" type="curve" smooth="yes"/>
      <point x="294" y="465" type="line" smooth="yes"/>
      <point x="356" y="465"/>
      <point x="389" y="429"/>
      <point x="389" y="366" type="curve" smooth="yes"/>
      <point x="389" y="144" type="line" smooth="yes"/>
      <point x="389" y="81"/>
      <point x="356" y="45"/>
      <point x="294" y="45" type="curve" smooth="yes"/>
    </contour>
    <contour>
      <point x="114" y="-149" type="line"/>
      <point x="121" y="-149"/>
      <point x="125" y="-147"/>
      <point x="125" y="-138" type="curve" smooth="yes"/>
      <point x="125" y="52" type="line"/>
      <point x="129" y="52" type="line"/>
      <point x="144" y="24"/>
      <point x="176" y="0"/>
      <point x="233" y="0" type="curve" smooth="yes"/>
      <point x="301" y="0" type="line" smooth="yes"/>
      <point x="386" y="0"/>
      <point x="439" y="54"/>
      <point x="439" y="142" type="curve" smooth="yes"/>
      <point x="439" y="368" type="line" smooth="yes"/>
      <point x="439" y="456"/>
      <point x="386" y="510"/>
      <point x="301" y="510" type="curve" smooth="yes"/>
      <point x="233" y="510" type="line" smooth="yes"/>
      <point x="176" y="510"/>
      <point x="144" y="486"/>
      <point x="129" y="458" type="curve"/>
      <point x="125" y="458" type="line"/>
      <point x="125" y="498" type="line" smooth="yes"/>
      <point x="125" y="507"/>
      <point x="121" y="510"/>
      <point x="114" y="510" type="curve" smooth="yes"/>
      <point x="85" y="510" type="line" smooth="yes"/>
      <point x="79" y="510"/>
      <point x="75" y="507"/>
      <point x="75" y="498" type="curve" smooth="yes"/>
      <point x="75" y="-138" type="line" smooth="yes"/>
      <point x="75" y="-147"/>
      <point x="79" y="-149"/>
      <point x="85" y="-149" type="curve" smooth="yes"/>
    </contour>
  </outline>
</glyph>
<glyph name="q" format="1">
  <advance width="502"/>
  <unicode hex="0071"/>
  <outline>
    <contour>
      <point x="265" y="0" type="line"/>
      <point x="300" y="0"/>
      <point x="345" y="2"/>
      <point x="373" y="54" type="curve"/>
      <point x="377" y="54" type="line"/>
      <point x="377" y="-138" type="line" smooth="yes"/>
      <point x="377" y="-147"/>
      <point x="381" y="-149"/>
      <point x="388" y="-149" type="curve" smooth="yes"/>
      <point x="417" y="-149" type="line" smooth="yes"/>
      <point x="424" y="-149"/>
      <point x="427" y="-147"/>
      <point x="427" y="-138" type="curve" smooth="yes"/>
      <point x="427" y="498" type="line" smooth="yes"/>
      <point x="427" y="507"/>
      <point x="424" y="510"/>
      <point x="417" y="510" type="curve" smooth="yes"/>
      <point x="205" y="510" type="line" smooth="yes"/>
      <point x="119" y="510"/>
      <point x="65" y="456"/>
      <point x="65" y="368" type="curve" smooth="yes"/>
      <point x="65" y="142" type="line" smooth="yes"/>
      <point x="65" y="54"/>
      <point x="119" y="0"/>
      <point x="205" y="0" type="curve" smooth="yes"/>
    </contour>
    <contour>
      <point x="377" y="148" type="line"/>
      <point x="377" y="85"/>
      <point x="337" y="45"/>
      <point x="272" y="45" type="curve" smooth="yes"/>
      <point x="209" y="45" type="line" smooth="yes"/>
      <point x="148" y="45"/>
      <point x="115" y="81"/>
      <point x="115" y="144" type="curve" smooth="yes"/>
      <point x="115" y="366" type="line" smooth="yes"/>
      <point x="115" y="429"/>
      <point x="148" y="465"/>
      <point x="209" y="465" type="curve" smooth="yes"/>
      <point x="367" y="465" type="line" smooth="yes"/>
      <point x="375" y="465"/>
      <point x="377" y="462"/>
      <point x="377" y="456" type="curve" smooth="yes"/>
    </contour>
  </outline>
</glyph>
<glyph name="r" format="1">
  <advance width="313"/>
  <unicode hex="0072"/>
  <outline>
    <contour>
      <point x="114" y="0" type="line"/>
      <point x="121" y="0"/>
      <point x="125" y="3"/>
      <point x="125" y="12" type="curve" smooth="yes"/>
      <point x="125" y="354" type="line" smooth="yes"/>
      <point x="125" y="422"/>
      <point x="164" y="465"/>
      <point x="229" y="465" type="curve" smooth="yes"/>
      <point x="276" y="465" type="line" smooth="yes"/>
      <point x="284" y="464"/>
      <point x="287" y="468"/>
      <point x="287" y="475" type="curve" smooth="yes"/>
      <point x="287" y="499" type="line" smooth="yes"/>
      <point x="287" y="506"/>
      <point x="284" y="510"/>
      <point x="276" y="510" type="curve" smooth="yes"/>
      <point x="237" y="510" type="line" smooth="yes"/>
      <point x="177" y="510"/>
      <point x="141" y="480"/>
      <point x="129" y="456" type="curve"/>
      <point x="125" y="456" type="line"/>
      <point x="125" y="498" type="line" smooth="yes"/>
      <point x="125" y="507"/>
      <point x="121" y="510"/>
      <point x="114" y="510" type="curve" smooth="yes"/>
      <point x="85" y="510" type="line" smooth="yes"/>
      <point x="79" y="510"/>
      <point x="75" y="507"/>
      <point x="75" y="498" type="curve" smooth="yes"/>
      <point x="75" y="12" type="line" smooth="yes"/>
      <point x="75" y="3"/>
      <point x="79" y="0"/>
      <point x="85" y="0" type="curve" smooth="yes"/>
    </contour>
  </outline>
</glyph>
<glyph name="u" format="1">
  <advance width="507"/>
  <unicode hex="0075"/>
  <outline>
    <contour>
      <point x="274" y="0" type="line"/>
      <point x="331" y="0"/>
      <point x="364" y="24"/>
      <point x="378" y="52" type="curve"/>
      <point x="382" y="52" type="line"/>
      <point x="382" y="12" type="line" smooth="yes"/>
      <point x="382" y="3"/>
      <point x="386" y="0"/>
      <point x="393" y="0" type="curve" smooth="yes"/>
      <point x="422" y="0" type="line" smooth="yes"/>
      <point x="429" y="0"/>
      <point x="432" y="3"/>
      <point x="432" y="12" type="curve" smooth="yes"/>
      <point x="432" y="498" type="line" smooth="yes"/>
      <point x="432" y="507"/>
      <point x="429" y="510"/>
      <point x="422" y="510" type="curve" smooth="yes"/>
      <point x="393" y="510" type="line" smooth="yes"/>
      <point x="386" y="510"/>
      <point x="382" y="507"/>
      <point x="382" y="498" type="curve" smooth="yes"/>
      <point x="382" y="143" type="line" smooth="yes"/>
      <point x="382" y="80"/>
      <point x="342" y="45"/>
      <point x="279" y="45" type="curve" smooth="yes"/>
      <point x="214" y="45" type="line" smooth="yes"/>
      <point x="153" y="45"/>
      <point x="120" y="81"/>
      <point x="120" y="144" type="curve" smooth="yes"/>
      <point x="120" y="498" type="line" smooth="yes"/>
      <point x="120" y="507"/>
      <point x="116" y="510"/>
      <point x="109" y="510" type="curve" smooth="yes"/>
      <point x="80" y="510" type="line" smooth="yes"/>
      <point x="74" y="510"/>
      <point x="70" y="507"/>
      <point x="70" y="498" type="curve" smooth="yes"/>
      <point x="70" y="142" type="line" smooth="yes"/>
      <point x="70" y="54"/>
      <point x="123" y="0"/>
      <point x="208" y="0" type="curve" smooth="yes"/>
    </contour>
  </outline>
</glyph>
<glyph name="v" format="1">
  <advance width="416"/>
  <unicode hex="0076"/>
  <outline>
    <contour>
      <point x="171" y="12" type="line"/>
      <point x="174" y="3"/>
      <point x="178" y="0"/>
      <point x="186" y="0" type="curve" smooth="yes"/>
      <point x="230" y="0" type="line" smooth="yes"/>
      <point x="238" y="0"/>
      <point x="242" y="3"/>
      <point x="244" y="12" type="curve" smooth="yes"/>
      <point x="395" y="498" type="line" smooth="yes"/>
      <point x="398" y="507"/>
      <point x="394" y="510"/>
      <point x="388" y="510" type="curve" smooth="yes"/>
      <point x="356" y="510" type="line" smooth="yes"/>
      <point x="349" y="510"/>
      <point x="346" y="507"/>
      <point x="343" y="498" type="curve" smooth="yes"/>
      <point x="210" y="56" type="line"/>
      <point x="206" y="56" type="line"/>
      <point x="72" y="498" type="line" smooth="yes"/>
      <point x="70" y="507"/>
      <point x="66" y="510"/>
      <point x="59" y="510" type="curve" smooth="yes"/>
      <point x="28" y="510" type="line" smooth="yes"/>
      <point x="21" y="510"/>
      <point x="18" y="507"/>
      <point x="20" y="498" type="curve" smooth="yes"/>
    </contour>
  </outline>
</glyph>
<glyph name="w" format="1">
  <advance width="683"/>
  <unicode hex="0077"/>
  <outline>
    <contour>
      <point x="214" y="0" type="line"/>
      <point x="222" y="0"/>
      <point x="226" y="3"/>
      <point x="228" y="12" type="curve" smooth="yes"/>
      <point x="338" y="434" type="line"/>
      <point x="343" y="434" type="line"/>
      <point x="454" y="12" type="line" smooth="yes"/>
      <point x="456" y="3"/>
      <point x="460" y="0"/>
      <point x="468" y="0" type="curve" smooth="yes"/>
      <point x="508" y="0" type="line" smooth="yes"/>
      <point x="516" y="0"/>
      <point x="520" y="3"/>
      <point x="522" y="12" type="curve" smooth="yes"/>
      <point x="661" y="498" type="line" smooth="yes"/>
      <point x="664" y="507"/>
      <point x="660" y="510"/>
      <point x="653" y="510" type="curve" smooth="yes"/>
      <point x="621" y="510" type="line" smooth="yes"/>
      <point x="614" y="510"/>
      <point x="610" y="507"/>
      <point x="608" y="498" type="curve" smooth="yes"/>
      <point x="489" y="63" type="line"/>
      <point x="484" y="63" type="line"/>
      <point x="370" y="498" type="line" smooth="yes"/>
      <point x="368" y="508"/>
      <point x="363" y="510"/>
      <point x="356" y="510" type="curve" smooth="yes"/>
      <point x="327" y="510" type="line" smooth="yes"/>
      <point x="320" y="510"/>
      <point x="315" y="508"/>
      <point x="313" y="498" type="curve" smooth="yes"/>
      <point x="197" y="63" type="line"/>
      <point x="192" y="63" type="line"/>
      <point x="74" y="498" type="line" smooth="yes"/>
      <point x="72" y="508"/>
      <point x="68" y="510"/>
      <point x="61" y="510" type="curve" smooth="yes"/>
      <point x="29" y="510" type="line" smooth="yes"/>
      <point x="22" y="510"/>
      <point x="19" y="507"/>
      <point x="21" y="498" type="curve" smooth="yes"/>
      <point x="161" y="12" type="line" smooth="yes"/>
      <point x="163" y="3"/>
      <point x="167" y="0"/>
      <point x="174" y="0" type="curve" smooth="yes"/>
    </contour>
  </outline>
</glyph>
<glyph name="x" format="1">
  <advance width="413"/>
  <unicode hex="0078"/>
  <outline>
    <contour>
      <point x="69" y="0" type="line"/>
      <point x="76" y="0"/>
      <point x="80" y="2"/>
      <point x="86" y="12" type="curve"/>
      <point x="205" y="226" type="line"/>
      <point x="209" y="226" type="line"/>
      <point x="328" y="12" type="line"/>
      <point x="333" y="2"/>
      <point x="335" y="0"/>
      <point x="342" y="0" type="curve" smooth="yes"/>
      <point x="382" y="0" type="line" smooth="yes"/>
      <point x="389" y="0"/>
      <point x="392" y="3"/>
      <point x="387" y="12" type="curve"/>
      <point x="240" y="262" type="line"/>
      <point x="375" y="498" type="line"/>
      <point x="381" y="507"/>
      <point x="377" y="510"/>
      <point x="370" y="510" type="curve" smooth="yes"/>
      <point x="334" y="510" type="line" smooth="yes"/>
      <point x="327" y="510"/>
      <point x="323" y="508"/>
      <point x="317" y="498" type="curve"/>
      <point x="209" y="294" type="line"/>
      <point x="205" y="294" type="line"/>
      <point x="92" y="498" type="line"/>
      <point x="87" y="508"/>
      <point x="82" y="510"/>
      <point x="75" y="510" type="curve" smooth="yes"/>
      <point x="39" y="510" type="line" smooth="yes"/>
      <point x="32" y="510"/>
      <point x="28" y="507"/>
      <point x="34" y="498" type="curve"/>
      <point x="172" y="260" type="line"/>
      <point x="27" y="12" type="line" smooth="yes"/>
      <point x="21" y="3"/>
      <point x="25" y="0"/>
      <point x="32" y="0" type="curve" smooth="yes"/>
    </contour>
  </outline>
</glyph>
<glyph name="y" format="1">
  <advance width="459"/>
  <unicode hex="0079"/>
  <outline>
    <contour>
      <point x="99" y="-152" type="line"/>
      <point x="211" y="-152"/>
      <point x="242" y="-60"/>
      <point x="271" y="28" type="curve"/>
      <point x="431" y="498" type="line" smooth="yes"/>
      <point x="433" y="507"/>
      <point x="429" y="510"/>
      <point x="422" y="510" type="curve" smooth="yes"/>
      <point x="392" y="510" type="line" smooth="yes"/>
      <point x="385" y="510"/>
      <point x="381" y="507"/>
      <point x="379" y="498" type="curve" smooth="yes"/>
      <point x="232" y="69" type="line"/>
      <point x="228" y="69" type="line"/>
      <point x="81" y="498" type="line" smooth="yes"/>
      <point x="79" y="507"/>
      <point x="75" y="510"/>
      <point x="68" y="510" type="curve" smooth="yes"/>
      <point x="37" y="510" type="line" smooth="yes"/>
      <point x="30" y="510"/>
      <point x="26" y="507"/>
      <point x="29" y="498" type="curve" smooth="yes"/>
      <point x="188" y="39" type="line" smooth="yes"/>
      <point x="190" y="31"/>
      <point x="194" y="27"/>
      <point x="202" y="27" type="curve" smooth="yes"/>
      <point x="221" y="27" type="line"/>
      <point x="197" y="-38"/>
      <point x="177" y="-106"/>
      <point x="89" y="-106" type="curve" smooth="yes"/>
      <point x="62" y="-106" type="line" smooth="yes"/>
      <point x="53" y="-106"/>
      <point x="51" y="-110"/>
      <point x="51" y="-117" type="curve" smooth="yes"/>
      <point x="51" y="-141" type="line" smooth="yes"/>
      <point x="51" y="-148"/>
      <point x="53" y="-152"/>
      <point x="62" y="-152" type="curve" smooth="yes"/>
    </contour>
  </outline>
</glyph>
<glyph name="z" format="1">
  <advance width="405"/>
  <unicode hex="007A"/>
  <outline>
    <contour>
      <point x="34" y="11" type="line"/>
      <point x="34" y="4"/>
      <point x="37" y="0"/>
      <point x="46" y="0" type="curve" smooth="yes"/>
      <point x="359" y="0" type="line" smooth="yes"/>
      <point x="368" y="0"/>
      <point x="371" y="4"/>
      <point x="371" y="11" type="curve" smooth="yes"/>
      <point x="371" y="34" type="line" smooth="yes"/>
      <point x="371" y="41"/>
      <point x="368" y="45"/>
      <point x="359" y="45" type="curve" smooth="yes"/>
      <point x="101" y="45" type="line"/>
      <point x="101" y="49" type="line"/>
      <point x="359" y="460" type="line" smooth="yes"/>
      <point x="362" y="465"/>
      <point x="364" y="469"/>
      <point x="364" y="477" type="curve" smooth="yes"/>
      <point x="364" y="499" type="line" smooth="yes"/>
      <point x="364" y="506"/>
      <point x="361" y="510"/>
      <point x="352" y="510" type="curve" smooth="yes"/>
      <point x="52" y="510" type="line" smooth="yes"/>
      <point x="44" y="510"/>
      <point x="41" y="506"/>
      <point x="41" y="499" type="curve" smooth="yes"/>
      <point x="41" y="476" type="line" smooth="yes"/>
      <point x="41" y="469"/>
      <point x="44" y="465"/>
      <point x="52" y="465" type="curve" smooth="yes"/>
      <point x="302" y="465" type="line"/>
      <point x="302" y="461" type="line"/>
      <point x="40" y="44" type="line" smooth="yes"/>
      <point x="36" y="39"/>
      <point x="34" y="35"/>
      <point x="34" y="25" type="curve" smooth="yes"/>
    </contour>
  </outline>
</glyph>
<glyph name="braceleft" format="1">
  <advance width="298"/>
  <unicode hex="007B"/>
  <outline>
    <contour>
      <point x="223" y="643" type="line"/>
      <point x="146" y="643"/>
      <point x="110" y="589"/>
      <point x="110" y="501" type="curve" smooth="yes"/>
      <point x="110" y="369" type="line" smooth="yes"/>
      <point x="110" y="312"/>
      <point x="88" y="293"/>
      <point x="48" y="293" type="curve" smooth="yes"/>
      <point x="39" y="293"/>
      <point x="36" y="289"/>
      <point x="36" y="282" type="curve" smooth="yes"/>
      <point x="36" y="258" type="line" smooth="yes"/>
      <point x="36" y="251"/>
      <point x="39" y="247"/>
      <point x="48" y="247" type="curve" smooth="yes"/>
      <point x="88" y="247"/>
      <point x="110" y="228"/>
      <point x="110" y="171" type="curve" smooth="yes"/>
      <point x="110" y="40" type="line" smooth="yes"/>
      <point x="110" y="-48"/>
      <point x="146" y="-102"/>
      <point x="223" y="-102" type="curve" smooth="yes"/>
      <point x="228" y="-102" type="line" smooth="yes"/>
      <point x="237" y="-102"/>
      <point x="239" y="-98"/>
      <point x="239" y="-91" type="curve" smooth="yes"/>
      <point x="239" y="-72" type="line" smooth="yes"/>
      <point x="239" y="-65"/>
      <point x="237" y="-61"/>
      <point x="228" y="-61" type="curve" smooth="yes"/>
      <point x="224" y="-61" type="line" smooth="yes"/>
      <point x="170" y="-61"/>
      <point x="154" y="-25"/>
      <point x="154" y="37" type="curve" smooth="yes"/>
      <point x="154" y="174" type="line" smooth="yes"/>
      <point x="154" y="224"/>
      <point x="136" y="259"/>
      <point x="100" y="270" type="curve"/>
      <point x="136" y="282"/>
      <point x="154" y="315"/>
      <point x="154" y="366" type="curve" smooth="yes"/>
      <point x="154" y="504" type="line" smooth="yes"/>
      <point x="154" y="566"/>
      <point x="170" y="602"/>
      <point x="224" y="602" type="curve" smooth="yes"/>
      <point x="228" y="602" type="line" smooth="yes"/>
      <point x="237" y="602"/>
      <point x="239" y="606"/>
      <point x="239" y="613" type="curve" smooth="yes"/>
      <point x="239" y="632" type="line" smooth="yes"/>
      <point x="239" y="639"/>
      <point x="237" y="643"/>
      <point x="228" y="643" type="curve" smooth="yes"/>
    </contour>
  </outline>
</glyph>
<glyph name="bar" format="1">
  <advance width="207"/>
  <unicode hex="007C"/>
  <outline>
    <contour>
      <point x="124" y="631" type="line"/>
      <point x="124" y="640"/>
      <point x="120" y="643"/>
      <point x="113" y="643" type="curve" smooth="yes"/>
      <point x="93" y="643" type="line" smooth="yes"/>
      <point x="86" y="643"/>
      <point x="82" y="640"/>
      <point x="82" y="631" type="curve" smooth="yes"/>
      <point x="82" y="12" type="line" smooth="yes"/>
      <point x="82" y="3"/>
      <point x="86" y="0"/>
      <point x="93" y="0" type="curve" smooth="yes"/>
      <point x="113" y="0" type="line" smooth="yes"/>
      <point x="120" y="0"/>
      <point x="124" y="3"/>
      <point x="124" y="12" type="curve" smooth="yes"/>
    </contour>
  </outline>
</glyph>
<glyph name="braceright" format="1">
  <advance width="298"/>
  <unicode hex="007D"/>
  <outline>
    <contour>
      <point x="166" y="501" type="line"/>
      <point x="166" y="589"/>
      <point x="130" y="643"/>
      <point x="53" y="643" type="curve" smooth="yes"/>
      <point x="48" y="643" type="line" smooth="yes"/>
      <point x="39" y="643"/>
      <point x="36" y="639"/>
      <point x="36" y="632" type="curve" smooth="yes"/>
      <point x="36" y="613" type="line" smooth="yes"/>
      <point x="36" y="606"/>
      <point x="39" y="602"/>
      <point x="48" y="602" type="curve" smooth="yes"/>
      <point x="52" y="602" type="line" smooth="yes"/>
      <point x="105" y="602"/>
      <point x="121" y="566"/>
      <point x="121" y="504" type="curve" smooth="yes"/>
      <point x="121" y="366" type="line" smooth="yes"/>
      <point x="121" y="315"/>
      <point x="140" y="282"/>
      <point x="175" y="270" type="curve"/>
      <point x="140" y="259"/>
      <point x="121" y="224"/>
      <point x="121" y="174" type="curve" smooth="yes"/>
      <point x="121" y="37" type="line" smooth="yes"/>
      <point x="121" y="-25"/>
      <point x="105" y="-61"/>
      <point x="52" y="-61" type="curve" smooth="yes"/>
      <point x="48" y="-61" type="line" smooth="yes"/>
      <point x="39" y="-61"/>
      <point x="36" y="-65"/>
      <point x="36" y="-72" type="curve" smooth="yes"/>
      <point x="36" y="-91" type="line" smooth="yes"/>
      <point x="36" y="-98"/>
      <point x="39" y="-102"/>
      <point x="48" y="-102" type="curve" smooth="yes"/>
      <point x="53" y="-102" type="line" smooth="yes"/>
      <point x="130" y="-102"/>
      <point x="166" y="-48"/>
      <point x="166" y="40" type="curve" smooth="yes"/>
      <point x="166" y="171" type="line" smooth="yes"/>
      <point x="166" y="228"/>
      <point x="188" y="247"/>
      <point x="228" y="247" type="curve" smooth="yes"/>
      <point x="237" y="247"/>
      <point x="239" y="251"/>
      <point x="239" y="258" type="curve" smooth="yes"/>
      <point x="239" y="282" type="line" smooth="yes"/>
      <point x="239" y="289"/>
      <point x="237" y="293"/>
      <point x="228" y="293" type="curve" smooth="yes"/>
      <point x="188" y="293"/>
      <point x="166" y="312"/>
      <point x="166" y="369" type="curve" smooth="yes"/>
    </contour>
  </outline>
</glyph>
<glyph name="asciitilde" format="1">
  <advance width="523"/>
  <unicode hex="007E"/>
  <outline>
    <contour>
      <point x="167" y="317" type="curve" smooth="yes"/>
      <point x="220" y="317"/>
      <point x="297" y="288"/>
      <point x="355" y="288" type="curve" smooth="yes"/>
      <point x="383" y="288"/>
      <point x="412" y="293"/>
      <point x="435" y="303" type="curve" smooth="yes"/>
      <point x="448" y="309"/>
      <point x="453" y="313"/>
      <point x="453" y="322" type="curve" smooth="yes"/>
      <point x="453" y="341" type="line" smooth="yes"/>
      <point x="453" y="348"/>
      <point x="450" y="352"/>
      <point x="444" y="352" type="curve" smooth="yes"/>
      <point x="433" y="352"/>
      <point x="399" y="330"/>
      <point x="356" y="330" type="curve" smooth="yes"/>
      <point x="299" y="330"/>
      <point x="228" y="360"/>
      <point x="168" y="360" type="curve" smooth="yes"/>
      <point x="140" y="360"/>
      <point x="111" y="354"/>
      <point x="89" y="345" type="curve" smooth="yes"/>
      <point x="75" y="339"/>
      <point x="70" y="335"/>
      <point x="70" y="325" type="curve" smooth="yes"/>
      <point x="70" y="306" type="line" smooth="yes"/>
      <point x="70" y="300"/>
      <point x="74" y="295"/>
      <point x="79" y="295" type="curve" smooth="yes"/>
      <point x="90" y="295"/>
      <point x="124" y="317"/>
    </contour>
  </outline>
</glyph>
<glyph name="exclamdown" format="1">
  <advance width="237"/>
  <unicode hex="00A1"/>
  <outline>
    <contour>
      <point x="111" y="302" type="line"/>
      <point x="104" y="302"/>
      <point x="102" y="297"/>
      <point x="100" y="289" type="curve" smooth="yes"/>
      <point x="98" y="271"/>
      <point x="90" y="97"/>
      <point x="90" y="-22" type="curve" smooth="yes"/>
      <point x="90" y="-121" type="line" smooth="yes"/>
      <point x="90" y="-130"/>
      <point x="93" y="-133"/>
      <point x="100" y="-133" type="curve" smooth="yes"/>
      <point x="137" y="-133" type="line" smooth="yes"/>
      <point x="144" y="-133"/>
      <point x="148" y="-130"/>
      <point x="148" y="-121" type="curve" smooth="yes"/>
      <point x="148" y="-22" type="line" smooth="yes"/>
      <point x="148" y="97"/>
      <point x="138" y="271"/>
      <point x="136" y="289" type="curve" smooth="yes"/>
      <point x="135" y="297"/>
      <point x="133" y="302"/>
      <point x="126" y="302" type="curve" smooth="yes"/>
    </contour>
    <contour>
      <point x="135" y="368" type="line"/>
      <point x="141" y="368"/>
      <point x="145" y="371"/>
      <point x="145" y="379" type="curve" smooth="yes"/>
      <point x="145" y="499" type="line" smooth="yes"/>
      <point x="145" y="507"/>
      <point x="141" y="510"/>
      <point x="135" y="510" type="curve" smooth="yes"/>
      <point x="103" y="510" type="line" smooth="yes"/>
      <point x="96" y="510"/>
      <point x="92" y="507"/>
      <point x="92" y="498" type="curve" smooth="yes"/>
      <point x="92" y="379" type="line" smooth="yes"/>
      <point x="92" y="371"/>
      <point x="96" y="368"/>
      <point x="103" y="368" type="curve" smooth="yes"/>
    </contour>
  </outline>
</glyph>
<glyph name="cent" format="1">
  <advance width="414"/>
  <unicode hex="00A2"/>
  <outline>
    <contour>
      <point x="271" y="-90" type="line"/>
      <point x="278" y="-90"/>
      <point x="282" y="-87"/>
      <point x="282" y="-79" type="curve" smooth="yes"/>
      <point x="282" y="0" type="line"/>
      <point x="367" y="0" type="line" smooth="yes"/>
      <point x="375" y="0"/>
      <point x="378" y="4"/>
      <point x="378" y="11" type="curve" smooth="yes"/>
      <point x="378" y="35" type="line" smooth="yes"/>
      <point x="378" y="41"/>
      <point x="375" y="45"/>
      <point x="367" y="45" type="curve" smooth="yes"/>
      <point x="209" y="45" type="line" smooth="yes"/>
      <point x="148" y="45"/>
      <point x="115" y="81"/>
      <point x="115" y="144" type="curve" smooth="yes"/>
      <point x="115" y="366" type="line" smooth="yes"/>
      <point x="115" y="429"/>
      <point x="148" y="465"/>
      <point x="209" y="465" type="curve" smooth="yes"/>
      <point x="367" y="465" type="line" smooth="yes"/>
      <point x="375" y="465"/>
      <point x="378" y="469"/>
      <point x="378" y="475" type="curve" smooth="yes"/>
      <point x="378" y="499" type="line" smooth="yes"/>
      <point x="378" y="506"/>
      <point x="372" y="510"/>
      <point x="363" y="510" type="curve" smooth="yes"/>
      <point x="282" y="510" type="line"/>
      <point x="282" y="601" type="line" smooth="yes"/>
      <point x="282" y="610"/>
      <point x="278" y="613"/>
      <point x="271" y="613" type="curve" smooth="yes"/>
      <point x="247" y="613" type="line" smooth="yes"/>
      <point x="240" y="613"/>
      <point x="236" y="609"/>
      <point x="236" y="601" type="curve" smooth="yes"/>
      <point x="236" y="510" type="line"/>
      <point x="203" y="510" type="line" smooth="yes"/>
      <point x="118" y="510"/>
      <point x="65" y="455"/>
      <point x="65" y="368" type="curve" smooth="yes"/>
      <point x="65" y="142" type="line" smooth="yes"/>
      <point x="65" y="55"/>
      <point x="118" y="0"/>
      <point x="203" y="0" type="curve" smooth="yes"/>
      <point x="236" y="0" type="line"/>
      <point x="236" y="-79" type="line" smooth="yes"/>
      <point x="236" y="-87"/>
      <point x="240" y="-90"/>
      <point x="247" y="-90" type="curve" smooth="yes"/>
    </contour>
  </outline>
</glyph>
<glyph name="sterling" format="1">
  <advance width="528"/>
  <unicode hex="00A3"/>
  <outline>
    <contour>
      <point x="127" y="44" type="line"/>
      <point x="127" y="44"/>
      <point x="127" y="48"/>
      <point x="127" y="48" type="curve"/>
      <point x="137" y="48"/>
      <point x="159" y="65"/>
      <point x="159" y="119" type="curve" smooth="yes"/>
      <point x="159" y="273" type="line"/>
      <point x="321" y="273" type="line" smooth="yes"/>
      <point x="330" y="273"/>
      <point x="333" y="277"/>
      <point x="333" y="284" type="curve" smooth="yes"/>
      <point x="333" y="307" type="line" smooth="yes"/>
      <point x="333" y="313"/>
      <point x="330" y="317"/>
      <point x="321" y="317" type="curve" smooth="yes"/>
      <point x="159" y="317" type="line"/>
      <point x="159" y="503" type="line" smooth="yes"/>
      <point x="159" y="565"/>
      <point x="192" y="599"/>
      <point x="254" y="599" type="curve" smooth="yes"/>
      <point x="310" y="599" type="line" smooth="yes"/>
      <point x="372" y="599"/>
      <point x="405" y="565"/>
      <point x="405" y="503" type="curve" smooth="yes"/>
      <point x="405" y="476" type="line" smooth="yes"/>
      <point x="405" y="467"/>
      <point x="409" y="464"/>
      <point x="416" y="464" type="curve" smooth="yes"/>
      <point x="444" y="464" type="line" smooth="yes"/>
      <point x="451" y="464"/>
      <point x="455" y="467"/>
      <point x="455" y="476" type="curve" smooth="yes"/>
      <point x="455" y="504" type="line" smooth="yes"/>
      <point x="455" y="592"/>
      <point x="401" y="643"/>
      <point x="315" y="643" type="curve" smooth="yes"/>
      <point x="250" y="643" type="line" smooth="yes"/>
      <point x="164" y="643"/>
      <point x="109" y="592"/>
      <point x="109" y="504" type="curve" smooth="yes"/>
      <point x="109" y="317" type="line"/>
      <point x="48" y="317" type="line" smooth="yes"/>
      <point x="39" y="317"/>
      <point x="36" y="313"/>
      <point x="36" y="307" type="curve" smooth="yes"/>
      <point x="36" y="284" type="line" smooth="yes"/>
      <point x="36" y="277"/>
      <point x="39" y="273"/>
      <point x="48" y="273" type="curve" smooth="yes"/>
      <point x="109" y="273" type="line"/>
      <point x="109" y="114" type="line" smooth="yes"/>
      <point x="109" y="74"/>
      <point x="85" y="44"/>
      <point x="59" y="44" type="curve" smooth="yes"/>
      <point x="48" y="44" type="line" smooth="yes"/>
      <point x="39" y="44"/>
      <point x="36" y="40"/>
      <point x="36" y="33" type="curve" smooth="yes"/>
      <point x="36" y="11" type="line" smooth="yes"/>
      <point x="36" y="4"/>
      <point x="39" y="0"/>
      <point x="48" y="0" type="curve" smooth="yes"/>
      <point x="448" y="0" type="line" smooth="yes"/>
      <point x="457" y="0"/>
      <point x="459" y="4"/>
      <point x="459" y="11" type="curve" smooth="yes"/>
      <point x="459" y="33" type="line" smooth="yes"/>
      <point x="459" y="40"/>
      <point x="457" y="44"/>
      <point x="448" y="44" type="curve" smooth="yes"/>
    </contour>
  </outline>
</glyph>
<glyph name="currency" format="1">
  <advance width="479"/>
  <unicode hex="00A4"/>
  <outline>
    <contour>
      <point x="215" y="192" type="line"/>
      <point x="153" y="192"/>
      <point x="120" y="228"/>
      <point x="120" y="291" type="curve" smooth="yes"/>
      <point x="120" y="355" type="line" smooth="yes"/>
      <point x="120" y="417"/>
      <point x="153" y="453"/>
      <point x="215" y="453" type="curve" smooth="yes"/>
      <point x="264" y="453" type="line" smooth="yes"/>
      <point x="326" y="453"/>
      <point x="359" y="417"/>
      <point x="359" y="355" type="curve" smooth="yes"/>
      <point x="359" y="291" type="line" smooth="yes"/>
      <point x="359" y="228"/>
      <point x="326" y="192"/>
      <point x="264" y="192" type="curve" smooth="yes"/>
    </contour>
    <contour>
      <point x="268" y="147" type="line"/>
      <point x="354" y="147"/>
      <point x="409" y="201"/>
      <point x="409" y="289" type="curve" smooth="yes"/>
      <point x="409" y="358" type="line" smooth="yes"/>
      <point x="409" y="446"/>
      <point x="354" y="498"/>
      <point x="268" y="498" type="curve" smooth="yes"/>
      <point x="211" y="498" type="line" smooth="yes"/>
      <point x="124" y="498"/>
      <point x="70" y="446"/>
      <point x="70" y="358" type="curve" smooth="yes"/>
      <point x="70" y="289" type="line" smooth="yes"/>
      <point x="70" y="201"/>
      <point x="124" y="147"/>
      <point x="211" y="147" type="curve" smooth="yes"/>
    </contour>
    <contour>
      <point x="335" y="192" type="line"/>
      <point x="405" y="123" type="line" smooth="yes"/>
      <point x="412" y="117"/>
      <point x="417" y="118"/>
      <point x="422" y="123" type="curve" smooth="yes"/>
      <point x="438" y="140" type="line" smooth="yes"/>
      <point x="444" y="145"/>
      <point x="445" y="150"/>
      <point x="438" y="156" type="curve" smooth="yes"/>
      <point x="365" y="228" type="line"/>
    </contour>
    <contour>
      <point x="147" y="450" type="line"/>
      <point x="73" y="523" type="line" smooth="yes"/>
      <point x="67" y="530"/>
      <point x="62" y="529"/>
      <point x="57" y="523" type="curve" smooth="yes"/>
      <point x="40" y="506" type="line" smooth="yes"/>
      <point x="35" y="501"/>
      <point x="34" y="496"/>
      <point x="40" y="490" type="curve" smooth="yes"/>
      <point x="115" y="417" type="line"/>
    </contour>
    <contour>
      <point x="362" y="414" type="line"/>
      <point x="439" y="490" type="line" smooth="yes"/>
      <point x="445" y="496"/>
      <point x="444" y="501"/>
      <point x="438" y="506" type="curve" smooth="yes"/>
      <point x="422" y="523" type="line" smooth="yes"/>
      <point x="417" y="529"/>
      <point x="412" y="530"/>
      <point x="405" y="523" type="curve" smooth="yes"/>
      <point x="334" y="454" type="line"/>
    </contour>
    <contour>
      <point x="114" y="229" type="line"/>
      <point x="40" y="156" type="line" smooth="yes"/>
      <point x="34" y="150"/>
      <point x="35" y="145"/>
      <point x="40" y="140" type="curve" smooth="yes"/>
      <point x="57" y="123" type="line" smooth="yes"/>
      <point x="62" y="118"/>
      <point x="67" y="117"/>
      <point x="73" y="123" type="curve" smooth="yes"/>
      <point x="148" y="197" type="line"/>
    </contour>
  </outline>
</glyph>
<glyph name="yen" format="1">
  <advance width="499"/>
  <unicode hex="00A5"/>
  <outline>
    <contour>
      <point x="263" y="0" type="line"/>
      <point x="270" y="0"/>
      <point x="274" y="3"/>
      <point x="274" y="12" type="curve" smooth="yes"/>
      <point x="274" y="170" type="line"/>
      <point x="450" y="170" type="line" smooth="yes"/>
      <point x="459" y="170"/>
      <point x="462" y="174"/>
      <point x="462" y="182" type="curve" smooth="yes"/>
      <point x="462" y="199" type="line" smooth="yes"/>
      <point x="462" y="207"/>
      <point x="459" y="210"/>
      <point x="450" y="210" type="curve" smooth="yes"/>
      <point x="275" y="210" type="line"/>
      <point x="275" y="245" type="line"/>
      <point x="309" y="312" type="line"/>
      <point x="450" y="312" type="line" smooth="yes"/>
      <point x="459" y="312"/>
      <point x="462" y="316"/>
      <point x="462" y="324" type="curve" smooth="yes"/>
      <point x="462" y="341" type="line" smooth="yes"/>
      <point x="462" y="349"/>
      <point x="459" y="352"/>
      <point x="450" y="352" type="curve" smooth="yes"/>
      <point x="329" y="352" type="line"/>
      <point x="468" y="631" type="line" smooth="yes"/>
      <point x="473" y="640"/>
      <point x="469" y="643"/>
      <point x="462" y="643" type="curve" smooth="yes"/>
      <point x="424" y="643" type="line" smooth="yes"/>
      <point x="417" y="643"/>
      <point x="415" y="640"/>
      <point x="411" y="631" type="curve" smooth="yes"/>
      <point x="251" y="301" type="line"/>
      <point x="247" y="301" type="line"/>
      <point x="87" y="631" type="line" smooth="yes"/>
      <point x="83" y="640"/>
      <point x="81" y="643"/>
      <point x="74" y="643" type="curve" smooth="yes"/>
      <point x="36" y="643" type="line" smooth="yes"/>
      <point x="29" y="643"/>
      <point x="26" y="640"/>
      <point x="30" y="631" type="curve" smooth="yes"/>
      <point x="170" y="352" type="line"/>
      <point x="48" y="352" type="line" smooth="yes"/>
      <point x="39" y="352"/>
      <point x="36" y="349"/>
      <point x="36" y="341" type="curve" smooth="yes"/>
      <point x="36" y="324" type="line" smooth="yes"/>
      <point x="36" y="316"/>
      <point x="39" y="312"/>
      <point x="48" y="312" type="curve" smooth="yes"/>
      <point x="189" y="312" type="line"/>
      <point x="223" y="245" type="line"/>
      <point x="223" y="210" type="line"/>
      <point x="48" y="210" type="line" smooth="yes"/>
      <point x="39" y="210"/>
      <point x="36" y="207"/>
      <point x="36" y="199" type="curve" smooth="yes"/>
      <point x="36" y="182" type="line" smooth="yes"/>
      <point x="36" y="174"/>
      <point x="39" y="170"/>
      <point x="48" y="170" type="curve" smooth="yes"/>
      <point x="224" y="170" type="line"/>
      <point x="224" y="12" type="line" smooth="yes"/>
      <point x="224" y="3"/>
      <point x="228" y="0"/>
      <point x="235" y="0" type="curve" smooth="yes"/>
    </contour>
  </outline>
</glyph>
<glyph name="brokenbar" format="1">
  <advance width="201"/>
  <unicode hex="00A6"/>
  <outline>
    <contour>
      <point x="122" y="257" type="line"/>
      <point x="122" y="265"/>
      <point x="119" y="268"/>
      <point x="112" y="268" type="curve" smooth="yes"/>
      <point x="89" y="268" type="line" smooth="yes"/>
      <point x="82" y="268"/>
      <point x="78" y="265"/>
      <point x="78" y="257" type="curve" smooth="yes"/>
      <point x="78" y="12" type="line" smooth="yes"/>
      <point x="78" y="3"/>
      <point x="82" y="0"/>
      <point x="89" y="0" type="curve" smooth="yes"/>
      <point x="112" y="0" type="line" smooth="yes"/>
      <point x="119" y="0"/>
      <point x="122" y="3"/>
      <point x="122" y="12" type="curve" smooth="yes"/>
    </contour>
    <contour>
      <point x="122" y="631" type="line"/>
      <point x="122" y="640"/>
      <point x="119" y="643"/>
      <point x="112" y="643" type="curve" smooth="yes"/>
      <point x="89" y="643" type="line" smooth="yes"/>
      <point x="82" y="643"/>
      <point x="78" y="640"/>
      <point x="78" y="631" type="curve" smooth="yes"/>
      <point x="78" y="386" type="line" smooth="yes"/>
      <point x="78" y="378"/>
      <point x="82" y="375"/>
      <point x="89" y="375" type="curve" smooth="yes"/>
      <point x="112" y="375" type="line" smooth="yes"/>
      <point x="119" y="375"/>
      <point x="122" y="378"/>
      <point x="122" y="386" type="curve" smooth="yes"/>
    </contour>
  </outline>
</glyph>
<glyph name="section" format="1">
  <advance width="454"/>
  <unicode hex="00A7"/>
  <outline>
    <contour>
      <point x="345" y="303" type="line"/>
      <point x="345" y="351"/>
      <point x="319" y="369"/>
      <point x="273" y="378" type="curve" smooth="yes"/>
      <point x="176" y="396" type="line"/>
      <point x="151" y="401"/>
      <point x="127" y="410"/>
      <point x="108" y="427" type="curve"/>
      <point x="108" y="347" type="line" smooth="yes"/>
      <point x="108" y="307"/>
      <point x="128" y="276"/>
      <point x="180" y="266" type="curve" smooth="yes"/>
      <point x="276" y="249" type="line" smooth="yes"/>
      <point x="304" y="244"/>
      <point x="328" y="235"/>
      <point x="345" y="221" type="curve"/>
    </contour>
    <contour>
      <point x="78" y="0" type="line"/>
      <point x="70" y="0"/>
      <point x="67" y="4"/>
      <point x="67" y="11" type="curve" smooth="yes"/>
      <point x="67" y="35" type="line" smooth="yes"/>
      <point x="67" y="42"/>
      <point x="70" y="45"/>
      <point x="78" y="45" type="curve" smooth="yes"/>
      <point x="253" y="45" type="line" smooth="yes"/>
      <point x="331" y="45"/>
      <point x="343" y="87"/>
      <point x="343" y="134" type="curve" smooth="yes"/>
      <point x="343" y="181"/>
      <point x="316" y="198"/>
      <point x="267" y="207" type="curve" smooth="yes"/>
      <point x="161" y="226" type="line"/>
      <point x="103" y="238"/>
      <point x="60" y="274"/>
      <point x="60" y="345" type="curve" smooth="yes"/>
      <point x="60" y="518" type="line" smooth="yes"/>
      <point x="60" y="585"/>
      <point x="90" y="643"/>
      <point x="190" y="643" type="curve" smooth="yes"/>
      <point x="351" y="643" type="line" smooth="yes"/>
      <point x="360" y="643"/>
      <point x="363" y="639"/>
      <point x="363" y="632" type="curve" smooth="yes"/>
      <point x="363" y="608" type="line" smooth="yes"/>
      <point x="363" y="601"/>
      <point x="360" y="598"/>
      <point x="351" y="598" type="curve" smooth="yes"/>
      <point x="191" y="598" type="line" smooth="yes"/>
      <point x="140" y="598"/>
      <point x="110" y="570"/>
      <point x="110" y="516" type="curve" smooth="yes"/>
      <point x="110" y="473"/>
      <point x="126" y="449"/>
      <point x="185" y="438" type="curve" smooth="yes"/>
      <point x="291" y="419" type="line" smooth="yes"/>
      <point x="354" y="407"/>
      <point x="394" y="375"/>
      <point x="394" y="304" type="curve" smooth="yes"/>
      <point x="394" y="134" type="line" smooth="yes"/>
      <point x="394" y="59"/>
      <point x="364" y="0"/>
      <point x="256" y="0" type="curve" smooth="yes"/>
    </contour>
  </outline>
</glyph>
<glyph name="dieresis" format="1">
  <advance width="345"/>
  <unicode hex="00A8"/>
  <outline>
    <contour>
      <point x="230" y="586" type="line"/>
      <point x="230" y="577"/>
      <point x="233" y="574"/>
      <point x="240" y="574" type="curve" smooth="yes"/>
      <point x="268" y="574" type="line" smooth="yes"/>
      <point x="274" y="574"/>
      <point x="278" y="577"/>
      <point x="278" y="586" type="curve" smooth="yes"/>
      <point x="278" y="692" type="line" smooth="yes"/>
      <point x="278" y="700"/>
      <point x="274" y="703"/>
      <point x="268" y="703" type="curve" smooth="yes"/>
      <point x="240" y="703" type="line" smooth="yes"/>
      <point x="233" y="703"/>
      <point x="230" y="700"/>
      <point x="230" y="692" type="curve" smooth="yes"/>
    </contour>
    <contour>
      <point x="66" y="586" type="line"/>
      <point x="66" y="577"/>
      <point x="70" y="574"/>
      <point x="77" y="574" type="curve" smooth="yes"/>
      <point x="105" y="574" type="line" smooth="yes"/>
      <point x="111" y="574"/>
      <point x="115" y="577"/>
      <point x="115" y="586" type="curve" smooth="yes"/>
      <point x="115" y="692" type="line" smooth="yes"/>
      <point x="115" y="700"/>
      <point x="111" y="703"/>
      <point x="105" y="703" type="curve" smooth="yes"/>
      <point x="77" y="703" type="line" smooth="yes"/>
      <point x="70" y="703"/>
      <point x="66" y="700"/>
      <point x="66" y="692" type="curve" smooth="yes"/>
    </contour>
  </outline>
</glyph>
<glyph name="copyright" format="1">
  <advance width="723"/>
  <unicode hex="00A9"/>
  <outline>
    <contour>
      <point x="205" y="643" type="line"/>
      <point x="124" y="643"/>
      <point x="72" y="591"/>
      <point x="72" y="510" type="curve" smooth="yes"/>
      <point x="72" y="133" type="line" smooth="yes"/>
      <point x="72" y="52"/>
      <point x="124" y="0"/>
      <point x="205" y="0" type="curve" smooth="yes"/>
      <point x="518" y="0" type="line" smooth="yes"/>
      <point x="599" y="0"/>
      <point x="650" y="52"/>
      <point x="650" y="133" type="curve" smooth="yes"/>
      <point x="650" y="510" type="line" smooth="yes"/>
      <point x="650" y="591"/>
      <point x="599" y="643"/>
      <point x="518" y="643" type="curve" smooth="yes"/>
    </contour>
    <contour>
      <point x="210" y="38" type="line"/>
      <point x="147" y="38"/>
      <point x="113" y="74"/>
      <point x="113" y="138" type="curve" smooth="yes"/>
      <point x="113" y="505" type="line" smooth="yes"/>
      <point x="113" y="569"/>
      <point x="147" y="605"/>
      <point x="210" y="605" type="curve" smooth="yes"/>
      <point x="513" y="605" type="line" smooth="yes"/>
      <point x="576" y="605"/>
      <point x="610" y="569"/>
      <point x="610" y="505" type="curve" smooth="yes"/>
      <point x="610" y="138" type="line" smooth="yes"/>
      <point x="610" y="74"/>
      <point x="576" y="38"/>
      <point x="513" y="38" type="curve" smooth="yes"/>
    </contour>
    <contour>
      <point x="494" y="402" type="line"/>
      <point x="494" y="482"/>
      <point x="452" y="516"/>
      <point x="373" y="516" type="curve" smooth="yes"/>
      <point x="346" y="516" type="line" smooth="yes"/>
      <point x="267" y="516"/>
      <point x="225" y="482"/>
      <point x="225" y="402" type="curve" smooth="yes"/>
      <point x="225" y="235" type="line" smooth="yes"/>
      <point x="225" y="155"/>
      <point x="267" y="122"/>
      <point x="346" y="122" type="curve" smooth="yes"/>
      <point x="373" y="122" type="line" smooth="yes"/>
      <point x="452" y="122"/>
      <point x="494" y="155"/>
      <point x="494" y="235" type="curve" smooth="yes"/>
      <point x="494" y="261" type="line" smooth="yes"/>
      <point x="494" y="268"/>
      <point x="491" y="271"/>
      <point x="485" y="271" type="curve" smooth="yes"/>
      <point x="463" y="271" type="line" smooth="yes"/>
      <point x="457" y="271"/>
      <point x="453" y="268"/>
      <point x="453" y="261" type="curve" smooth="yes"/>
      <point x="453" y="239" type="line" smooth="yes"/>
      <point x="453" y="176"/>
      <point x="431" y="158"/>
      <point x="368" y="158" type="curve" smooth="yes"/>
      <point x="350" y="158" type="line" smooth="yes"/>
      <point x="288" y="158"/>
      <point x="265" y="176"/>
      <point x="265" y="239" type="curve" smooth="yes"/>
      <point x="265" y="398" type="line" smooth="yes"/>
      <point x="265" y="462"/>
      <point x="288" y="479"/>
      <point x="350" y="479" type="curve" smooth="yes"/>
      <point x="368" y="479" type="line" smooth="yes"/>
      <point x="431" y="479"/>
      <point x="453" y="462"/>
      <point x="453" y="398" type="curve" smooth="yes"/>
      <point x="453" y="382" type="line" smooth="yes"/>
      <point x="453" y="374"/>
      <point x="457" y="372"/>
      <point x="463" y="372" type="curve" smooth="yes"/>
      <point x="485" y="372" type="line" smooth="yes"/>
      <point x="491" y="372"/>
      <point x="494" y="374"/>
      <point x="494" y="382" type="curve" smooth="yes"/>
    </contour>
  </outline>
</glyph>
<glyph name="ordfeminine" format="1">
  <advance width="373"/>
  <unicode hex="00AA"/>
  <outline>
    <contour>
      <point x="273" y="454" type="line"/>
      <point x="273" y="394"/>
      <point x="242" y="361"/>
      <point x="183" y="361" type="curve" smooth="yes"/>
      <point x="176" y="361" type="line" smooth="yes"/>
      <point x="118" y="361"/>
      <point x="94" y="396"/>
      <point x="94" y="455" type="curve" smooth="yes"/>
      <point x="94" y="510" type="line" smooth="yes"/>
      <point x="94" y="570"/>
      <point x="125" y="604"/>
      <point x="184" y="604" type="curve" smooth="yes"/>
      <point x="264" y="604" type="line" smooth="yes"/>
      <point x="270" y="604"/>
      <point x="273" y="602"/>
      <point x="273" y="597" type="curve" smooth="yes"/>
    </contour>
    <contour>
      <point x="180" y="323" type="line"/>
      <point x="226" y="323"/>
      <point x="255" y="341"/>
      <point x="268" y="367" type="curve"/>
      <point x="273" y="367" type="line"/>
      <point x="273" y="333" type="line" smooth="yes"/>
      <point x="273" y="325"/>
      <point x="276" y="323"/>
      <point x="282" y="323" type="curve" smooth="yes"/>
      <point x="306" y="323" type="line" smooth="yes"/>
      <point x="312" y="323"/>
      <point x="315" y="325"/>
      <point x="315" y="333" type="curve" smooth="yes"/>
      <point x="315" y="633" type="line" smooth="yes"/>
      <point x="315" y="641"/>
      <point x="312" y="643"/>
      <point x="306" y="643" type="curve" smooth="yes"/>
      <point x="182" y="643" type="line" smooth="yes"/>
      <point x="103" y="643"/>
      <point x="52" y="593"/>
      <point x="52" y="514" type="curve" smooth="yes"/>
      <point x="52" y="452" type="line" smooth="yes"/>
      <point x="52" y="373"/>
      <point x="96" y="323"/>
      <point x="174" y="323" type="curve" smooth="yes"/>
    </contour>
  </outline>
</glyph>
<glyph name="guillemotleft" format="1">
  <advance width="431"/>
  <unicode hex="00AB"/>
  <outline>
    <contour>
      <point x="217" y="374" type="line"/>
      <point x="224" y="380"/>
      <point x="226" y="383"/>
      <point x="226" y="391" type="curve" smooth="yes"/>
      <point x="226" y="415" type="line" smooth="yes"/>
      <point x="226" y="424"/>
      <point x="220" y="429"/>
      <point x="212" y="421" type="curve" smooth="yes"/>
      <point x="76" y="288" type="line" smooth="yes"/>
      <point x="69" y="281"/>
      <point x="65" y="277"/>
      <point x="65" y="265" type="curve" smooth="yes"/>
      <point x="65" y="246" type="line" smooth="yes"/>
      <point x="65" y="233"/>
      <point x="69" y="230"/>
      <point x="76" y="223" type="curve" smooth="yes"/>
      <point x="212" y="90" type="line" smooth="yes"/>
      <point x="220" y="82"/>
      <point x="226" y="87"/>
      <point x="226" y="96" type="curve" smooth="yes"/>
      <point x="226" y="120" type="line" smooth="yes"/>
      <point x="226" y="128"/>
      <point x="224" y="130"/>
      <point x="217" y="137" type="curve" smooth="yes"/>
      <point x="97" y="255" type="line"/>
    </contour>
    <contour>
      <point x="358" y="374" type="line"/>
      <point x="365" y="380"/>
      <point x="366" y="383"/>
      <point x="366" y="391" type="curve" smooth="yes"/>
      <point x="366" y="415" type="line" smooth="yes"/>
      <point x="366" y="424"/>
      <point x="361" y="429"/>
      <point x="353" y="421" type="curve" smooth="yes"/>
      <point x="217" y="288" type="line" smooth="yes"/>
      <point x="210" y="281"/>
      <point x="206" y="277"/>
      <point x="206" y="265" type="curve" smooth="yes"/>
      <point x="206" y="246" type="line" smooth="yes"/>
      <point x="206" y="233"/>
      <point x="210" y="230"/>
      <point x="217" y="223" type="curve" smooth="yes"/>
      <point x="353" y="90" type="line" smooth="yes"/>
      <point x="361" y="82"/>
      <point x="366" y="87"/>
      <point x="366" y="96" type="curve" smooth="yes"/>
      <point x="366" y="120" type="line" smooth="yes"/>
      <point x="366" y="128"/>
      <point x="365" y="130"/>
      <point x="358" y="137" type="curve" smooth="yes"/>
      <point x="238" y="255" type="line"/>
    </contour>
  </outline>
</glyph>
<glyph name="logicalnot" format="1">
  <advance width="509"/>
  <unicode hex="00AC"/>
  <outline>
    <contour>
      <point x="445" y="320" type="line"/>
      <point x="445" y="329"/>
      <point x="441" y="332"/>
      <point x="433" y="332" type="curve" smooth="yes"/>
      <point x="410" y="332" type="line" smooth="yes"/>
      <point x="402" y="332"/>
      <point x="399" y="329"/>
      <point x="399" y="320" type="curve" smooth="yes"/>
      <point x="399" y="162" type="line" smooth="yes"/>
      <point x="399" y="152"/>
      <point x="402" y="150"/>
      <point x="410" y="150" type="curve" smooth="yes"/>
      <point x="433" y="150" type="line" smooth="yes"/>
      <point x="441" y="150"/>
      <point x="445" y="152"/>
      <point x="445" y="162" type="curve" smooth="yes"/>
    </contour>
    <contour>
      <point x="75" y="342" type="line"/>
      <point x="66" y="342"/>
      <point x="64" y="339"/>
      <point x="64" y="331" type="curve" smooth="yes"/>
      <point x="64" y="313" type="line" smooth="yes"/>
      <point x="64" y="306"/>
      <point x="66" y="302"/>
      <point x="75" y="302" type="curve" smooth="yes"/>
      <point x="434" y="302" type="line" smooth="yes"/>
      <point x="442" y="302"/>
      <point x="445" y="306"/>
      <point x="445" y="313" type="curve" smooth="yes"/>
      <point x="445" y="331" type="line" smooth="yes"/>
      <point x="445" y="339"/>
      <point x="442" y="342"/>
      <point x="434" y="342" type="curve" smooth="yes"/>
    </contour>
  </outline>
</glyph>
<glyph name="softhyphen" format="1">
  <advance width="312"/>
  <unicode hex="00AD"/>
  <outline>
    <contour>
      <point x="260" y="298" type="line"/>
      <point x="269" y="298"/>
      <point x="272" y="302"/>
      <point x="272" y="309" type="curve" smooth="yes"/>
      <point x="272" y="331" type="line" smooth="yes"/>
      <point x="272" y="338"/>
      <point x="269" y="342"/>
      <point x="260" y="342" type="curve" smooth="yes"/>
      <point x="52" y="342" type="line" smooth="yes"/>
      <point x="43" y="342"/>
      <point x="40" y="338"/>
      <point x="40" y="331" type="curve" smooth="yes"/>
      <point x="40" y="309" type="line" smooth="yes"/>
      <point x="40" y="302"/>
      <point x="43" y="298"/>
      <point x="52" y="298" type="curve" smooth="yes"/>
    </contour>
  </outline>
</glyph>
<glyph name="registered" format="1">
  <advance width="439"/>
  <unicode hex="00AE"/>
  <outline>
    <contour>
      <point x="267" y="400" type="line"/>
      <point x="330" y="400"/>
      <point x="371" y="441"/>
      <point x="371" y="505" type="curve" smooth="yes"/>
      <point x="371" y="603" type="line" smooth="yes"/>
      <point x="371" y="667"/>
      <point x="330" y="708"/>
      <point x="267" y="708" type="curve" smooth="yes"/>
      <point x="172" y="708" type="line" smooth="yes"/>
      <point x="109" y="708"/>
      <point x="68" y="667"/>
      <point x="68" y="603" type="curve" smooth="yes"/>
      <point x="68" y="505" type="line" smooth="yes"/>
      <point x="68" y="441"/>
      <point x="109" y="400"/>
      <point x="172" y="400" type="curve" smooth="yes"/>
    </contour>
    <contour>
      <point x="174" y="428" type="line"/>
      <point x="124" y="428"/>
      <point x="97" y="457"/>
      <point x="97" y="508" type="curve" smooth="yes"/>
      <point x="97" y="600" type="line" smooth="yes"/>
      <point x="97" y="651"/>
      <point x="124" y="680"/>
      <point x="174" y="680" type="curve" smooth="yes"/>
      <point x="264" y="680" type="line" smooth="yes"/>
      <point x="315" y="680"/>
      <point x="341" y="651"/>
      <point x="341" y="600" type="curve" smooth="yes"/>
      <point x="341" y="508" type="line" smooth="yes"/>
      <point x="341" y="457"/>
      <point x="315" y="428"/>
      <point x="264" y="428" type="curve" smooth="yes"/>
    </contour>
    <contour>
      <point x="165" y="475" type="line"/>
      <point x="165" y="466"/>
      <point x="169" y="464"/>
      <point x="176" y="464" type="curve" smooth="yes"/>
      <point x="183" y="464" type="line" smooth="yes"/>
      <point x="190" y="464"/>
      <point x="193" y="466"/>
      <point x="193" y="475" type="curve" smooth="yes"/>
      <point x="193" y="531" type="line"/>
      <point x="231" y="531" type="line"/>
      <point x="258" y="471" type="line" smooth="yes"/>
      <point x="260" y="465"/>
      <point x="263" y="464"/>
      <point x="269" y="464" type="curve" smooth="yes"/>
      <point x="279" y="464" type="line" smooth="yes"/>
      <point x="287" y="464"/>
      <point x="288" y="468"/>
      <point x="284" y="476" type="curve" smooth="yes"/>
      <point x="257" y="533" type="line"/>
      <point x="274" y="539"/>
      <point x="282" y="553"/>
      <point x="282" y="575" type="curve" smooth="yes"/>
      <point x="282" y="601" type="line" smooth="yes"/>
      <point x="282" y="629"/>
      <point x="265" y="646"/>
      <point x="237" y="646" type="curve" smooth="yes"/>
      <point x="176" y="646" type="line" smooth="yes"/>
      <point x="169" y="646"/>
      <point x="165" y="643"/>
      <point x="165" y="634" type="curve" smooth="yes"/>
    </contour>
    <contour>
      <point x="236" y="620" type="line"/>
      <point x="248" y="620"/>
      <point x="254" y="613"/>
      <point x="254" y="602" type="curve" smooth="yes"/>
      <point x="254" y="574" type="line" smooth="yes"/>
      <point x="254" y="563"/>
      <point x="248" y="556"/>
      <point x="236" y="556" type="curve" smooth="yes"/>
      <point x="193" y="556" type="line"/>
      <point x="193" y="620" type="line"/>
    </contour>
  </outline>
</glyph>
<glyph name="macron" format="1">
  <advance width="358"/>
  <unicode hex="00AF"/>
  <outline>
    <contour>
      <point x="280" y="620" type="line"/>
      <point x="289" y="620"/>
      <point x="292" y="624"/>
      <point x="292" y="631" type="curve" smooth="yes"/>
      <point x="292" y="648" type="line" smooth="yes"/>
      <point x="292" y="654"/>
      <point x="289" y="658"/>
      <point x="280" y="658" type="curve" smooth="yes"/>
      <point x="78" y="658" type="line" smooth="yes"/>
      <point x="69" y="658"/>
      <point x="66" y="654"/>
      <point x="66" y="648" type="curve" smooth="yes"/>
      <point x="66" y="631" type="line" smooth="yes"/>
      <point x="66" y="624"/>
      <point x="69" y="620"/>
      <point x="78" y="620" type="curve" smooth="yes"/>
    </contour>
  </outline>
</glyph>
<glyph name="degree" format="1">
  <advance width="298"/>
  <unicode hex="00B0"/>
  <outline>
    <contour>
      <point x="155" y="540" type="curve"/>
      <point x="143" y="540" type="line"/>
      <point x="117" y="540"/>
      <point x="111" y="548"/>
      <point x="111" y="572" type="curve" smooth="yes"/>
      <point x="111" y="641" type="line" smooth="yes"/>
      <point x="111" y="666"/>
      <point x="117" y="673"/>
      <point x="143" y="673" type="curve" smooth="yes"/>
      <point x="155" y="673" type="line"/>
      <point x="181" y="673"/>
      <point x="186" y="666"/>
      <point x="186" y="641" type="curve" smooth="yes"/>
      <point x="186" y="572" type="line" smooth="yes"/>
      <point x="186" y="548"/>
      <point x="181" y="540"/>
    </contour>
    <contour>
      <point x="169" y="511" type="line"/>
      <point x="199" y="511"/>
      <point x="219" y="529"/>
      <point x="219" y="560" type="curve" smooth="yes"/>
      <point x="219" y="657" type="line" smooth="yes"/>
      <point x="219" y="687"/>
      <point x="199" y="704"/>
      <point x="169" y="704" type="curve" smooth="yes"/>
      <point x="127" y="704" type="line" smooth="yes"/>
      <point x="96" y="704"/>
      <point x="78" y="687"/>
      <point x="78" y="657" type="curve" smooth="yes"/>
      <point x="78" y="560" type="line" smooth="yes"/>
      <point x="78" y="529"/>
      <point x="96" y="511"/>
      <point x="127" y="511" type="curve" smooth="yes"/>
    </contour>
  </outline>
</glyph>
<glyph name="plusminus" format="1">
  <advance width="523"/>
  <unicode hex="00B1"/>
  <outline>
    <contour>
      <point x="285" y="501" type="line"/>
      <point x="285" y="510"/>
      <point x="281" y="513"/>
      <point x="273" y="513" type="curve" smooth="yes"/>
      <point x="250" y="513" type="line" smooth="yes"/>
      <point x="242" y="513"/>
      <point x="238" y="510"/>
      <point x="238" y="501" type="curve" smooth="yes"/>
      <point x="238" y="239" type="line" smooth="yes"/>
      <point x="238" y="230"/>
      <point x="242" y="227"/>
      <point x="250" y="227" type="curve" smooth="yes"/>
      <point x="273" y="227" type="line" smooth="yes"/>
      <point x="281" y="227"/>
      <point x="285" y="230"/>
      <point x="285" y="239" type="curve" smooth="yes"/>
    </contour>
    <contour>
      <point x="82" y="391" type="line"/>
      <point x="73" y="391"/>
      <point x="70" y="388"/>
      <point x="70" y="380" type="curve" smooth="yes"/>
      <point x="70" y="359" type="line" smooth="yes"/>
      <point x="70" y="352"/>
      <point x="73" y="348"/>
      <point x="82" y="348" type="curve" smooth="yes"/>
      <point x="441" y="348" type="line" smooth="yes"/>
      <point x="451" y="348"/>
      <point x="453" y="352"/>
      <point x="453" y="359" type="curve" smooth="yes"/>
      <point x="453" y="380" type="line" smooth="yes"/>
      <point x="453" y="388"/>
      <point x="451" y="391"/>
      <point x="441" y="391" type="curve" smooth="yes"/>
    </contour>
    <contour>
      <point x="82" y="173" type="line"/>
      <point x="73" y="173"/>
      <point x="70" y="169"/>
      <point x="70" y="162" type="curve" smooth="yes"/>
      <point x="70" y="141" type="line" smooth="yes"/>
      <point x="70" y="133"/>
      <point x="73" y="129"/>
      <point x="82" y="129" type="curve" smooth="yes"/>
      <point x="441" y="129" type="line" smooth="yes"/>
      <point x="451" y="129"/>
      <point x="453" y="133"/>
      <point x="453" y="141" type="curve" smooth="yes"/>
      <point x="453" y="162" type="line" smooth="yes"/>
      <point x="453" y="169"/>
      <point x="451" y="173"/>
      <point x="441" y="173" type="curve" smooth="yes"/>
    </contour>
  </outline>
</glyph>
<glyph name="twosuperior" format="1">
  <advance width="317"/>
  <unicode hex="00B2"/>
  <outline>
    <contour>
      <point x="48" y="309" type="line"/>
      <point x="48" y="303"/>
      <point x="50" y="300"/>
      <point x="57" y="300" type="curve" smooth="yes"/>
      <point x="266" y="300" type="line" smooth="yes"/>
      <point x="274" y="300"/>
      <point x="276" y="303"/>
      <point x="276" y="309" type="curve" smooth="yes"/>
      <point x="276" y="328" type="line" smooth="yes"/>
      <point x="276" y="334"/>
      <point x="274" y="337"/>
      <point x="266" y="337" type="curve" smooth="yes"/>
      <point x="91" y="337" type="line"/>
      <point x="91" y="341" type="line" smooth="yes"/>
      <point x="91" y="357"/>
      <point x="105" y="368"/>
      <point x="140" y="393" type="curve"/>
      <point x="218" y="448" type="line" smooth="yes"/>
      <point x="255" y="474"/>
      <point x="271" y="495"/>
      <point x="271" y="544" type="curve" smooth="yes"/>
      <point x="271" y="554" type="line" smooth="yes"/>
      <point x="271" y="611"/>
      <point x="236" y="643"/>
      <point x="164" y="643" type="curve" smooth="yes"/>
      <point x="152" y="643" type="line" smooth="yes"/>
      <point x="79" y="643"/>
      <point x="46" y="611"/>
      <point x="46" y="551" type="curve" smooth="yes"/>
      <point x="46" y="538" type="line" smooth="yes"/>
      <point x="46" y="531"/>
      <point x="49" y="529"/>
      <point x="55" y="529" type="curve" smooth="yes"/>
      <point x="79" y="529" type="line" smooth="yes"/>
      <point x="85" y="529"/>
      <point x="89" y="531"/>
      <point x="89" y="538" type="curve" smooth="yes"/>
      <point x="89" y="548" type="line" smooth="yes"/>
      <point x="89" y="586"/>
      <point x="104" y="606"/>
      <point x="157" y="606" type="curve" smooth="yes"/>
      <point x="162" y="606" type="line" smooth="yes"/>
      <point x="214" y="606"/>
      <point x="230" y="586"/>
      <point x="230" y="551" type="curve" smooth="yes"/>
      <point x="230" y="545" type="line" smooth="yes"/>
      <point x="230" y="513"/>
      <point x="222" y="497"/>
      <point x="190" y="475" type="curve" smooth="yes"/>
      <point x="111" y="420" type="line"/>
      <point x="68" y="391"/>
      <point x="48" y="374"/>
      <point x="48" y="335" type="curve" smooth="yes"/>
    </contour>
  </outline>
</glyph>
<glyph name="threesuperior" format="1">
  <advance width="330"/>
  <unicode hex="00B3"/>
  <outline>
    <contour>
      <point x="154" y="490" type="line"/>
      <point x="147" y="490"/>
      <point x="144" y="487"/>
      <point x="144" y="482" type="curve" smooth="yes"/>
      <point x="144" y="462" type="line" smooth="yes"/>
      <point x="144" y="457"/>
      <point x="147" y="454"/>
      <point x="154" y="454" type="curve" smooth="yes"/>
      <point x="176" y="454" type="line" smooth="yes"/>
      <point x="218" y="454"/>
      <point x="241" y="441"/>
      <point x="241" y="403" type="curve" smooth="yes"/>
      <point x="241" y="397" type="line" smooth="yes"/>
      <point x="241" y="352"/>
      <point x="219" y="336"/>
      <point x="173" y="336" type="curve" smooth="yes"/>
      <point x="167" y="336" type="line" smooth="yes"/>
      <point x="132" y="336"/>
      <point x="93" y="342"/>
      <point x="93" y="395" type="curve" smooth="yes"/>
      <point x="93" y="411" type="line" smooth="yes"/>
      <point x="93" y="418"/>
      <point x="90" y="421"/>
      <point x="84" y="421" type="curve" smooth="yes"/>
      <point x="61" y="421" type="line" smooth="yes"/>
      <point x="56" y="421"/>
      <point x="53" y="418"/>
      <point x="53" y="411" type="curve" smooth="yes"/>
      <point x="53" y="392" type="line" smooth="yes"/>
      <point x="53" y="319"/>
      <point x="105" y="300"/>
      <point x="163" y="300" type="curve" smooth="yes"/>
      <point x="177" y="300" type="line" smooth="yes"/>
      <point x="250" y="300"/>
      <point x="281" y="332"/>
      <point x="281" y="395" type="curve" smooth="yes"/>
      <point x="281" y="406" type="line" smooth="yes"/>
      <point x="281" y="440"/>
      <point x="267" y="466"/>
      <point x="231" y="472" type="curve"/>
      <point x="269" y="482"/>
      <point x="281" y="511"/>
      <point x="281" y="539" type="curve" smooth="yes"/>
      <point x="281" y="551" type="line" smooth="yes"/>
      <point x="281" y="608"/>
      <point x="250" y="643"/>
      <point x="175" y="643" type="curve" smooth="yes"/>
      <point x="161" y="643" type="line" smooth="yes"/>
      <point x="85" y="643"/>
      <point x="53" y="611"/>
      <point x="53" y="551" type="curve" smooth="yes"/>
      <point x="53" y="530" type="line" smooth="yes"/>
      <point x="53" y="522"/>
      <point x="56" y="520"/>
      <point x="61" y="520" type="curve" smooth="yes"/>
      <point x="84" y="520" type="line" smooth="yes"/>
      <point x="90" y="520"/>
      <point x="93" y="522"/>
      <point x="93" y="530" type="curve" smooth="yes"/>
      <point x="93" y="548" type="line" smooth="yes"/>
      <point x="93" y="588"/>
      <point x="107" y="607"/>
      <point x="165" y="607" type="curve" smooth="yes"/>
      <point x="171" y="607" type="line" smooth="yes"/>
      <point x="229" y="607"/>
      <point x="241" y="584"/>
      <point x="241" y="548" type="curve" smooth="yes"/>
      <point x="241" y="541" type="line" smooth="yes"/>
      <point x="241" y="504"/>
      <point x="226" y="490"/>
      <point x="176" y="490" type="curve" smooth="yes"/>
    </contour>
  </outline>
</glyph>
<glyph name="acute" format="1">
  <advance width="269"/>
  <unicode hex="00B4"/>
  <outline>
    <contour>
      <point x="150" y="703" type="line"/>
      <point x="142" y="703"/>
      <point x="136" y="700"/>
      <point x="132" y="692" type="curve" smooth="yes"/>
      <point x="69" y="586" type="line" smooth="yes"/>
      <point x="65" y="578"/>
      <point x="67" y="574"/>
      <point x="74" y="574" type="curve" smooth="yes"/>
      <point x="93" y="574" type="line" smooth="yes"/>
      <point x="100" y="574"/>
      <point x="105" y="577"/>
      <point x="110" y="583" type="curve" smooth="yes"/>
      <point x="200" y="692" type="line" smooth="yes"/>
      <point x="205" y="698"/>
      <point x="201" y="703"/>
      <point x="195" y="703" type="curve" smooth="yes"/>
    </contour>
  </outline>
</glyph>
<glyph name="mu.math" format="1">
  <advance width="527"/>
  <unicode hex="00B5"/>
  <outline>
    <contour>
      <point x="133" y="36" type="line"/>
      <point x="169" y="-8"/>
      <point x="229" y="0"/>
      <point x="286" y="0" type="curve" smooth="yes"/>
      <point x="344" y="0"/>
      <point x="376" y="24"/>
      <point x="391" y="52" type="curve"/>
      <point x="395" y="52" type="line"/>
      <point x="395" y="12" type="line" smooth="yes"/>
      <point x="395" y="3"/>
      <point x="399" y="0"/>
      <point x="406" y="0" type="curve" smooth="yes"/>
      <point x="434" y="0" type="line" smooth="yes"/>
      <point x="441" y="0"/>
      <point x="445" y="3"/>
      <point x="445" y="12" type="curve" smooth="yes"/>
      <point x="445" y="498" type="line" smooth="yes"/>
      <point x="445" y="507"/>
      <point x="441" y="510"/>
      <point x="434" y="510" type="curve" smooth="yes"/>
      <point x="406" y="510" type="line" smooth="yes"/>
      <point x="399" y="510"/>
      <point x="395" y="507"/>
      <point x="395" y="498" type="curve" smooth="yes"/>
      <point x="395" y="143" type="line" smooth="yes"/>
      <point x="395" y="80"/>
      <point x="355" y="45"/>
      <point x="292" y="45" type="curve" smooth="yes"/>
      <point x="227" y="45" type="line" smooth="yes"/>
      <point x="165" y="45"/>
      <point x="133" y="81"/>
      <point x="133" y="144" type="curve" smooth="yes"/>
      <point x="133" y="498" type="line" smooth="yes"/>
      <point x="133" y="507"/>
      <point x="129" y="510"/>
      <point x="122" y="510" type="curve" smooth="yes"/>
      <point x="93" y="510" type="line" smooth="yes"/>
      <point x="86" y="510"/>
      <point x="82" y="507"/>
      <point x="82" y="498" type="curve" smooth="yes"/>
      <point x="82" y="-121" type="line" smooth="yes"/>
      <point x="82" y="-130"/>
      <point x="86" y="-133"/>
      <point x="93" y="-133" type="curve" smooth="yes"/>
      <point x="122" y="-133" type="line" smooth="yes"/>
      <point x="129" y="-133"/>
      <point x="133" y="-130"/>
      <point x="133" y="-121" type="curve" smooth="yes"/>
    </contour>
  </outline>
</glyph>
<glyph name="paragraph" format="1">
  <advance width="513"/>
  <unicode hex="00B6"/>
  <outline>
    <contour>
      <point x="206" y="0" type="line"/>
      <point x="213" y="0"/>
      <point x="216" y="3"/>
      <point x="216" y="12" type="curve" smooth="yes"/>
      <point x="216" y="591" type="line" smooth="yes"/>
      <point x="216" y="597"/>
      <point x="220" y="600"/>
      <point x="226" y="600" type="curve" smooth="yes"/>
      <point x="371" y="600" type="line" smooth="yes"/>
      <point x="379" y="600"/>
      <point x="381" y="597"/>
      <point x="381" y="591" type="curve" smooth="yes"/>
      <point x="381" y="12" type="line" smooth="yes"/>
      <point x="381" y="3"/>
      <point x="385" y="0"/>
      <point x="392" y="0" type="curve" smooth="yes"/>
      <point x="415" y="0" type="line" smooth="yes"/>
      <point x="422" y="0"/>
      <point x="426" y="3"/>
      <point x="426" y="12" type="curve" smooth="yes"/>
      <point x="426" y="632" type="line" smooth="yes"/>
      <point x="426" y="640"/>
      <point x="423" y="643"/>
      <point x="415" y="643" type="curve" smooth="yes"/>
      <point x="179" y="643" type="line" smooth="yes"/>
      <point x="100" y="643"/>
      <point x="50" y="611"/>
      <point x="50" y="525" type="curve" smooth="yes"/>
      <point x="50" y="440" type="line" smooth="yes"/>
      <point x="50" y="357"/>
      <point x="96" y="323"/>
      <point x="171" y="322" type="curve"/>
      <point x="171" y="12" type="line" smooth="yes"/>
      <point x="171" y="3"/>
      <point x="175" y="0"/>
      <point x="182" y="0" type="curve" smooth="yes"/>
    </contour>
  </outline>
</glyph>
<glyph name="periodcentered" format="1">
  <advance width="207"/>
  <unicode hex="00B7"/>
  <outline>
    <contour>
      <point x="131" y="378" type="line"/>
      <point x="131" y="387"/>
      <point x="128" y="390"/>
      <point x="121" y="390" type="curve" smooth="yes"/>
      <point x="86" y="390" type="line" smooth="yes"/>
      <point x="79" y="390"/>
      <point x="75" y="386"/>
      <point x="75" y="378" type="curve" smooth="yes"/>
      <point x="75" y="259" type="line" smooth="yes"/>
      <point x="75" y="250"/>
      <point x="79" y="247"/>
      <point x="86" y="247" type="curve" smooth="yes"/>
      <point x="121" y="247" type="line" smooth="yes"/>
      <point x="128" y="247"/>
      <point x="131" y="250"/>
      <point x="131" y="259" type="curve" smooth="yes"/>
    </contour>
  </outline>
</glyph>
